<?xml version="1.0" encoding="UTF-8" standalone="no"?><svg xmlns="http://www.w3.org/2000/svg" xmlns:xlink="http://www.w3.org/1999/xlink" contentScriptType="application/ecmascript" contentStyleType="text/css" height="139px" preserveAspectRatio="none" style="width:202px;height:139px;" version="1.1" viewBox="0 0 202 139" width="202px" zoomAndPan="magnify"><defs><filter height="300%" id="fu7cs038uziqr" width="300%" x="-1" y="-1"><feGaussianBlur result="blurOut" stdDeviation="2.0"/><feColorMatrix in="blurOut" result="blurOut2" type="matrix" values="0 0 0 0 0 0 0 0 0 0 0 0 0 0 0 0 0 0 .4 0"/><feOffset dx="4.0" dy="4.0" in="blurOut2" result="blurOut3"/><feBlend in="SourceGraphic" in2="blurOut3" mode="normal"/></filter></defs><g><!--class lu.uni.intro2prog.exam.task2.Drink--><a href="Drink.html" target="_top" xlink:actuate="onRequest" xlink:show="new" xlink:title="Drink.html" xlink:type="simple"><rect fill="#FEFECE" filter="url(#fu7cs038uziqr)" height="97.6953" id="lu.uni.intro2prog.exam.task2.Drink" style="stroke: #A80036; stroke-width: 1.5;" width="165" x="6.5" y="8"/><ellipse cx="21.5" cy="28.0938" fill="#A9DCDF" rx="11" ry="11" style="stroke: #A80036; stroke-width: 1.0;"/><path d="M23.6875,29.8594 L19.5469,29.8594 L19.125,30.8906 L19.5469,30.8906 Q20.1563,30.8906 20.4219,31.125 Q20.6875,31.3594 20.6875,31.75 Q20.6875,32.125 20.4219,32.3594 Q20.1563,32.5938 19.5469,32.5938 L17.25,32.5938 Q16.6406,32.5938 16.3828,32.3594 Q16.125,32.125 16.125,31.7344 Q16.125,31.3594 16.3984,31.1172 Q16.6719,30.875 17.2969,30.8906 L19.9688,24.2344 L18.8594,24.2344 Q18.25,24.2344 17.9844,24 Q17.7188,23.7656 17.7188,23.375 Q17.7188,23 17.9844,22.7656 Q18.25,22.5313 18.8594,22.5313 L22.5313,22.5313 L25.9219,30.8906 Q26.5156,30.8906 26.7031,31.0313 Q27.0938,31.2969 27.0938,31.75 Q27.0938,32.125 26.8359,32.3594 Q26.5781,32.5938 25.9688,32.5938 L23.6719,32.5938 Q23.0625,32.5938 22.7969,32.3594 Q22.5313,32.125 22.5313,31.7344 Q22.5313,31.3594 22.7969,31.125 Q23.0625,30.8906 23.6719,30.8906 L24.0938,30.8906 L23.6875,29.8594 Z M22.9688,28.1563 L21.6094,24.7813 L20.2344,28.1563 L22.9688,28.1563 Z "/><text fill="#000000" font-family="sans-serif" font-size="14" font-style="italic" lengthAdjust="spacingAndGlyphs" textLength="34" x="85" y="27.5332">Drink</text><text fill="#000000" font-family="sans-serif" font-size="10" font-style="italic" lengthAdjust="spacingAndGlyphs" textLength="133" x="35.5" y="40.9902">lu.uni.intro2prog.exam.task2</text><line style="stroke: #A80036; stroke-width: 1.5;" x1="7.5" x2="170.5" y1="48.1875" y2="48.1875"/><rect fill="none" height="6" style="stroke: #C82930; stroke-width: 1.0;" width="6" x="14.5" y="57.6055"/><text fill="#000000" font-family="sans-serif" font-size="11" lengthAdjust="spacingAndGlyphs" textLength="50" x="26.5" y="63.6064">milliliter: int</text><line style="stroke: #A80036; stroke-width: 1.5;" x1="7.5" x2="170.5" y1="70.0234" y2="70.0234"/><ellipse cx="17.5" cy="82.4414" fill="#84BE84" rx="3" ry="3" style="stroke: #038048; stroke-width: 1.0;"/><text fill="#000000" font-family="sans-serif" font-size="11" lengthAdjust="spacingAndGlyphs" textLength="43" x="26.5" y="85.4424">Drink(int)</text><ellipse cx="17.5" cy="96.2773" fill="#84BE84" rx="3" ry="3" style="stroke: #038048; stroke-width: 1.0;"/><text fill="#000000" font-family="sans-serif" font-size="11" lengthAdjust="spacingAndGlyphs" textLength="73" x="26.5" y="99.2783">getMilliliter(): int</text></a><text fill="#888888" font-family="sans-serif" font-size="10" lengthAdjust="spacingAndGlyphs" textLength="190" x="0" y="126.3809">UMLDoclet 2.0.10, PlantUML 1.2019.08</text><!--
@startuml
    set namespaceSeparator none
    hide empty fields
    hide empty methods

    abstract class "<size:14>Drink\n<size:10>lu.uni.intro2prog.exam.task2" as lu.uni.intro2prog.exam.task2.Drink [[Drink.html]] {
        -milliliter: int
        +Drink(int)
        +getMilliliter(): int
    }

    center footer UMLDoclet 2.0.10, PlantUML 1.2019.08
@enduml

PlantUML version 1.2019.08(Sat Jul 13 21:25:14 CEST 2019)
(APACHE source distribution)
Java Runtime: Java(TM) SE Runtime Environment
JVM: Java HotSpot(TM) 64-Bit Server VM
Java Version: 9.0.4+11
Operating System: Windows 10
OS Version: 10.0
Default Encoding: Cp1252
Language: en
Country: US
--></g></svg>