<?xml version="1.0" encoding="UTF-8" standalone="no"?><svg xmlns="http://www.w3.org/2000/svg" xmlns:xlink="http://www.w3.org/1999/xlink" contentScriptType="application/ecmascript" contentStyleType="text/css" height="261px" preserveAspectRatio="none" style="width:382px;height:261px;" version="1.1" viewBox="0 0 382 261" width="382px" zoomAndPan="magnify"><defs><filter height="300%" id="fgcn13oyq367h" width="300%" x="-1" y="-1"><feGaussianBlur result="blurOut" stdDeviation="2.0"/><feColorMatrix in="blurOut" result="blurOut2" type="matrix" values="0 0 0 0 0 0 0 0 0 0 0 0 0 0 0 0 0 0 .4 0"/><feOffset dx="4.0" dy="4.0" in="blurOut2" result="blurOut3"/><feBlend in="SourceGraphic" in2="blurOut3" mode="normal"/></filter></defs><g><!--class lu.uni.intro2prog.exam.task2.HotChocolate--><a href="HotChocolate.html" target="_top" xlink:actuate="onRequest" xlink:show="new" xlink:title="HotChocolate.html" xlink:type="simple"><rect fill="#FEFECE" filter="url(#fgcn13oyq367h)" height="97.6953" id="lu.uni.intro2prog.exam.task2.HotChocolate" style="stroke: #A80036; stroke-width: 1.5;" width="165" x="106" y="130"/><ellipse cx="121" cy="150.0938" fill="#ADD1B2" rx="11" ry="11" style="stroke: #A80036; stroke-width: 1.0;"/><path d="M123.7656,145.9688 Q123.9219,145.75 124.1094,145.6406 Q124.2969,145.5313 124.5156,145.5313 Q124.8906,145.5313 125.125,145.7891 Q125.3594,146.0469 125.3594,146.6563 L125.3594,148.1094 Q125.3594,148.7188 125.125,148.9844 Q124.8906,149.25 124.5156,149.25 Q124.1719,149.25 123.9688,149.0469 Q123.7656,148.8594 123.6563,148.3438 Q123.6094,147.9844 123.4219,147.7969 Q123.0938,147.4219 122.4844,147.2031 Q121.875,146.9844 121.25,146.9844 Q120.4844,146.9844 119.8516,147.3125 Q119.2188,147.6406 118.7266,148.3906 Q118.2344,149.1406 118.2344,150.1719 L118.2344,151.2656 Q118.2344,152.5 119.125,153.3203 Q120.0156,154.1406 121.6094,154.1406 Q122.5469,154.1406 123.2031,153.8906 Q123.5938,153.7344 124.0156,153.2969 Q124.2813,153.0313 124.4297,152.9531 Q124.5781,152.875 124.7813,152.875 Q125.1094,152.875 125.3672,153.1328 Q125.625,153.3906 125.625,153.7344 Q125.625,154.0781 125.2813,154.4844 Q124.7813,155.0625 123.9844,155.3906 Q122.9063,155.8438 121.6094,155.8438 Q120.0938,155.8438 118.8906,155.2188 Q117.9063,154.7188 117.2188,153.6484 Q116.5313,152.5781 116.5313,151.2969 L116.5313,150.1406 Q116.5313,148.8125 117.1484,147.6641 Q117.7656,146.5156 118.8594,145.8984 Q119.9531,145.2813 121.1875,145.2813 Q121.9219,145.2813 122.5703,145.4453 Q123.2188,145.6094 123.7656,145.9688 Z "/><text fill="#000000" font-family="sans-serif" font-size="14" lengthAdjust="spacingAndGlyphs" textLength="85" x="159" y="149.5332">HotChocolate</text><text fill="#000000" font-family="sans-serif" font-size="10" lengthAdjust="spacingAndGlyphs" textLength="133" x="135" y="162.9902">lu.uni.intro2prog.exam.task2</text><line style="stroke: #A80036; stroke-width: 1.5;" x1="107" x2="270" y1="170.1875" y2="170.1875"/><rect fill="none" height="6" style="stroke: #C82930; stroke-width: 1.0;" width="6" x="114" y="179.6055"/><text fill="#000000" font-family="sans-serif" font-size="11" lengthAdjust="spacingAndGlyphs" textLength="79" x="126" y="185.6064">milkCapsules: int</text><line style="stroke: #A80036; stroke-width: 1.5;" x1="107" x2="270" y1="192.0234" y2="192.0234"/><ellipse cx="117" cy="204.4414" fill="#84BE84" rx="3" ry="3" style="stroke: #038048; stroke-width: 1.0;"/><text fill="#000000" font-family="sans-serif" font-size="11" lengthAdjust="spacingAndGlyphs" textLength="100" x="126" y="207.4424">HotChocolate(int, int)</text><ellipse cx="117" cy="218.2773" fill="#84BE84" rx="3" ry="3" style="stroke: #038048; stroke-width: 1.0;"/><text fill="#000000" font-family="sans-serif" font-size="11" lengthAdjust="spacingAndGlyphs" textLength="112" x="126" y="221.2783">getMilkPercentage(): int</text></a><!--class lu.uni.intro2prog.exam.task2.Drink--><a href="Drink.html" target="_top" xlink:actuate="onRequest" xlink:show="new" xlink:title="Drink.html" xlink:type="simple"><rect fill="#FEFECE" filter="url(#fgcn13oyq367h)" height="40.1875" id="lu.uni.intro2prog.exam.task2.Drink" style="stroke: #A80036; stroke-width: 1.5;" width="165" x="6" y="19"/><ellipse cx="21" cy="39.0938" fill="#A9DCDF" rx="11" ry="11" style="stroke: #A80036; stroke-width: 1.0;"/><path d="M23.1875,40.8594 L19.0469,40.8594 L18.625,41.8906 L19.0469,41.8906 Q19.6563,41.8906 19.9219,42.125 Q20.1875,42.3594 20.1875,42.75 Q20.1875,43.125 19.9219,43.3594 Q19.6563,43.5938 19.0469,43.5938 L16.75,43.5938 Q16.1406,43.5938 15.8828,43.3594 Q15.625,43.125 15.625,42.7344 Q15.625,42.3594 15.8984,42.1172 Q16.1719,41.875 16.7969,41.8906 L19.4688,35.2344 L18.3594,35.2344 Q17.75,35.2344 17.4844,35 Q17.2188,34.7656 17.2188,34.375 Q17.2188,34 17.4844,33.7656 Q17.75,33.5313 18.3594,33.5313 L22.0313,33.5313 L25.4219,41.8906 Q26.0156,41.8906 26.2031,42.0313 Q26.5938,42.2969 26.5938,42.75 Q26.5938,43.125 26.3359,43.3594 Q26.0781,43.5938 25.4688,43.5938 L23.1719,43.5938 Q22.5625,43.5938 22.2969,43.3594 Q22.0313,43.125 22.0313,42.7344 Q22.0313,42.3594 22.2969,42.125 Q22.5625,41.8906 23.1719,41.8906 L23.5938,41.8906 L23.1875,40.8594 Z M22.4688,39.1563 L21.1094,35.7813 L19.7344,39.1563 L22.4688,39.1563 Z "/><text fill="#000000" font-family="sans-serif" font-size="14" font-style="italic" lengthAdjust="spacingAndGlyphs" textLength="34" x="84.5" y="38.5332">Drink</text><text fill="#000000" font-family="sans-serif" font-size="10" font-style="italic" lengthAdjust="spacingAndGlyphs" textLength="133" x="35" y="51.9902">lu.uni.intro2prog.exam.task2</text></a><!--class lu.uni.intro2prog.exam.task2.MilkDrink--><a href="MilkDrink.html" target="_top" xlink:actuate="onRequest" xlink:show="new" xlink:title="MilkDrink.html" xlink:type="simple"><rect fill="#FEFECE" filter="url(#fgcn13oyq367h)" height="62.0234" id="lu.uni.intro2prog.exam.task2.MilkDrink" style="stroke: #A80036; stroke-width: 1.5;" width="165" x="206" y="8"/><ellipse cx="221" cy="28.0938" fill="#B4A7E5" rx="11" ry="11" style="stroke: #A80036; stroke-width: 1.0;"/><path d="M221.9531,24.7344 L221.9531,31.3906 L223.6719,31.3906 Q224.2813,31.3906 224.5469,31.625 Q224.8125,31.8594 224.8125,32.25 Q224.8125,32.625 224.5469,32.8594 Q224.2813,33.0938 223.6719,33.0938 L218.5313,33.0938 Q217.9219,33.0938 217.6563,32.8594 Q217.3906,32.625 217.3906,32.2344 Q217.3906,31.8594 217.6563,31.625 Q217.9219,31.3906 218.5313,31.3906 L220.25,31.3906 L220.25,24.7344 L218.5313,24.7344 Q217.9219,24.7344 217.6563,24.5 Q217.3906,24.2656 217.3906,23.875 Q217.3906,23.5 217.6563,23.2656 Q217.9219,23.0313 218.5313,23.0313 L223.6719,23.0313 Q224.2813,23.0313 224.5469,23.2656 Q224.8125,23.5 224.8125,23.875 Q224.8125,24.2656 224.5469,24.5 Q224.2813,24.7344 223.6719,24.7344 L221.9531,24.7344 Z "/><text fill="#000000" font-family="sans-serif" font-size="14" font-style="italic" lengthAdjust="spacingAndGlyphs" textLength="60" x="271.5" y="27.5332">MilkDrink</text><text fill="#000000" font-family="sans-serif" font-size="10" font-style="italic" lengthAdjust="spacingAndGlyphs" textLength="133" x="235" y="40.9902">lu.uni.intro2prog.exam.task2</text><line style="stroke: #A80036; stroke-width: 1.5;" x1="207" x2="370" y1="48.1875" y2="48.1875"/><ellipse cx="217" cy="60.6055" fill="#84BE84" rx="3" ry="3" style="stroke: #038048; stroke-width: 1.0;"/><text fill="#000000" font-family="sans-serif" font-size="11" font-style="italic" lengthAdjust="spacingAndGlyphs" textLength="118" x="226" y="63.6064">getMilkPercentage(): int</text></a><!--link lu.uni.intro2prog.exam.task2.Drink to lu.uni.intro2prog.exam.task2.HotChocolate--><path d="M114.26,75.549 C126.244,92.087 140.679,112.007 153.621,129.8675 " fill="none" id="lu.uni.intro2prog.exam.task2.Drink-lu.uni.intro2prog.exam.task2.HotChocolate" style="stroke: #A80036; stroke-width: 1.0;"/><polygon fill="none" points="108.472,79.491,102.4046,59.188,119.808,71.276,108.472,79.491" style="stroke: #A80036; stroke-width: 1.0;"/><!--link lu.uni.intro2prog.exam.task2.MilkDrink to lu.uni.intro2prog.exam.task2.HotChocolate--><path d="M254.494,86.929 C244.455,100.782 233.455,115.962 223.363,129.8887 " fill="none" id="lu.uni.intro2prog.exam.task2.MilkDrink-lu.uni.intro2prog.exam.task2.HotChocolate" style="stroke: #A80036; stroke-width: 1.0; stroke-dasharray: 7.0,7.0;"/><polygon fill="none" points="249.151,82.372,266.555,70.285,260.487,90.587,249.151,82.372" style="stroke: #A80036; stroke-width: 1.0;"/><text fill="#888888" font-family="sans-serif" font-size="10" lengthAdjust="spacingAndGlyphs" textLength="190" x="99.5" y="248.3809">UMLDoclet 2.0.10, PlantUML 1.2019.08</text><!--
@startuml
    set namespaceSeparator none
    hide empty fields
    hide empty methods

    class "<size:14>HotChocolate\n<size:10>lu.uni.intro2prog.exam.task2" as lu.uni.intro2prog.exam.task2.HotChocolate [[HotChocolate.html]] {
        -milkCapsules: int
        +HotChocolate(int, int)
        +getMilkPercentage(): int
    }

    abstract class "<size:14>Drink\n<size:10>lu.uni.intro2prog.exam.task2" as lu.uni.intro2prog.exam.task2.Drink [[Drink.html]]
    interface "<size:14>MilkDrink\n<size:10>lu.uni.intro2prog.exam.task2" as lu.uni.intro2prog.exam.task2.MilkDrink [[MilkDrink.html]] {
        {abstract} +getMilkPercentage(): int
    }

    lu.uni.intro2prog.exam.task2.Drink <|- - lu.uni.intro2prog.exam.task2.HotChocolate
    lu.uni.intro2prog.exam.task2.MilkDrink <|.. lu.uni.intro2prog.exam.task2.HotChocolate

    center footer UMLDoclet 2.0.10, PlantUML 1.2019.08
@enduml

PlantUML version 1.2019.08(Sat Jul 13 21:25:14 CEST 2019)
(APACHE source distribution)
Java Runtime: Java(TM) SE Runtime Environment
JVM: Java HotSpot(TM) 64-Bit Server VM
Java Version: 9.0.4+11
Operating System: Windows 10
OS Version: 10.0
Default Encoding: Cp1252
Language: en
Country: US
--></g></svg>