<?xml version="1.0" encoding="UTF-8" standalone="no"?><svg xmlns="http://www.w3.org/2000/svg" xmlns:xlink="http://www.w3.org/1999/xlink" contentScriptType="application/ecmascript" contentStyleType="text/css" height="103px" preserveAspectRatio="none" style="width:202px;height:103px;" version="1.1" viewBox="0 0 202 103" width="202px" zoomAndPan="magnify"><defs><filter height="300%" id="fs9suywo4nbfp" width="300%" x="-1" y="-1"><feGaussianBlur result="blurOut" stdDeviation="2.0"/><feColorMatrix in="blurOut" result="blurOut2" type="matrix" values="0 0 0 0 0 0 0 0 0 0 0 0 0 0 0 0 0 0 .4 0"/><feOffset dx="4.0" dy="4.0" in="blurOut2" result="blurOut3"/><feBlend in="SourceGraphic" in2="blurOut3" mode="normal"/></filter></defs><g><!--class lu.uni.intro2prog.exam.task2.MilkDrink--><a href="MilkDrink.html" target="_top" xlink:actuate="onRequest" xlink:show="new" xlink:title="MilkDrink.html" xlink:type="simple"><rect fill="#FEFECE" filter="url(#fs9suywo4nbfp)" height="62.0234" id="lu.uni.intro2prog.exam.task2.MilkDrink" style="stroke: #A80036; stroke-width: 1.5;" width="165" x="6.5" y="8"/><ellipse cx="21.5" cy="28.0938" fill="#B4A7E5" rx="11" ry="11" style="stroke: #A80036; stroke-width: 1.0;"/><path d="M22.4531,24.7344 L22.4531,31.3906 L24.1719,31.3906 Q24.7813,31.3906 25.0469,31.625 Q25.3125,31.8594 25.3125,32.25 Q25.3125,32.625 25.0469,32.8594 Q24.7813,33.0938 24.1719,33.0938 L19.0313,33.0938 Q18.4219,33.0938 18.1563,32.8594 Q17.8906,32.625 17.8906,32.2344 Q17.8906,31.8594 18.1563,31.625 Q18.4219,31.3906 19.0313,31.3906 L20.75,31.3906 L20.75,24.7344 L19.0313,24.7344 Q18.4219,24.7344 18.1563,24.5 Q17.8906,24.2656 17.8906,23.875 Q17.8906,23.5 18.1563,23.2656 Q18.4219,23.0313 19.0313,23.0313 L24.1719,23.0313 Q24.7813,23.0313 25.0469,23.2656 Q25.3125,23.5 25.3125,23.875 Q25.3125,24.2656 25.0469,24.5 Q24.7813,24.7344 24.1719,24.7344 L22.4531,24.7344 Z "/><text fill="#000000" font-family="sans-serif" font-size="14" font-style="italic" lengthAdjust="spacingAndGlyphs" textLength="60" x="72" y="27.5332">MilkDrink</text><text fill="#000000" font-family="sans-serif" font-size="10" font-style="italic" lengthAdjust="spacingAndGlyphs" textLength="133" x="35.5" y="40.9902">lu.uni.intro2prog.exam.task2</text><line style="stroke: #A80036; stroke-width: 1.5;" x1="7.5" x2="170.5" y1="48.1875" y2="48.1875"/><ellipse cx="17.5" cy="60.6055" fill="#84BE84" rx="3" ry="3" style="stroke: #038048; stroke-width: 1.0;"/><text fill="#000000" font-family="sans-serif" font-size="11" font-style="italic" lengthAdjust="spacingAndGlyphs" textLength="118" x="26.5" y="63.6064">getMilkPercentage(): int</text></a><text fill="#888888" font-family="sans-serif" font-size="10" lengthAdjust="spacingAndGlyphs" textLength="190" x="0" y="90.3809">UMLDoclet 2.0.10, PlantUML 1.2019.08</text><!--
@startuml
    set namespaceSeparator none
    hide empty fields
    hide empty methods

    interface "<size:14>MilkDrink\n<size:10>lu.uni.intro2prog.exam.task2" as lu.uni.intro2prog.exam.task2.MilkDrink [[MilkDrink.html]] {
        {abstract} +getMilkPercentage(): int
    }

    center footer UMLDoclet 2.0.10, PlantUML 1.2019.08
@enduml

PlantUML version 1.2019.08(Sat Jul 13 21:25:14 CEST 2019)
(APACHE source distribution)
Java Runtime: Java(TM) SE Runtime Environment
JVM: Java HotSpot(TM) 64-Bit Server VM
Java Version: 9.0.4+11
Operating System: Windows 10
OS Version: 10.0
Default Encoding: Cp1252
Language: en
Country: US
--></g></svg>