<?xml version="1.0" encoding="UTF-8" standalone="no"?><svg xmlns="http://www.w3.org/2000/svg" xmlns:xlink="http://www.w3.org/1999/xlink" contentScriptType="application/ecmascript" contentStyleType="text/css" height="203px" preserveAspectRatio="none" style="width:205px;height:203px;" version="1.1" viewBox="0 0 205 203" width="205px" zoomAndPan="magnify"><defs><filter height="300%" id="fzwn3eoy2xwds" width="300%" x="-1" y="-1"><feGaussianBlur result="blurOut" stdDeviation="2.0"/><feColorMatrix in="blurOut" result="blurOut2" type="matrix" values="0 0 0 0 0 0 0 0 0 0 0 0 0 0 0 0 0 0 .4 0"/><feOffset dx="4.0" dy="4.0" in="blurOut2" result="blurOut3"/><feBlend in="SourceGraphic" in2="blurOut3" mode="normal"/></filter></defs><g><!--class lu.uni.intro2prog.exam.task2.OutOfCoffeeException--><a href="OutOfCoffeeException.html" target="_top" xlink:actuate="onRequest" xlink:show="new" xlink:title="OutOfCoffeeException.html" xlink:type="simple"><rect fill="#FEFECE" filter="url(#fzwn3eoy2xwds)" height="62.0234" id="lu.uni.intro2prog.exam.task2.OutOfCoffeeException" style="stroke: #A80036; stroke-width: 1.5;" width="173" x="6" y="108"/><ellipse cx="21" cy="128.0938" fill="#ADD1B2" rx="11" ry="11" style="stroke: #A80036; stroke-width: 1.0;"/><path d="M23.7656,123.9688 Q23.9219,123.75 24.1094,123.6406 Q24.2969,123.5313 24.5156,123.5313 Q24.8906,123.5313 25.125,123.7891 Q25.3594,124.0469 25.3594,124.6563 L25.3594,126.1094 Q25.3594,126.7188 25.125,126.9844 Q24.8906,127.25 24.5156,127.25 Q24.1719,127.25 23.9688,127.0469 Q23.7656,126.8594 23.6563,126.3438 Q23.6094,125.9844 23.4219,125.7969 Q23.0938,125.4219 22.4844,125.2031 Q21.875,124.9844 21.25,124.9844 Q20.4844,124.9844 19.8516,125.3125 Q19.2188,125.6406 18.7266,126.3906 Q18.2344,127.1406 18.2344,128.1719 L18.2344,129.2656 Q18.2344,130.5 19.125,131.3203 Q20.0156,132.1406 21.6094,132.1406 Q22.5469,132.1406 23.2031,131.8906 Q23.5938,131.7344 24.0156,131.2969 Q24.2813,131.0313 24.4297,130.9531 Q24.5781,130.875 24.7813,130.875 Q25.1094,130.875 25.3672,131.1328 Q25.625,131.3906 25.625,131.7344 Q25.625,132.0781 25.2813,132.4844 Q24.7813,133.0625 23.9844,133.3906 Q22.9063,133.8438 21.6094,133.8438 Q20.0938,133.8438 18.8906,133.2188 Q17.9063,132.7188 17.2188,131.6484 Q16.5313,130.5781 16.5313,129.2969 L16.5313,128.1406 Q16.5313,126.8125 17.1484,125.6641 Q17.7656,124.5156 18.8594,123.8984 Q19.9531,123.2813 21.1875,123.2813 Q21.9219,123.2813 22.5703,123.4453 Q23.2188,123.6094 23.7656,123.9688 Z "/><text fill="#000000" font-family="sans-serif" font-size="14" lengthAdjust="spacingAndGlyphs" textLength="141" x="35" y="127.5332">OutOfCoffeeException</text><text fill="#000000" font-family="sans-serif" font-size="10" lengthAdjust="spacingAndGlyphs" textLength="133" x="39" y="140.9902">lu.uni.intro2prog.exam.task2</text><line style="stroke: #A80036; stroke-width: 1.5;" x1="7" x2="178" y1="148.1875" y2="148.1875"/><ellipse cx="17" cy="160.6055" fill="#84BE84" rx="3" ry="3" style="stroke: #038048; stroke-width: 1.0;"/><text fill="#000000" font-family="sans-serif" font-size="11" lengthAdjust="spacingAndGlyphs" textLength="145" x="26" y="163.6064">OutOfCoffeeException(String)</text></a><!--class java.lang.Exception--><rect fill="#FEFECE" filter="url(#fzwn3eoy2xwds)" height="40.1875" id="java.lang.Exception" style="stroke: #A80036; stroke-width: 1.5;" width="93" x="46" y="8"/><ellipse cx="61" cy="28.0938" fill="#ADD1B2" rx="11" ry="11" style="stroke: #A80036; stroke-width: 1.0;"/><path d="M63.7656,23.9688 Q63.9219,23.75 64.1094,23.6406 Q64.2969,23.5313 64.5156,23.5313 Q64.8906,23.5313 65.125,23.7891 Q65.3594,24.0469 65.3594,24.6563 L65.3594,26.1094 Q65.3594,26.7188 65.125,26.9844 Q64.8906,27.25 64.5156,27.25 Q64.1719,27.25 63.9688,27.0469 Q63.7656,26.8594 63.6563,26.3438 Q63.6094,25.9844 63.4219,25.7969 Q63.0938,25.4219 62.4844,25.2031 Q61.875,24.9844 61.25,24.9844 Q60.4844,24.9844 59.8516,25.3125 Q59.2188,25.6406 58.7266,26.3906 Q58.2344,27.1406 58.2344,28.1719 L58.2344,29.2656 Q58.2344,30.5 59.125,31.3203 Q60.0156,32.1406 61.6094,32.1406 Q62.5469,32.1406 63.2031,31.8906 Q63.5938,31.7344 64.0156,31.2969 Q64.2813,31.0313 64.4297,30.9531 Q64.5781,30.875 64.7813,30.875 Q65.1094,30.875 65.3672,31.1328 Q65.625,31.3906 65.625,31.7344 Q65.625,32.0781 65.2813,32.4844 Q64.7813,33.0625 63.9844,33.3906 Q62.9063,33.8438 61.6094,33.8438 Q60.0938,33.8438 58.8906,33.2188 Q57.9063,32.7188 57.2188,31.6484 Q56.5313,30.5781 56.5313,29.2969 L56.5313,28.1406 Q56.5313,26.8125 57.1484,25.6641 Q57.7656,24.5156 58.8594,23.8984 Q59.9531,23.2813 61.1875,23.2813 Q61.9219,23.2813 62.5703,23.4453 Q63.2188,23.6094 63.7656,23.9688 Z "/><text fill="#000000" font-family="sans-serif" font-size="14" lengthAdjust="spacingAndGlyphs" textLength="61" x="75" y="27.5332">Exception</text><text fill="#000000" font-family="sans-serif" font-size="10" lengthAdjust="spacingAndGlyphs" textLength="44" x="83.5" y="40.9902">java.lang</text><!--link java.lang.Exception to lu.uni.intro2prog.exam.task2.OutOfCoffeeException--><path d="M92.5,68.372 C92.5,81.3848 92.5,95.6467 92.5,107.8556 " fill="none" id="java.lang.Exception-lu.uni.intro2prog.exam.task2.OutOfCoffeeException" style="stroke: #A80036; stroke-width: 1.0;"/><polygon fill="none" points="85.5001,68.236,92.5,48.236,99.5001,68.236,85.5001,68.236" style="stroke: #A80036; stroke-width: 1.0;"/><text fill="#888888" font-family="sans-serif" font-size="10" lengthAdjust="spacingAndGlyphs" textLength="190" x="3.5" y="190.3809">UMLDoclet 2.0.10, PlantUML 1.2019.08</text><!--
@startuml
    set namespaceSeparator none
    hide empty fields
    hide empty methods

    class "<size:14>OutOfCoffeeException\n<size:10>lu.uni.intro2prog.exam.task2" as lu.uni.intro2prog.exam.task2.OutOfCoffeeException [[OutOfCoffeeException.html]] {
        +OutOfCoffeeException(String)
    }

    class "<size:14>Exception\n<size:10>java.lang" as java.lang.Exception

    java.lang.Exception <|- - lu.uni.intro2prog.exam.task2.OutOfCoffeeException

    center footer UMLDoclet 2.0.10, PlantUML 1.2019.08
@enduml

PlantUML version 1.2019.08(Sat Jul 13 21:25:14 CEST 2019)
(APACHE source distribution)
Java Runtime: Java(TM) SE Runtime Environment
JVM: Java HotSpot(TM) 64-Bit Server VM
Java Version: 9.0.4+11
Operating System: Windows 10
OS Version: 10.0
Default Encoding: Cp1252
Language: en
Country: US
--></g></svg>