<?xml version="1.0" encoding="UTF-8" standalone="no"?><svg xmlns="http://www.w3.org/2000/svg" xmlns:xlink="http://www.w3.org/1999/xlink" contentScriptType="application/ecmascript" contentStyleType="text/css" height="203px" preserveAspectRatio="none" style="width:202px;height:203px;" version="1.1" viewBox="0 0 202 203" width="202px" zoomAndPan="magnify"><defs><filter height="300%" id="f1spb5db9dxu6b" width="300%" x="-1" y="-1"><feGaussianBlur result="blurOut" stdDeviation="2.0"/><feColorMatrix in="blurOut" result="blurOut2" type="matrix" values="0 0 0 0 0 0 0 0 0 0 0 0 0 0 0 0 0 0 .4 0"/><feOffset dx="4.0" dy="4.0" in="blurOut2" result="blurOut3"/><feBlend in="SourceGraphic" in2="blurOut3" mode="normal"/></filter></defs><g><!--class lu.uni.intro2prog.exam.task2.OutOfMilkException--><a href="OutOfMilkException.html" target="_top" xlink:actuate="onRequest" xlink:show="new" xlink:title="OutOfMilkException.html" xlink:type="simple"><rect fill="#FEFECE" filter="url(#f1spb5db9dxu6b)" height="62.0234" id="lu.uni.intro2prog.exam.task2.OutOfMilkException" style="stroke: #A80036; stroke-width: 1.5;" width="165" x="6.5" y="108"/><ellipse cx="21.5" cy="128.0938" fill="#ADD1B2" rx="11" ry="11" style="stroke: #A80036; stroke-width: 1.0;"/><path d="M24.2656,123.9688 Q24.4219,123.75 24.6094,123.6406 Q24.7969,123.5313 25.0156,123.5313 Q25.3906,123.5313 25.625,123.7891 Q25.8594,124.0469 25.8594,124.6563 L25.8594,126.1094 Q25.8594,126.7188 25.625,126.9844 Q25.3906,127.25 25.0156,127.25 Q24.6719,127.25 24.4688,127.0469 Q24.2656,126.8594 24.1563,126.3438 Q24.1094,125.9844 23.9219,125.7969 Q23.5938,125.4219 22.9844,125.2031 Q22.375,124.9844 21.75,124.9844 Q20.9844,124.9844 20.3516,125.3125 Q19.7188,125.6406 19.2266,126.3906 Q18.7344,127.1406 18.7344,128.1719 L18.7344,129.2656 Q18.7344,130.5 19.625,131.3203 Q20.5156,132.1406 22.1094,132.1406 Q23.0469,132.1406 23.7031,131.8906 Q24.0938,131.7344 24.5156,131.2969 Q24.7813,131.0313 24.9297,130.9531 Q25.0781,130.875 25.2813,130.875 Q25.6094,130.875 25.8672,131.1328 Q26.125,131.3906 26.125,131.7344 Q26.125,132.0781 25.7813,132.4844 Q25.2813,133.0625 24.4844,133.3906 Q23.4063,133.8438 22.1094,133.8438 Q20.5938,133.8438 19.3906,133.2188 Q18.4063,132.7188 17.7188,131.6484 Q17.0313,130.5781 17.0313,129.2969 L17.0313,128.1406 Q17.0313,126.8125 17.6484,125.6641 Q18.2656,124.5156 19.3594,123.8984 Q20.4531,123.2813 21.6875,123.2813 Q22.4219,123.2813 23.0703,123.4453 Q23.7188,123.6094 24.2656,123.9688 Z "/><text fill="#000000" font-family="sans-serif" font-size="14" lengthAdjust="spacingAndGlyphs" textLength="123" x="40.5" y="127.5332">OutOfMilkException</text><text fill="#000000" font-family="sans-serif" font-size="10" lengthAdjust="spacingAndGlyphs" textLength="133" x="35.5" y="140.9902">lu.uni.intro2prog.exam.task2</text><line style="stroke: #A80036; stroke-width: 1.5;" x1="7.5" x2="170.5" y1="148.1875" y2="148.1875"/><ellipse cx="17.5" cy="160.6055" fill="#84BE84" rx="3" ry="3" style="stroke: #038048; stroke-width: 1.0;"/><text fill="#000000" font-family="sans-serif" font-size="11" lengthAdjust="spacingAndGlyphs" textLength="129" x="26.5" y="163.6064">OutOfMilkException(String)</text></a><!--class java.lang.Exception--><rect fill="#FEFECE" filter="url(#f1spb5db9dxu6b)" height="40.1875" id="java.lang.Exception" style="stroke: #A80036; stroke-width: 1.5;" width="93" x="42.5" y="8"/><ellipse cx="57.5" cy="28.0938" fill="#ADD1B2" rx="11" ry="11" style="stroke: #A80036; stroke-width: 1.0;"/><path d="M60.2656,23.9688 Q60.4219,23.75 60.6094,23.6406 Q60.7969,23.5313 61.0156,23.5313 Q61.3906,23.5313 61.625,23.7891 Q61.8594,24.0469 61.8594,24.6563 L61.8594,26.1094 Q61.8594,26.7188 61.625,26.9844 Q61.3906,27.25 61.0156,27.25 Q60.6719,27.25 60.4688,27.0469 Q60.2656,26.8594 60.1563,26.3438 Q60.1094,25.9844 59.9219,25.7969 Q59.5938,25.4219 58.9844,25.2031 Q58.375,24.9844 57.75,24.9844 Q56.9844,24.9844 56.3516,25.3125 Q55.7188,25.6406 55.2266,26.3906 Q54.7344,27.1406 54.7344,28.1719 L54.7344,29.2656 Q54.7344,30.5 55.625,31.3203 Q56.5156,32.1406 58.1094,32.1406 Q59.0469,32.1406 59.7031,31.8906 Q60.0938,31.7344 60.5156,31.2969 Q60.7813,31.0313 60.9297,30.9531 Q61.0781,30.875 61.2813,30.875 Q61.6094,30.875 61.8672,31.1328 Q62.125,31.3906 62.125,31.7344 Q62.125,32.0781 61.7813,32.4844 Q61.2813,33.0625 60.4844,33.3906 Q59.4063,33.8438 58.1094,33.8438 Q56.5938,33.8438 55.3906,33.2188 Q54.4063,32.7188 53.7188,31.6484 Q53.0313,30.5781 53.0313,29.2969 L53.0313,28.1406 Q53.0313,26.8125 53.6484,25.6641 Q54.2656,24.5156 55.3594,23.8984 Q56.4531,23.2813 57.6875,23.2813 Q58.4219,23.2813 59.0703,23.4453 Q59.7188,23.6094 60.2656,23.9688 Z "/><text fill="#000000" font-family="sans-serif" font-size="14" lengthAdjust="spacingAndGlyphs" textLength="61" x="71.5" y="27.5332">Exception</text><text fill="#000000" font-family="sans-serif" font-size="10" lengthAdjust="spacingAndGlyphs" textLength="44" x="80" y="40.9902">java.lang</text><!--link java.lang.Exception to lu.uni.intro2prog.exam.task2.OutOfMilkException--><path d="M89,68.372 C89,81.3848 89,95.6467 89,107.8556 " fill="none" id="java.lang.Exception-lu.uni.intro2prog.exam.task2.OutOfMilkException" style="stroke: #A80036; stroke-width: 1.0;"/><polygon fill="none" points="82.0001,68.236,89,48.236,96.0001,68.236,82.0001,68.236" style="stroke: #A80036; stroke-width: 1.0;"/><text fill="#888888" font-family="sans-serif" font-size="10" lengthAdjust="spacingAndGlyphs" textLength="190" x="0" y="190.3809">UMLDoclet 2.0.10, PlantUML 1.2019.08</text><!--
@startuml
    set namespaceSeparator none
    hide empty fields
    hide empty methods

    class "<size:14>OutOfMilkException\n<size:10>lu.uni.intro2prog.exam.task2" as lu.uni.intro2prog.exam.task2.OutOfMilkException [[OutOfMilkException.html]] {
        +OutOfMilkException(String)
    }

    class "<size:14>Exception\n<size:10>java.lang" as java.lang.Exception

    java.lang.Exception <|- - lu.uni.intro2prog.exam.task2.OutOfMilkException

    center footer UMLDoclet 2.0.10, PlantUML 1.2019.08
@enduml

PlantUML version 1.2019.08(Sat Jul 13 21:25:14 CEST 2019)
(APACHE source distribution)
Java Runtime: Java(TM) SE Runtime Environment
JVM: Java HotSpot(TM) 64-Bit Server VM
Java Version: 9.0.4+11
Operating System: Windows 10
OS Version: 10.0
Default Encoding: Cp1252
Language: en
Country: US
--></g></svg>