<?xml version="1.0" encoding="UTF-8" standalone="no"?><svg xmlns="http://www.w3.org/2000/svg" xmlns:xlink="http://www.w3.org/1999/xlink" contentScriptType="application/ecmascript" contentStyleType="text/css" height="437px" preserveAspectRatio="none" style="width:1091px;height:437px;" version="1.1" viewBox="0 0 1091 437" width="1091px" zoomAndPan="magnify"><defs><filter height="300%" id="fboyu7v548y4b" width="300%" x="-1" y="-1"><feGaussianBlur result="blurOut" stdDeviation="2.0"/><feColorMatrix in="blurOut" result="blurOut2" type="matrix" values="0 0 0 0 0 0 0 0 0 0 0 0 0 0 0 0 0 0 .4 0"/><feOffset dx="4.0" dy="4.0" in="blurOut2" result="blurOut3"/><feBlend in="SourceGraphic" in2="blurOut3" mode="normal"/></filter></defs><g><!--cluster lu.uni.intro2prog.exam.task2--><polygon fill="#FFFFFF" filter="url(#fboyu7v548y4b)" points="22,24,227,24,234,47.6094,1069,47.6094,1069,388,22,388,22,24" style="stroke: #000000; stroke-width: 1.5;"/><line style="stroke: #000000; stroke-width: 1.5;" x1="22" x2="234" y1="47.6094" y2="47.6094"/><text fill="#000000" font-family="sans-serif" font-size="14" font-weight="bold" lengthAdjust="spacingAndGlyphs" textLength="199" x="26" y="40.5332">lu.uni.intro2prog.exam.task2</text><!--class lu.uni.intro2prog.exam.task2.CoffeeDrink--><a href="CoffeeDrink.html" target="_top" xlink:actuate="onRequest" xlink:show="new" xlink:title="CoffeeDrink.html" xlink:type="simple"><rect fill="#FEFECE" filter="url(#fboyu7v548y4b)" height="61.8359" id="lu.uni.intro2prog.exam.task2.CoffeeDrink" style="stroke: #A80036; stroke-width: 1.5;" width="155" x="539.5" y="87.5"/><ellipse cx="580.15" cy="103.5" fill="#B4A7E5" rx="11" ry="11" style="stroke: #A80036; stroke-width: 1.0;"/><path d="M581.1031,100.1406 L581.1031,106.7969 L582.8219,106.7969 Q583.4313,106.7969 583.6969,107.0313 Q583.9625,107.2656 583.9625,107.6563 Q583.9625,108.0313 583.6969,108.2656 Q583.4313,108.5 582.8219,108.5 L577.6813,108.5 Q577.0719,108.5 576.8063,108.2656 Q576.5406,108.0313 576.5406,107.6406 Q576.5406,107.2656 576.8063,107.0313 Q577.0719,106.7969 577.6813,106.7969 L579.4,106.7969 L579.4,100.1406 L577.6813,100.1406 Q577.0719,100.1406 576.8063,99.9063 Q576.5406,99.6719 576.5406,99.2813 Q576.5406,98.9063 576.8063,98.6719 Q577.0719,98.4375 577.6813,98.4375 L582.8219,98.4375 Q583.4313,98.4375 583.6969,98.6719 Q583.9625,98.9063 583.9625,99.2813 Q583.9625,99.6719 583.6969,99.9063 Q583.4313,100.1406 582.8219,100.1406 L581.1031,100.1406 Z "/><text fill="#000000" font-family="sans-serif" font-size="12" font-style="italic" lengthAdjust="spacingAndGlyphs" textLength="66" x="599.85" y="108.4102">CoffeeDrink</text><line style="stroke: #A80036; stroke-width: 1.5;" x1="540.5" x2="693.5" y1="119.5" y2="119.5"/><line style="stroke: #A80036; stroke-width: 1.5;" x1="540.5" x2="693.5" y1="127.5" y2="127.5"/><ellipse cx="550.5" cy="139.918" fill="#84BE84" rx="3" ry="3" style="stroke: #038048; stroke-width: 1.0;"/><text fill="#000000" font-family="sans-serif" font-size="11" font-style="italic" lengthAdjust="spacingAndGlyphs" textLength="129" x="559.5" y="142.9189">getCoffeePercentage(): int</text></a><!--class lu.uni.intro2prog.exam.task2.CoffeeMachine--><a href="CoffeeMachine.html" target="_top" xlink:actuate="onRequest" xlink:show="new" xlink:title="CoffeeMachine.html" xlink:type="simple"><rect fill="#FEFECE" filter="url(#fboyu7v548y4b)" height="117.1797" id="lu.uni.intro2prog.exam.task2.CoffeeMachine" style="stroke: #A80036; stroke-width: 1.5;" width="152" x="352" y="60"/><ellipse cx="384.1" cy="76" fill="#ADD1B2" rx="11" ry="11" style="stroke: #A80036; stroke-width: 1.0;"/><path d="M386.8656,71.875 Q387.0219,71.6563 387.2094,71.5469 Q387.3969,71.4375 387.6156,71.4375 Q387.9906,71.4375 388.225,71.6953 Q388.4594,71.9531 388.4594,72.5625 L388.4594,74.0156 Q388.4594,74.625 388.225,74.8906 Q387.9906,75.1563 387.6156,75.1563 Q387.2719,75.1563 387.0688,74.9531 Q386.8656,74.7656 386.7563,74.25 Q386.7094,73.8906 386.5219,73.7031 Q386.1938,73.3281 385.5844,73.1094 Q384.975,72.8906 384.35,72.8906 Q383.5844,72.8906 382.9516,73.2188 Q382.3188,73.5469 381.8266,74.2969 Q381.3344,75.0469 381.3344,76.0781 L381.3344,77.1719 Q381.3344,78.4063 382.225,79.2266 Q383.1156,80.0469 384.7094,80.0469 Q385.6469,80.0469 386.3031,79.7969 Q386.6938,79.6406 387.1156,79.2031 Q387.3813,78.9375 387.5297,78.8594 Q387.6781,78.7813 387.8813,78.7813 Q388.2094,78.7813 388.4672,79.0391 Q388.725,79.2969 388.725,79.6406 Q388.725,79.9844 388.3813,80.3906 Q387.8813,80.9688 387.0844,81.2969 Q386.0063,81.75 384.7094,81.75 Q383.1938,81.75 381.9906,81.125 Q381.0063,80.625 380.3188,79.5547 Q379.6313,78.4844 379.6313,77.2031 L379.6313,76.0469 Q379.6313,74.7188 380.2484,73.5703 Q380.8656,72.4219 381.9594,71.8047 Q383.0531,71.1875 384.2875,71.1875 Q385.0219,71.1875 385.6703,71.3516 Q386.3188,71.5156 386.8656,71.875 Z "/><text fill="#000000" font-family="sans-serif" font-size="12" lengthAdjust="spacingAndGlyphs" textLength="82" x="401.9" y="80.9102">CoffeeMachine</text><line style="stroke: #A80036; stroke-width: 1.5;" x1="353" x2="503" y1="92" y2="92"/><rect fill="none" height="6" style="stroke: #C82930; stroke-width: 1.0;" width="6" x="360" y="101.418"/><text fill="#000000" font-family="sans-serif" font-size="11" lengthAdjust="spacingAndGlyphs" textLength="94" x="372" y="107.4189">coffeeCapsules: int</text><rect fill="none" height="6" style="stroke: #C82930; stroke-width: 1.0;" width="6" x="360" y="115.2539"/><text fill="#000000" font-family="sans-serif" font-size="11" lengthAdjust="spacingAndGlyphs" textLength="77" x="372" y="121.2549">teaCapsules: int</text><rect fill="none" height="6" style="stroke: #C82930; stroke-width: 1.0;" width="6" x="360" y="129.0898"/><text fill="#000000" font-family="sans-serif" font-size="11" lengthAdjust="spacingAndGlyphs" textLength="79" x="372" y="135.0908">milkCapsules: int</text><line style="stroke: #A80036; stroke-width: 1.5;" x1="353" x2="503" y1="141.5078" y2="141.5078"/><ellipse cx="363" cy="153.9258" fill="#84BE84" rx="3" ry="3" style="stroke: #038048; stroke-width: 1.0;"/><text fill="#000000" font-family="sans-serif" font-size="11" lengthAdjust="spacingAndGlyphs" textLength="126" x="372" y="156.9268">CoffeeMachine(int, int, int)</text><ellipse cx="363" cy="167.7617" fill="#84BE84" rx="3" ry="3" style="stroke: #038048; stroke-width: 1.0;"/><text fill="#000000" font-family="sans-serif" font-size="11" lengthAdjust="spacingAndGlyphs" textLength="76" x="372" y="170.7627">getTea(int): Tea</text></a><!--class lu.uni.intro2prog.exam.task2.Drink--><a href="Drink.html" target="_top" xlink:actuate="onRequest" xlink:show="new" xlink:title="Drink.html" xlink:type="simple"><rect fill="#FEFECE" filter="url(#fboyu7v548y4b)" height="89.5078" id="lu.uni.intro2prog.exam.task2.Drink" style="stroke: #A80036; stroke-width: 1.5;" width="99" x="38.5" y="73.5"/><ellipse cx="70.15" cy="89.5" fill="#A9DCDF" rx="11" ry="11" style="stroke: #A80036; stroke-width: 1.0;"/><path d="M72.3375,91.2656 L68.1969,91.2656 L67.775,92.2969 L68.1969,92.2969 Q68.8063,92.2969 69.0719,92.5313 Q69.3375,92.7656 69.3375,93.1563 Q69.3375,93.5313 69.0719,93.7656 Q68.8063,94 68.1969,94 L65.9,94 Q65.2906,94 65.0328,93.7656 Q64.775,93.5313 64.775,93.1406 Q64.775,92.7656 65.0484,92.5234 Q65.3219,92.2813 65.9469,92.2969 L68.6188,85.6406 L67.5094,85.6406 Q66.9,85.6406 66.6344,85.4063 Q66.3688,85.1719 66.3688,84.7813 Q66.3688,84.4063 66.6344,84.1719 Q66.9,83.9375 67.5094,83.9375 L71.1813,83.9375 L74.5719,92.2969 Q75.1656,92.2969 75.3531,92.4375 Q75.7438,92.7031 75.7438,93.1563 Q75.7438,93.5313 75.4859,93.7656 Q75.2281,94 74.6188,94 L72.3219,94 Q71.7125,94 71.4469,93.7656 Q71.1813,93.5313 71.1813,93.1406 Q71.1813,92.7656 71.4469,92.5313 Q71.7125,92.2969 72.3219,92.2969 L72.7438,92.2969 L72.3375,91.2656 Z M71.6188,89.5625 L70.2594,86.1875 L68.8844,89.5625 L71.6188,89.5625 Z "/><text fill="#000000" font-family="sans-serif" font-size="12" font-style="italic" lengthAdjust="spacingAndGlyphs" textLength="30" x="87.85" y="94.4102">Drink</text><line style="stroke: #A80036; stroke-width: 1.5;" x1="39.5" x2="136.5" y1="105.5" y2="105.5"/><rect fill="none" height="6" style="stroke: #C82930; stroke-width: 1.0;" width="6" x="46.5" y="114.918"/><text fill="#000000" font-family="sans-serif" font-size="11" lengthAdjust="spacingAndGlyphs" textLength="50" x="58.5" y="120.9189">milliliter: int</text><line style="stroke: #A80036; stroke-width: 1.5;" x1="39.5" x2="136.5" y1="127.3359" y2="127.3359"/><ellipse cx="49.5" cy="139.7539" fill="#84BE84" rx="3" ry="3" style="stroke: #038048; stroke-width: 1.0;"/><text fill="#000000" font-family="sans-serif" font-size="11" lengthAdjust="spacingAndGlyphs" textLength="43" x="58.5" y="142.7549">Drink(int)</text><ellipse cx="49.5" cy="153.5898" fill="#84BE84" rx="3" ry="3" style="stroke: #038048; stroke-width: 1.0;"/><text fill="#000000" font-family="sans-serif" font-size="11" lengthAdjust="spacingAndGlyphs" textLength="73" x="58.5" y="156.5908">getMilliliter(): int</text></a><!--class lu.uni.intro2prog.exam.task2.HotChocolate--><a href="HotChocolate.html" target="_top" xlink:actuate="onRequest" xlink:show="new" xlink:title="HotChocolate.html" xlink:type="simple"><rect fill="#FEFECE" filter="url(#fboyu7v548y4b)" height="89.5078" id="lu.uni.intro2prog.exam.task2.HotChocolate" style="stroke: #A80036; stroke-width: 1.5;" width="138" x="181" y="268.5"/><ellipse cx="209.95" cy="284.5" fill="#ADD1B2" rx="11" ry="11" style="stroke: #A80036; stroke-width: 1.0;"/><path d="M212.7156,280.375 Q212.8719,280.1563 213.0594,280.0469 Q213.2469,279.9375 213.4656,279.9375 Q213.8406,279.9375 214.075,280.1953 Q214.3094,280.4531 214.3094,281.0625 L214.3094,282.5156 Q214.3094,283.125 214.075,283.3906 Q213.8406,283.6563 213.4656,283.6563 Q213.1219,283.6563 212.9188,283.4531 Q212.7156,283.2656 212.6063,282.75 Q212.5594,282.3906 212.3719,282.2031 Q212.0438,281.8281 211.4344,281.6094 Q210.825,281.3906 210.2,281.3906 Q209.4344,281.3906 208.8016,281.7188 Q208.1688,282.0469 207.6766,282.7969 Q207.1844,283.5469 207.1844,284.5781 L207.1844,285.6719 Q207.1844,286.9063 208.075,287.7266 Q208.9656,288.5469 210.5594,288.5469 Q211.4969,288.5469 212.1531,288.2969 Q212.5438,288.1406 212.9656,287.7031 Q213.2313,287.4375 213.3797,287.3594 Q213.5281,287.2813 213.7313,287.2813 Q214.0594,287.2813 214.3172,287.5391 Q214.575,287.7969 214.575,288.1406 Q214.575,288.4844 214.2313,288.8906 Q213.7313,289.4688 212.9344,289.7969 Q211.8563,290.25 210.5594,290.25 Q209.0438,290.25 207.8406,289.625 Q206.8563,289.125 206.1688,288.0547 Q205.4813,286.9844 205.4813,285.7031 L205.4813,284.5469 Q205.4813,283.2188 206.0984,282.0703 Q206.7156,280.9219 207.8094,280.3047 Q208.9031,279.6875 210.1375,279.6875 Q210.8719,279.6875 211.5203,279.8516 Q212.1688,280.0156 212.7156,280.375 Z "/><text fill="#000000" font-family="sans-serif" font-size="12" lengthAdjust="spacingAndGlyphs" textLength="75" x="227.05" y="289.4102">HotChocolate</text><line style="stroke: #A80036; stroke-width: 1.5;" x1="182" x2="318" y1="300.5" y2="300.5"/><rect fill="none" height="6" style="stroke: #C82930; stroke-width: 1.0;" width="6" x="189" y="309.918"/><text fill="#000000" font-family="sans-serif" font-size="11" lengthAdjust="spacingAndGlyphs" textLength="79" x="201" y="315.9189">milkCapsules: int</text><line style="stroke: #A80036; stroke-width: 1.5;" x1="182" x2="318" y1="322.3359" y2="322.3359"/><ellipse cx="192" cy="334.7539" fill="#84BE84" rx="3" ry="3" style="stroke: #038048; stroke-width: 1.0;"/><text fill="#000000" font-family="sans-serif" font-size="11" lengthAdjust="spacingAndGlyphs" textLength="100" x="201" y="337.7549">HotChocolate(int, int)</text><ellipse cx="192" cy="348.5898" fill="#84BE84" rx="3" ry="3" style="stroke: #038048; stroke-width: 1.0;"/><text fill="#000000" font-family="sans-serif" font-size="11" lengthAdjust="spacingAndGlyphs" textLength="112" x="201" y="351.5908">getMilkPercentage(): int</text></a><!--class lu.uni.intro2prog.exam.task2.LatteMacchiato--><a href="LatteMacchiato.html" target="_top" xlink:actuate="onRequest" xlink:show="new" xlink:title="LatteMacchiato.html" xlink:type="simple"><rect fill="#FEFECE" filter="url(#fboyu7v548y4b)" height="117.1797" id="lu.uni.intro2prog.exam.task2.LatteMacchiato" style="stroke: #A80036; stroke-width: 1.5;" width="154" x="354" y="255"/><ellipse cx="387" cy="271" fill="#ADD1B2" rx="11" ry="11" style="stroke: #A80036; stroke-width: 1.0;"/><path d="M389.7656,266.875 Q389.9219,266.6563 390.1094,266.5469 Q390.2969,266.4375 390.5156,266.4375 Q390.8906,266.4375 391.125,266.6953 Q391.3594,266.9531 391.3594,267.5625 L391.3594,269.0156 Q391.3594,269.625 391.125,269.8906 Q390.8906,270.1563 390.5156,270.1563 Q390.1719,270.1563 389.9688,269.9531 Q389.7656,269.7656 389.6563,269.25 Q389.6094,268.8906 389.4219,268.7031 Q389.0938,268.3281 388.4844,268.1094 Q387.875,267.8906 387.25,267.8906 Q386.4844,267.8906 385.8516,268.2188 Q385.2188,268.5469 384.7266,269.2969 Q384.2344,270.0469 384.2344,271.0781 L384.2344,272.1719 Q384.2344,273.4063 385.125,274.2266 Q386.0156,275.0469 387.6094,275.0469 Q388.5469,275.0469 389.2031,274.7969 Q389.5938,274.6406 390.0156,274.2031 Q390.2813,273.9375 390.4297,273.8594 Q390.5781,273.7813 390.7813,273.7813 Q391.1094,273.7813 391.3672,274.0391 Q391.625,274.2969 391.625,274.6406 Q391.625,274.9844 391.2813,275.3906 Q390.7813,275.9688 389.9844,276.2969 Q388.9063,276.75 387.6094,276.75 Q386.0938,276.75 384.8906,276.125 Q383.9063,275.625 383.2188,274.5547 Q382.5313,273.4844 382.5313,272.2031 L382.5313,271.0469 Q382.5313,269.7188 383.1484,268.5703 Q383.7656,267.4219 384.8594,266.8047 Q385.9531,266.1875 387.1875,266.1875 Q387.9219,266.1875 388.5703,266.3516 Q389.2188,266.5156 389.7656,266.875 Z "/><text fill="#000000" font-family="sans-serif" font-size="12" lengthAdjust="spacingAndGlyphs" textLength="82" x="405" y="275.9102">LatteMacchiato</text><line style="stroke: #A80036; stroke-width: 1.5;" x1="355" x2="507" y1="287" y2="287"/><rect fill="none" height="6" style="stroke: #C82930; stroke-width: 1.0;" width="6" x="362" y="296.418"/><text fill="#000000" font-family="sans-serif" font-size="11" lengthAdjust="spacingAndGlyphs" textLength="94" x="374" y="302.4189">coffeeCapsules: int</text><rect fill="none" height="6" style="stroke: #C82930; stroke-width: 1.0;" width="6" x="362" y="310.2539"/><text fill="#000000" font-family="sans-serif" font-size="11" lengthAdjust="spacingAndGlyphs" textLength="79" x="374" y="316.2549">milkCapsules: int</text><line style="stroke: #A80036; stroke-width: 1.5;" x1="355" x2="507" y1="322.6719" y2="322.6719"/><ellipse cx="365" cy="335.0898" fill="#84BE84" rx="3" ry="3" style="stroke: #038048; stroke-width: 1.0;"/><text fill="#000000" font-family="sans-serif" font-size="11" lengthAdjust="spacingAndGlyphs" textLength="126" x="374" y="338.0908">LatteMacchiato(int, int, int)</text><ellipse cx="365" cy="348.9258" fill="#84BE84" rx="3" ry="3" style="stroke: #038048; stroke-width: 1.0;"/><text fill="#000000" font-family="sans-serif" font-size="11" lengthAdjust="spacingAndGlyphs" textLength="112" x="374" y="351.9268">getMilkPercentage(): int</text><ellipse cx="365" cy="362.7617" fill="#84BE84" rx="3" ry="3" style="stroke: #038048; stroke-width: 1.0;"/><text fill="#000000" font-family="sans-serif" font-size="11" lengthAdjust="spacingAndGlyphs" textLength="128" x="374" y="365.7627">getCoffeePercentage(): int</text></a><!--class lu.uni.intro2prog.exam.task2.Launcher--><a href="Launcher.html" target="_top" xlink:actuate="onRequest" xlink:show="new" xlink:title="Launcher.html" xlink:type="simple"><rect fill="#FEFECE" filter="url(#fboyu7v548y4b)" height="61.8359" id="lu.uni.intro2prog.exam.task2.Launcher" style="stroke: #A80036; stroke-width: 1.5;" width="116" x="730" y="87.5"/><ellipse cx="759.4" cy="103.5" fill="#ADD1B2" rx="11" ry="11" style="stroke: #A80036; stroke-width: 1.0;"/><path d="M762.1656,99.375 Q762.3219,99.1563 762.5094,99.0469 Q762.6969,98.9375 762.9156,98.9375 Q763.2906,98.9375 763.525,99.1953 Q763.7594,99.4531 763.7594,100.0625 L763.7594,101.5156 Q763.7594,102.125 763.525,102.3906 Q763.2906,102.6563 762.9156,102.6563 Q762.5719,102.6563 762.3688,102.4531 Q762.1656,102.2656 762.0563,101.75 Q762.0094,101.3906 761.8219,101.2031 Q761.4938,100.8281 760.8844,100.6094 Q760.275,100.3906 759.65,100.3906 Q758.8844,100.3906 758.2516,100.7188 Q757.6188,101.0469 757.1266,101.7969 Q756.6344,102.5469 756.6344,103.5781 L756.6344,104.6719 Q756.6344,105.9063 757.525,106.7266 Q758.4156,107.5469 760.0094,107.5469 Q760.9469,107.5469 761.6031,107.2969 Q761.9938,107.1406 762.4156,106.7031 Q762.6813,106.4375 762.8297,106.3594 Q762.9781,106.2813 763.1813,106.2813 Q763.5094,106.2813 763.7672,106.5391 Q764.025,106.7969 764.025,107.1406 Q764.025,107.4844 763.6813,107.8906 Q763.1813,108.4688 762.3844,108.7969 Q761.3063,109.25 760.0094,109.25 Q758.4938,109.25 757.2906,108.625 Q756.3063,108.125 755.6188,107.0547 Q754.9313,105.9844 754.9313,104.7031 L754.9313,103.5469 Q754.9313,102.2188 755.5484,101.0703 Q756.1656,99.9219 757.2594,99.3047 Q758.3531,98.6875 759.5875,98.6875 Q760.3219,98.6875 760.9703,98.8516 Q761.6188,99.0156 762.1656,99.375 Z "/><text fill="#000000" font-family="sans-serif" font-size="12" lengthAdjust="spacingAndGlyphs" textLength="52" x="776.6" y="108.4102">Launcher</text><line style="stroke: #A80036; stroke-width: 1.5;" x1="731" x2="845" y1="119.5" y2="119.5"/><line style="stroke: #A80036; stroke-width: 1.5;" x1="731" x2="845" y1="127.5" y2="127.5"/><ellipse cx="741" cy="139.918" fill="#84BE84" rx="3" ry="3" style="stroke: #038048; stroke-width: 1.0;"/><text fill="#000000" font-family="sans-serif" font-size="11" lengthAdjust="spacingAndGlyphs" text-decoration="underline" textLength="90" x="750" y="142.9189">main(String[]): void</text></a><!--class lu.uni.intro2prog.exam.task2.MilkDrink--><a href="MilkDrink.html" target="_top" xlink:actuate="onRequest" xlink:show="new" xlink:title="MilkDrink.html" xlink:type="simple"><rect fill="#FEFECE" filter="url(#fboyu7v548y4b)" height="61.8359" id="lu.uni.intro2prog.exam.task2.MilkDrink" style="stroke: #A80036; stroke-width: 1.5;" width="144" x="173" y="87.5"/><ellipse cx="215" cy="103.5" fill="#B4A7E5" rx="11" ry="11" style="stroke: #A80036; stroke-width: 1.0;"/><path d="M215.9531,100.1406 L215.9531,106.7969 L217.6719,106.7969 Q218.2813,106.7969 218.5469,107.0313 Q218.8125,107.2656 218.8125,107.6563 Q218.8125,108.0313 218.5469,108.2656 Q218.2813,108.5 217.6719,108.5 L212.5313,108.5 Q211.9219,108.5 211.6563,108.2656 Q211.3906,108.0313 211.3906,107.6406 Q211.3906,107.2656 211.6563,107.0313 Q211.9219,106.7969 212.5313,106.7969 L214.25,106.7969 L214.25,100.1406 L212.5313,100.1406 Q211.9219,100.1406 211.6563,99.9063 Q211.3906,99.6719 211.3906,99.2813 Q211.3906,98.9063 211.6563,98.6719 Q211.9219,98.4375 212.5313,98.4375 L217.6719,98.4375 Q218.2813,98.4375 218.5469,98.6719 Q218.8125,98.9063 218.8125,99.2813 Q218.8125,99.6719 218.5469,99.9063 Q218.2813,100.1406 217.6719,100.1406 L215.9531,100.1406 Z "/><text fill="#000000" font-family="sans-serif" font-size="12" font-style="italic" lengthAdjust="spacingAndGlyphs" textLength="52" x="235" y="108.4102">MilkDrink</text><line style="stroke: #A80036; stroke-width: 1.5;" x1="174" x2="316" y1="119.5" y2="119.5"/><line style="stroke: #A80036; stroke-width: 1.5;" x1="174" x2="316" y1="127.5" y2="127.5"/><ellipse cx="184" cy="139.918" fill="#84BE84" rx="3" ry="3" style="stroke: #038048; stroke-width: 1.0;"/><text fill="#000000" font-family="sans-serif" font-size="11" font-style="italic" lengthAdjust="spacingAndGlyphs" textLength="118" x="193" y="142.9189">getMilkPercentage(): int</text></a><!--class lu.uni.intro2prog.exam.task2.OutOfCoffeeException--><a href="OutOfCoffeeException.html" target="_top" xlink:actuate="onRequest" xlink:show="new" xlink:title="OutOfCoffeeException.html" xlink:type="simple"><rect fill="#FEFECE" filter="url(#fboyu7v548y4b)" height="61.8359" id="lu.uni.intro2prog.exam.task2.OutOfCoffeeException" style="stroke: #A80036; stroke-width: 1.5;" width="171" x="881.5" y="87.5"/><ellipse cx="905.05" cy="103.5" fill="#ADD1B2" rx="11" ry="11" style="stroke: #A80036; stroke-width: 1.0;"/><path d="M907.8156,99.375 Q907.9719,99.1563 908.1594,99.0469 Q908.3469,98.9375 908.5656,98.9375 Q908.9406,98.9375 909.175,99.1953 Q909.4094,99.4531 909.4094,100.0625 L909.4094,101.5156 Q909.4094,102.125 909.175,102.3906 Q908.9406,102.6563 908.5656,102.6563 Q908.2219,102.6563 908.0188,102.4531 Q907.8156,102.2656 907.7063,101.75 Q907.6594,101.3906 907.4719,101.2031 Q907.1438,100.8281 906.5344,100.6094 Q905.925,100.3906 905.3,100.3906 Q904.5344,100.3906 903.9016,100.7188 Q903.2688,101.0469 902.7766,101.7969 Q902.2844,102.5469 902.2844,103.5781 L902.2844,104.6719 Q902.2844,105.9063 903.175,106.7266 Q904.0656,107.5469 905.6594,107.5469 Q906.5969,107.5469 907.2531,107.2969 Q907.6438,107.1406 908.0656,106.7031 Q908.3313,106.4375 908.4797,106.3594 Q908.6281,106.2813 908.8313,106.2813 Q909.1594,106.2813 909.4172,106.5391 Q909.675,106.7969 909.675,107.1406 Q909.675,107.4844 909.3313,107.8906 Q908.8313,108.4688 908.0344,108.7969 Q906.9563,109.25 905.6594,109.25 Q904.1438,109.25 902.9406,108.625 Q901.9563,108.125 901.2688,107.0547 Q900.5813,105.9844 900.5813,104.7031 L900.5813,103.5469 Q900.5813,102.2188 901.1984,101.0703 Q901.8156,99.9219 902.9094,99.3047 Q904.0031,98.6875 905.2375,98.6875 Q905.9719,98.6875 906.6203,98.8516 Q907.2688,99.0156 907.8156,99.375 Z "/><text fill="#000000" font-family="sans-serif" font-size="12" lengthAdjust="spacingAndGlyphs" textLength="120" x="920.95" y="108.4102">OutOfCoffeeException</text><line style="stroke: #A80036; stroke-width: 1.5;" x1="882.5" x2="1051.5" y1="119.5" y2="119.5"/><line style="stroke: #A80036; stroke-width: 1.5;" x1="882.5" x2="1051.5" y1="127.5" y2="127.5"/><ellipse cx="892.5" cy="139.918" fill="#84BE84" rx="3" ry="3" style="stroke: #038048; stroke-width: 1.0;"/><text fill="#000000" font-family="sans-serif" font-size="11" lengthAdjust="spacingAndGlyphs" textLength="145" x="901.5" y="142.9189">OutOfCoffeeException(String)</text></a><!--class lu.uni.intro2prog.exam.task2.OutOfMilkException--><a href="OutOfMilkException.html" target="_top" xlink:actuate="onRequest" xlink:show="new" xlink:title="OutOfMilkException.html" xlink:type="simple"><rect fill="#FEFECE" filter="url(#fboyu7v548y4b)" height="61.8359" id="lu.uni.intro2prog.exam.task2.OutOfMilkException" style="stroke: #A80036; stroke-width: 1.5;" width="155" x="706.5" y="282.5"/><ellipse cx="729.6" cy="298.5" fill="#ADD1B2" rx="11" ry="11" style="stroke: #A80036; stroke-width: 1.0;"/><path d="M732.3656,294.375 Q732.5219,294.1563 732.7094,294.0469 Q732.8969,293.9375 733.1156,293.9375 Q733.4906,293.9375 733.725,294.1953 Q733.9594,294.4531 733.9594,295.0625 L733.9594,296.5156 Q733.9594,297.125 733.725,297.3906 Q733.4906,297.6563 733.1156,297.6563 Q732.7719,297.6563 732.5688,297.4531 Q732.3656,297.2656 732.2563,296.75 Q732.2094,296.3906 732.0219,296.2031 Q731.6938,295.8281 731.0844,295.6094 Q730.475,295.3906 729.85,295.3906 Q729.0844,295.3906 728.4516,295.7188 Q727.8188,296.0469 727.3266,296.7969 Q726.8344,297.5469 726.8344,298.5781 L726.8344,299.6719 Q726.8344,300.9063 727.725,301.7266 Q728.6156,302.5469 730.2094,302.5469 Q731.1469,302.5469 731.8031,302.2969 Q732.1938,302.1406 732.6156,301.7031 Q732.8813,301.4375 733.0297,301.3594 Q733.1781,301.2813 733.3813,301.2813 Q733.7094,301.2813 733.9672,301.5391 Q734.225,301.7969 734.225,302.1406 Q734.225,302.4844 733.8813,302.8906 Q733.3813,303.4688 732.5844,303.7969 Q731.5063,304.25 730.2094,304.25 Q728.6938,304.25 727.4906,303.625 Q726.5063,303.125 725.8188,302.0547 Q725.1313,300.9844 725.1313,299.7031 L725.1313,298.5469 Q725.1313,297.2188 725.7484,296.0703 Q726.3656,294.9219 727.4594,294.3047 Q728.5531,293.6875 729.7875,293.6875 Q730.5219,293.6875 731.1703,293.8516 Q731.8188,294.0156 732.3656,294.375 Z "/><text fill="#000000" font-family="sans-serif" font-size="12" lengthAdjust="spacingAndGlyphs" textLength="105" x="745.4" y="303.4102">OutOfMilkException</text><line style="stroke: #A80036; stroke-width: 1.5;" x1="707.5" x2="860.5" y1="314.5" y2="314.5"/><line style="stroke: #A80036; stroke-width: 1.5;" x1="707.5" x2="860.5" y1="322.5" y2="322.5"/><ellipse cx="717.5" cy="334.918" fill="#84BE84" rx="3" ry="3" style="stroke: #038048; stroke-width: 1.0;"/><text fill="#000000" font-family="sans-serif" font-size="11" lengthAdjust="spacingAndGlyphs" textLength="129" x="726.5" y="337.9189">OutOfMilkException(String)</text></a><!--class lu.uni.intro2prog.exam.task2.OutOfTeaException--><a href="OutOfTeaException.html" target="_top" xlink:actuate="onRequest" xlink:show="new" xlink:title="OutOfTeaException.html" xlink:type="simple"><rect fill="#FEFECE" filter="url(#fboyu7v548y4b)" height="61.8359" id="lu.uni.intro2prog.exam.task2.OutOfTeaException" style="stroke: #A80036; stroke-width: 1.5;" width="156" x="897" y="282.5"/><ellipse cx="920.55" cy="298.5" fill="#ADD1B2" rx="11" ry="11" style="stroke: #A80036; stroke-width: 1.0;"/><path d="M923.3156,294.375 Q923.4719,294.1563 923.6594,294.0469 Q923.8469,293.9375 924.0656,293.9375 Q924.4406,293.9375 924.675,294.1953 Q924.9094,294.4531 924.9094,295.0625 L924.9094,296.5156 Q924.9094,297.125 924.675,297.3906 Q924.4406,297.6563 924.0656,297.6563 Q923.7219,297.6563 923.5188,297.4531 Q923.3156,297.2656 923.2063,296.75 Q923.1594,296.3906 922.9719,296.2031 Q922.6438,295.8281 922.0344,295.6094 Q921.425,295.3906 920.8,295.3906 Q920.0344,295.3906 919.4016,295.7188 Q918.7688,296.0469 918.2766,296.7969 Q917.7844,297.5469 917.7844,298.5781 L917.7844,299.6719 Q917.7844,300.9063 918.675,301.7266 Q919.5656,302.5469 921.1594,302.5469 Q922.0969,302.5469 922.7531,302.2969 Q923.1438,302.1406 923.5656,301.7031 Q923.8313,301.4375 923.9797,301.3594 Q924.1281,301.2813 924.3313,301.2813 Q924.6594,301.2813 924.9172,301.5391 Q925.175,301.7969 925.175,302.1406 Q925.175,302.4844 924.8313,302.8906 Q924.3313,303.4688 923.5344,303.7969 Q922.4563,304.25 921.1594,304.25 Q919.6438,304.25 918.4406,303.625 Q917.4563,303.125 916.7688,302.0547 Q916.0813,300.9844 916.0813,299.7031 L916.0813,298.5469 Q916.0813,297.2188 916.6984,296.0703 Q917.3156,294.9219 918.4094,294.3047 Q919.5031,293.6875 920.7375,293.6875 Q921.4719,293.6875 922.1203,293.8516 Q922.7688,294.0156 923.3156,294.375 Z "/><text fill="#000000" font-family="sans-serif" font-size="12" lengthAdjust="spacingAndGlyphs" textLength="105" x="936.45" y="303.4102">OutOfTeaException</text><line style="stroke: #A80036; stroke-width: 1.5;" x1="898" x2="1052" y1="314.5" y2="314.5"/><line style="stroke: #A80036; stroke-width: 1.5;" x1="898" x2="1052" y1="322.5" y2="322.5"/><ellipse cx="908" cy="334.918" fill="#84BE84" rx="3" ry="3" style="stroke: #038048; stroke-width: 1.0;"/><text fill="#000000" font-family="sans-serif" font-size="11" lengthAdjust="spacingAndGlyphs" textLength="130" x="917" y="337.9189">OutOfTeaException(String)</text></a><!--class lu.uni.intro2prog.exam.task2.Tea--><a href="Tea.html" target="_top" xlink:actuate="onRequest" xlink:show="new" xlink:title="Tea.html" xlink:type="simple"><rect fill="#FEFECE" filter="url(#fboyu7v548y4b)" height="89.5078" id="lu.uni.intro2prog.exam.task2.Tea" style="stroke: #A80036; stroke-width: 1.5;" width="107" x="38.5" y="268.5"/><ellipse cx="77.8" cy="284.5" fill="#ADD1B2" rx="11" ry="11" style="stroke: #A80036; stroke-width: 1.0;"/><path d="M80.5656,280.375 Q80.7219,280.1563 80.9094,280.0469 Q81.0969,279.9375 81.3156,279.9375 Q81.6906,279.9375 81.925,280.1953 Q82.1594,280.4531 82.1594,281.0625 L82.1594,282.5156 Q82.1594,283.125 81.925,283.3906 Q81.6906,283.6563 81.3156,283.6563 Q80.9719,283.6563 80.7688,283.4531 Q80.5656,283.2656 80.4563,282.75 Q80.4094,282.3906 80.2219,282.2031 Q79.8938,281.8281 79.2844,281.6094 Q78.675,281.3906 78.05,281.3906 Q77.2844,281.3906 76.6516,281.7188 Q76.0188,282.0469 75.5266,282.7969 Q75.0344,283.5469 75.0344,284.5781 L75.0344,285.6719 Q75.0344,286.9063 75.925,287.7266 Q76.8156,288.5469 78.4094,288.5469 Q79.3469,288.5469 80.0031,288.2969 Q80.3938,288.1406 80.8156,287.7031 Q81.0813,287.4375 81.2297,287.3594 Q81.3781,287.2813 81.5813,287.2813 Q81.9094,287.2813 82.1672,287.5391 Q82.425,287.7969 82.425,288.1406 Q82.425,288.4844 82.0813,288.8906 Q81.5813,289.4688 80.7844,289.7969 Q79.7063,290.25 78.4094,290.25 Q76.8938,290.25 75.6906,289.625 Q74.7063,289.125 74.0188,288.0547 Q73.3313,286.9844 73.3313,285.7031 L73.3313,284.5469 Q73.3313,283.2188 73.9484,282.0703 Q74.5656,280.9219 75.6594,280.3047 Q76.7531,279.6875 77.9875,279.6875 Q78.7219,279.6875 79.3703,279.8516 Q80.0188,280.0156 80.5656,280.375 Z "/><text fill="#000000" font-family="sans-serif" font-size="12" lengthAdjust="spacingAndGlyphs" textLength="21" x="97.2" y="289.4102">Tea</text><line style="stroke: #A80036; stroke-width: 1.5;" x1="39.5" x2="144.5" y1="300.5" y2="300.5"/><rect fill="none" height="6" style="stroke: #C82930; stroke-width: 1.0;" width="6" x="46.5" y="309.918"/><text fill="#000000" font-family="sans-serif" font-size="11" lengthAdjust="spacingAndGlyphs" textLength="57" x="58.5" y="315.9189">strength: int</text><line style="stroke: #A80036; stroke-width: 1.5;" x1="39.5" x2="144.5" y1="322.3359" y2="322.3359"/><ellipse cx="49.5" cy="334.7539" fill="#84BE84" rx="3" ry="3" style="stroke: #038048; stroke-width: 1.0;"/><text fill="#000000" font-family="sans-serif" font-size="11" lengthAdjust="spacingAndGlyphs" textLength="54" x="58.5" y="337.7549">Tea(int, int)</text><ellipse cx="49.5" cy="348.5898" fill="#84BE84" rx="3" ry="3" style="stroke: #038048; stroke-width: 1.0;"/><text fill="#000000" font-family="sans-serif" font-size="11" lengthAdjust="spacingAndGlyphs" textLength="81" x="58.5" y="351.5908">getStrength(): int</text></a><!--link lu.uni.intro2prog.exam.task2.CoffeeMachine to lu.uni.intro2prog.exam.task2.LatteMacchiato--><path d="M428.896,177.145 C429.251,199.967 429.66,226.269 430.022,249.583 " fill="none" id="lu.uni.intro2prog.exam.task2.CoffeeMachine-lu.uni.intro2prog.exam.task2.LatteMacchiato" style="stroke: #A80036; stroke-width: 1.0;"/><polygon fill="#A80036" points="430.103,254.819,433.9611,245.7572,430.0244,249.8196,425.962,245.883,430.103,254.819" style="stroke: #A80036; stroke-width: 1.0;"/><text fill="#000000" font-family="sans-serif" font-size="13" lengthAdjust="spacingAndGlyphs" textLength="85" x="430" y="221.4951">latteMacchiato</text><!--link lu.uni.intro2prog.exam.task2.CoffeeMachine to lu.uni.intro2prog.exam.task2.HotChocolate--><path d="M371.363,177.013 C361.812,186.936 352.063,197.208 343,207 C325.886,225.493 307.457,246.219 291.555,264.374 " fill="none" id="lu.uni.intro2prog.exam.task2.CoffeeMachine-lu.uni.intro2prog.exam.task2.HotChocolate" style="stroke: #A80036; stroke-width: 1.0;"/><polygon fill="#A80036" points="287.992,268.447,296.9282,264.3064,291.2839,264.6836,290.9067,259.0393,287.992,268.447" style="stroke: #A80036; stroke-width: 1.0;"/><text fill="#000000" font-family="sans-serif" font-size="13" lengthAdjust="spacingAndGlyphs" textLength="76" x="344" y="221.4951">hotChocolate</text><!--link lu.uni.intro2prog.exam.task2.Drink to lu.uni.intro2prog.exam.task2.HotChocolate--><path d="M138.095,179.181 C162.29,208.006 190.813,241.987 213.007,268.428 " fill="none" id="lu.uni.intro2prog.exam.task2.Drink-lu.uni.intro2prog.exam.task2.HotChocolate" style="stroke: #A80036; stroke-width: 1.0;"/><polygon fill="none" points="132.663,183.597,125.166,163.778,143.386,174.597,132.663,183.597" style="stroke: #A80036; stroke-width: 1.0;"/><!--link lu.uni.intro2prog.exam.task2.MilkDrink to lu.uni.intro2prog.exam.task2.HotChocolate--><path d="M246.302,169.738 C247.092,200.254 248.092,238.855 248.853,268.222 " fill="none" id="lu.uni.intro2prog.exam.task2.MilkDrink-lu.uni.intro2prog.exam.task2.HotChocolate" style="stroke: #A80036; stroke-width: 1.0; stroke-dasharray: 7.0,7.0;"/><polygon fill="none" points="239.302,169.831,245.781,149.656,253.297,169.468,239.302,169.831" style="stroke: #A80036; stroke-width: 1.0;"/><!--link lu.uni.intro2prog.exam.task2.Drink to lu.uni.intro2prog.exam.task2.LatteMacchiato--><path d="M152.609,175.484 C153.406,175.998 154.203,176.504 155,177 C229.699,223.528 258.816,214.601 337,255 C342.524,257.854 348.16,260.91 353.791,264.071 " fill="none" id="lu.uni.intro2prog.exam.task2.Drink-lu.uni.intro2prog.exam.task2.LatteMacchiato" style="stroke: #A80036; stroke-width: 1.0;"/><polygon fill="none" points="148.295,181.006,136.071,163.698,156.421,169.605,148.295,181.006" style="stroke: #A80036; stroke-width: 1.0;"/><!--link lu.uni.intro2prog.exam.task2.MilkDrink to lu.uni.intro2prog.exam.task2.LatteMacchiato--><path d="M273.859,166.859 C286.542,185.901 302.335,207.454 319,225 C329.62,236.182 341.731,247.12 353.971,257.266 " fill="none" id="lu.uni.intro2prog.exam.task2.MilkDrink-lu.uni.intro2prog.exam.task2.LatteMacchiato" style="stroke: #A80036; stroke-width: 1.0; stroke-dasharray: 7.0,7.0;"/><polygon fill="none" points="267.896,170.528,262.939,149.926,279.661,162.94,267.896,170.528" style="stroke: #A80036; stroke-width: 1.0;"/><!--link lu.uni.intro2prog.exam.task2.CoffeeDrink to lu.uni.intro2prog.exam.task2.LatteMacchiato--><path d="M578.456,165.084 C562.057,183.983 542.482,205.909 524,225 C514.44,234.875 504.056,245.099 493.807,254.924 " fill="none" id="lu.uni.intro2prog.exam.task2.CoffeeDrink-lu.uni.intro2prog.exam.task2.LatteMacchiato" style="stroke: #A80036; stroke-width: 1.0; stroke-dasharray: 7.0,7.0;"/><polygon fill="none" points="573.316,160.324,591.665,149.726,583.931,169.453,573.316,160.324" style="stroke: #A80036; stroke-width: 1.0;"/><!--link lu.uni.intro2prog.exam.task2.Drink to lu.uni.intro2prog.exam.task2.Tea--><path d="M89.3374,184.031 C89.9121,211.758 90.569,243.456 91.0866,268.428 " fill="none" id="lu.uni.intro2prog.exam.task2.Drink-lu.uni.intro2prog.exam.task2.Tea" style="stroke: #A80036; stroke-width: 1.0;"/><polygon fill="none" points="82.3337,183.919,88.9177,163.778,96.3307,183.629,82.3337,183.919" style="stroke: #A80036; stroke-width: 1.0;"/><!--link lu.uni.intro2prog.exam.task2.Launcher to lu.uni.intro2prog.exam.task2.OutOfCoffeeException--><!--link lu.uni.intro2prog.exam.task2.Launcher to lu.uni.intro2prog.exam.task2.OutOfMilkException--><!--link lu.uni.intro2prog.exam.task2.OutOfMilkException to lu.uni.intro2prog.exam.task2.OutOfTeaException--><text fill="#888888" font-family="sans-serif" font-size="10" lengthAdjust="spacingAndGlyphs" textLength="190" x="456.5" y="424.3809">UMLDoclet 2.0.10, PlantUML 1.2019.08</text><!--
@startuml
    namespace lu.uni.intro2prog.exam.task2 {

        interface CoffeeDrink [[CoffeeDrink.html]] {
            {abstract} +getCoffeePercentage(): int
        }

        class CoffeeMachine [[CoffeeMachine.html]] {
            -coffeeCapsules: int
            -teaCapsules: int
            -milkCapsules: int
            +CoffeeMachine(int, int, int)
            +getTea(int): Tea
        }

        abstract class Drink [[Drink.html]] {
            -milliliter: int
            +Drink(int)
            +getMilliliter(): int
        }

        class HotChocolate [[HotChocolate.html]] {
            -milkCapsules: int
            +HotChocolate(int, int)
            +getMilkPercentage(): int
        }

        class LatteMacchiato [[LatteMacchiato.html]] {
            -coffeeCapsules: int
            -milkCapsules: int
            +LatteMacchiato(int, int, int)
            +getMilkPercentage(): int
            +getCoffeePercentage(): int
        }

        class Launcher [[Launcher.html]] {
            {static} +main(String[]): void
        }

        interface MilkDrink [[MilkDrink.html]] {
            {abstract} +getMilkPercentage(): int
        }

        class OutOfCoffeeException [[OutOfCoffeeException.html]] {
            +OutOfCoffeeException(String)
        }

        class OutOfMilkException [[OutOfMilkException.html]] {
            +OutOfMilkException(String)
        }

        class OutOfTeaException [[OutOfTeaException.html]] {
            +OutOfTeaException(String)
        }

        class Tea [[Tea.html]] {
            -strength: int
            +Tea(int, int)
            +getStrength(): int
        }

        CoffeeMachine - -> LatteMacchiato: latteMacchiato
        CoffeeMachine - -> HotChocolate: hotChocolate
        Drink <|- - HotChocolate
        MilkDrink <|.. HotChocolate
        Drink <|- - LatteMacchiato
        MilkDrink <|.. LatteMacchiato
        CoffeeDrink <|.. LatteMacchiato
        Drink <|- - Tea
    }

    center footer UMLDoclet 2.0.10, PlantUML 1.2019.08
@enduml

PlantUML version 1.2019.08(Sat Jul 13 21:25:14 CEST 2019)
(APACHE source distribution)
Java Runtime: Java(TM) SE Runtime Environment
JVM: Java HotSpot(TM) 64-Bit Server VM
Java Version: 9.0.4+11
Operating System: Windows 10
OS Version: 10.0
Default Encoding: Cp1252
Language: en
Country: US
--></g></svg>