<?xml version="1.0" encoding="UTF-8" standalone="no"?><svg xmlns="http://www.w3.org/2000/svg" xmlns:xlink="http://www.w3.org/1999/xlink" contentScriptType="application/ecmascript" contentStyleType="text/css" height="309px" preserveAspectRatio="none" style="width:438px;height:309px;" version="1.1" viewBox="0 0 438 309" width="438px" zoomAndPan="magnify"><defs><filter height="300%" id="f1fknwux9syuez" width="300%" x="-1" y="-1"><feGaussianBlur result="blurOut" stdDeviation="2.0"/><feColorMatrix in="blurOut" result="blurOut2" type="matrix" values="0 0 0 0 0 0 0 0 0 0 0 0 0 0 0 0 0 0 .4 0"/><feOffset dx="4.0" dy="4.0" in="blurOut2" result="blurOut3"/><feBlend in="SourceGraphic" in2="blurOut3" mode="normal"/></filter></defs><g><!--cluster lu.uni.intro2prog.exam.task2.exception--><polygon fill="#FFFFFF" filter="url(#f1fknwux9syuez)" points="22,24,301,24,308,47.6094,416,47.6094,416,260,22,260,22,24" style="stroke: #000000; stroke-width: 1.5;"/><line style="stroke: #000000; stroke-width: 1.5;" x1="22" x2="308" y1="47.6094" y2="47.6094"/><text fill="#000000" font-family="sans-serif" font-size="14" font-weight="bold" lengthAdjust="spacingAndGlyphs" textLength="273" x="26" y="40.5332">lu.uni.intro2prog.exam.task2.exception</text><!--class lu.uni.intro2prog.exam.task2.exception.OutOfCoffeeException--><a href="OutOfCoffeeException.html" target="_top" xlink:actuate="onRequest" xlink:show="new" xlink:title="OutOfCoffeeException.html" xlink:type="simple"><rect fill="#FEFECE" filter="url(#f1fknwux9syuez)" height="61.8359" id="lu.uni.intro2prog.exam.task2.exception.OutOfCoffeeException" style="stroke: #A80036; stroke-width: 1.5;" width="171" x="38.5" y="60"/><ellipse cx="62.05" cy="76" fill="#ADD1B2" rx="11" ry="11" style="stroke: #A80036; stroke-width: 1.0;"/><path d="M64.8156,71.875 Q64.9719,71.6563 65.1594,71.5469 Q65.3469,71.4375 65.5656,71.4375 Q65.9406,71.4375 66.175,71.6953 Q66.4094,71.9531 66.4094,72.5625 L66.4094,74.0156 Q66.4094,74.625 66.175,74.8906 Q65.9406,75.1563 65.5656,75.1563 Q65.2219,75.1563 65.0188,74.9531 Q64.8156,74.7656 64.7063,74.25 Q64.6594,73.8906 64.4719,73.7031 Q64.1438,73.3281 63.5344,73.1094 Q62.925,72.8906 62.3,72.8906 Q61.5344,72.8906 60.9016,73.2188 Q60.2688,73.5469 59.7766,74.2969 Q59.2844,75.0469 59.2844,76.0781 L59.2844,77.1719 Q59.2844,78.4063 60.175,79.2266 Q61.0656,80.0469 62.6594,80.0469 Q63.5969,80.0469 64.2531,79.7969 Q64.6438,79.6406 65.0656,79.2031 Q65.3313,78.9375 65.4797,78.8594 Q65.6281,78.7813 65.8313,78.7813 Q66.1594,78.7813 66.4172,79.0391 Q66.675,79.2969 66.675,79.6406 Q66.675,79.9844 66.3313,80.3906 Q65.8313,80.9688 65.0344,81.2969 Q63.9563,81.75 62.6594,81.75 Q61.1438,81.75 59.9406,81.125 Q58.9563,80.625 58.2688,79.5547 Q57.5813,78.4844 57.5813,77.2031 L57.5813,76.0469 Q57.5813,74.7188 58.1984,73.5703 Q58.8156,72.4219 59.9094,71.8047 Q61.0031,71.1875 62.2375,71.1875 Q62.9719,71.1875 63.6203,71.3516 Q64.2688,71.5156 64.8156,71.875 Z "/><text fill="#000000" font-family="sans-serif" font-size="12" lengthAdjust="spacingAndGlyphs" textLength="120" x="77.95" y="80.9102">OutOfCoffeeException</text><line style="stroke: #A80036; stroke-width: 1.5;" x1="39.5" x2="208.5" y1="92" y2="92"/><line style="stroke: #A80036; stroke-width: 1.5;" x1="39.5" x2="208.5" y1="100" y2="100"/><ellipse cx="49.5" cy="112.418" fill="#84BE84" rx="3" ry="3" style="stroke: #038048; stroke-width: 1.0;"/><text fill="#000000" font-family="sans-serif" font-size="11" lengthAdjust="spacingAndGlyphs" textLength="145" x="58.5" y="115.4189">OutOfCoffeeException(String)</text></a><!--class lu.uni.intro2prog.exam.task2.exception.OutOfMilkException--><a href="OutOfMilkException.html" target="_top" xlink:actuate="onRequest" xlink:show="new" xlink:title="OutOfMilkException.html" xlink:type="simple"><rect fill="#FEFECE" filter="url(#f1fknwux9syuez)" height="61.8359" id="lu.uni.intro2prog.exam.task2.exception.OutOfMilkException" style="stroke: #A80036; stroke-width: 1.5;" width="155" x="244.5" y="60"/><ellipse cx="267.6" cy="76" fill="#ADD1B2" rx="11" ry="11" style="stroke: #A80036; stroke-width: 1.0;"/><path d="M270.3656,71.875 Q270.5219,71.6563 270.7094,71.5469 Q270.8969,71.4375 271.1156,71.4375 Q271.4906,71.4375 271.725,71.6953 Q271.9594,71.9531 271.9594,72.5625 L271.9594,74.0156 Q271.9594,74.625 271.725,74.8906 Q271.4906,75.1563 271.1156,75.1563 Q270.7719,75.1563 270.5688,74.9531 Q270.3656,74.7656 270.2563,74.25 Q270.2094,73.8906 270.0219,73.7031 Q269.6938,73.3281 269.0844,73.1094 Q268.475,72.8906 267.85,72.8906 Q267.0844,72.8906 266.4516,73.2188 Q265.8188,73.5469 265.3266,74.2969 Q264.8344,75.0469 264.8344,76.0781 L264.8344,77.1719 Q264.8344,78.4063 265.725,79.2266 Q266.6156,80.0469 268.2094,80.0469 Q269.1469,80.0469 269.8031,79.7969 Q270.1938,79.6406 270.6156,79.2031 Q270.8813,78.9375 271.0297,78.8594 Q271.1781,78.7813 271.3813,78.7813 Q271.7094,78.7813 271.9672,79.0391 Q272.225,79.2969 272.225,79.6406 Q272.225,79.9844 271.8813,80.3906 Q271.3813,80.9688 270.5844,81.2969 Q269.5063,81.75 268.2094,81.75 Q266.6938,81.75 265.4906,81.125 Q264.5063,80.625 263.8188,79.5547 Q263.1313,78.4844 263.1313,77.2031 L263.1313,76.0469 Q263.1313,74.7188 263.7484,73.5703 Q264.3656,72.4219 265.4594,71.8047 Q266.5531,71.1875 267.7875,71.1875 Q268.5219,71.1875 269.1703,71.3516 Q269.8188,71.5156 270.3656,71.875 Z "/><text fill="#000000" font-family="sans-serif" font-size="12" lengthAdjust="spacingAndGlyphs" textLength="105" x="283.4" y="80.9102">OutOfMilkException</text><line style="stroke: #A80036; stroke-width: 1.5;" x1="245.5" x2="398.5" y1="92" y2="92"/><line style="stroke: #A80036; stroke-width: 1.5;" x1="245.5" x2="398.5" y1="100" y2="100"/><ellipse cx="255.5" cy="112.418" fill="#84BE84" rx="3" ry="3" style="stroke: #038048; stroke-width: 1.0;"/><text fill="#000000" font-family="sans-serif" font-size="11" lengthAdjust="spacingAndGlyphs" textLength="129" x="264.5" y="115.4189">OutOfMilkException(String)</text></a><!--class lu.uni.intro2prog.exam.task2.exception.OutOfTeaException--><a href="OutOfTeaException.html" target="_top" xlink:actuate="onRequest" xlink:show="new" xlink:title="OutOfTeaException.html" xlink:type="simple"><rect fill="#FEFECE" filter="url(#f1fknwux9syuez)" height="61.8359" id="lu.uni.intro2prog.exam.task2.exception.OutOfTeaException" style="stroke: #A80036; stroke-width: 1.5;" width="156" x="46" y="182"/><ellipse cx="69.55" cy="198" fill="#ADD1B2" rx="11" ry="11" style="stroke: #A80036; stroke-width: 1.0;"/><path d="M72.3156,193.875 Q72.4719,193.6563 72.6594,193.5469 Q72.8469,193.4375 73.0656,193.4375 Q73.4406,193.4375 73.675,193.6953 Q73.9094,193.9531 73.9094,194.5625 L73.9094,196.0156 Q73.9094,196.625 73.675,196.8906 Q73.4406,197.1563 73.0656,197.1563 Q72.7219,197.1563 72.5188,196.9531 Q72.3156,196.7656 72.2063,196.25 Q72.1594,195.8906 71.9719,195.7031 Q71.6438,195.3281 71.0344,195.1094 Q70.425,194.8906 69.8,194.8906 Q69.0344,194.8906 68.4016,195.2188 Q67.7688,195.5469 67.2766,196.2969 Q66.7844,197.0469 66.7844,198.0781 L66.7844,199.1719 Q66.7844,200.4063 67.675,201.2266 Q68.5656,202.0469 70.1594,202.0469 Q71.0969,202.0469 71.7531,201.7969 Q72.1438,201.6406 72.5656,201.2031 Q72.8313,200.9375 72.9797,200.8594 Q73.1281,200.7813 73.3313,200.7813 Q73.6594,200.7813 73.9172,201.0391 Q74.175,201.2969 74.175,201.6406 Q74.175,201.9844 73.8313,202.3906 Q73.3313,202.9688 72.5344,203.2969 Q71.4563,203.75 70.1594,203.75 Q68.6438,203.75 67.4406,203.125 Q66.4563,202.625 65.7688,201.5547 Q65.0813,200.4844 65.0813,199.2031 L65.0813,198.0469 Q65.0813,196.7188 65.6984,195.5703 Q66.3156,194.4219 67.4094,193.8047 Q68.5031,193.1875 69.7375,193.1875 Q70.4719,193.1875 71.1203,193.3516 Q71.7688,193.5156 72.3156,193.875 Z "/><text fill="#000000" font-family="sans-serif" font-size="12" lengthAdjust="spacingAndGlyphs" textLength="105" x="85.45" y="202.9102">OutOfTeaException</text><line style="stroke: #A80036; stroke-width: 1.5;" x1="47" x2="201" y1="214" y2="214"/><line style="stroke: #A80036; stroke-width: 1.5;" x1="47" x2="201" y1="222" y2="222"/><ellipse cx="57" cy="234.418" fill="#84BE84" rx="3" ry="3" style="stroke: #038048; stroke-width: 1.0;"/><text fill="#000000" font-family="sans-serif" font-size="11" lengthAdjust="spacingAndGlyphs" textLength="130" x="66" y="237.4189">OutOfTeaException(String)</text></a><!--link lu.uni.intro2prog.exam.task2.exception.OutOfCoffeeException to lu.uni.intro2prog.exam.task2.exception.OutOfMilkException--><!--link lu.uni.intro2prog.exam.task2.exception.OutOfCoffeeException to lu.uni.intro2prog.exam.task2.exception.OutOfTeaException--><text fill="#888888" font-family="sans-serif" font-size="10" lengthAdjust="spacingAndGlyphs" textLength="190" x="130" y="296.3809">UMLDoclet 2.0.10, PlantUML 1.2019.08</text><!--
@startuml
    namespace lu.uni.intro2prog.exam.task2.exception {

        class OutOfCoffeeException [[OutOfCoffeeException.html]] {
            +OutOfCoffeeException(String)
        }

        class OutOfMilkException [[OutOfMilkException.html]] {
            +OutOfMilkException(String)
        }

        class OutOfTeaException [[OutOfTeaException.html]] {
            +OutOfTeaException(String)
        }

    }

    center footer UMLDoclet 2.0.10, PlantUML 1.2019.08
@enduml

PlantUML version 1.2019.08(Sat Jul 13 21:25:14 CEST 2019)
(APACHE source distribution)
Java Runtime: Java(TM) SE Runtime Environment
JVM: Java HotSpot(TM) 64-Bit Server VM
Java Version: 9.0.4+11
Operating System: Windows 10
OS Version: 10.0
Default Encoding: Cp1252
Language: en
Country: US
--></g></svg>