<?xml version="1.0" encoding="UTF-8" standalone="no"?><svg xmlns="http://www.w3.org/2000/svg" xmlns:xlink="http://www.w3.org/1999/xlink" contentScriptType="application/ecmascript" contentStyleType="text/css" height="194px" preserveAspectRatio="none" style="width:219px;height:194px;" version="1.1" viewBox="0 0 219 194" width="219px" zoomAndPan="magnify"><defs><filter height="300%" id="f1w176imuexb0i" width="300%" x="-1" y="-1"><feGaussianBlur result="blurOut" stdDeviation="2.0"/><feColorMatrix in="blurOut" result="blurOut2" type="matrix" values="0 0 0 0 0 0 0 0 0 0 0 0 0 0 0 0 0 0 .4 0"/><feOffset dx="4.0" dy="4.0" in="blurOut2" result="blurOut3"/><feBlend in="SourceGraphic" in2="blurOut3" mode="normal"/></filter></defs><g><!--class lu.uni.intro2prog.exam.task2.CoffeeMachine--><a href="CoffeeMachine.html" target="_top" xlink:actuate="onRequest" xlink:show="new" xlink:title="CoffeeMachine.html" xlink:type="simple"><rect fill="#FEFECE" filter="url(#f1w176imuexb0i)" height="153.0391" id="lu.uni.intro2prog.exam.task2.CoffeeMachine" style="stroke: #A80036; stroke-width: 1.5;" width="201" x="6" y="8"/><ellipse cx="37.2" cy="28.0938" fill="#ADD1B2" rx="11" ry="11" style="stroke: #A80036; stroke-width: 1.0;"/><path d="M39.9656,23.9688 Q40.1219,23.75 40.3094,23.6406 Q40.4969,23.5313 40.7156,23.5313 Q41.0906,23.5313 41.325,23.7891 Q41.5594,24.0469 41.5594,24.6563 L41.5594,26.1094 Q41.5594,26.7188 41.325,26.9844 Q41.0906,27.25 40.7156,27.25 Q40.3719,27.25 40.1688,27.0469 Q39.9656,26.8594 39.8563,26.3438 Q39.8094,25.9844 39.6219,25.7969 Q39.2938,25.4219 38.6844,25.2031 Q38.075,24.9844 37.45,24.9844 Q36.6844,24.9844 36.0516,25.3125 Q35.4188,25.6406 34.9266,26.3906 Q34.4344,27.1406 34.4344,28.1719 L34.4344,29.2656 Q34.4344,30.5 35.325,31.3203 Q36.2156,32.1406 37.8094,32.1406 Q38.7469,32.1406 39.4031,31.8906 Q39.7938,31.7344 40.2156,31.2969 Q40.4813,31.0313 40.6297,30.9531 Q40.7781,30.875 40.9813,30.875 Q41.3094,30.875 41.5672,31.1328 Q41.825,31.3906 41.825,31.7344 Q41.825,32.0781 41.4813,32.4844 Q40.9813,33.0625 40.1844,33.3906 Q39.1063,33.8438 37.8094,33.8438 Q36.2938,33.8438 35.0906,33.2188 Q34.1063,32.7188 33.4188,31.6484 Q32.7313,30.5781 32.7313,29.2969 L32.7313,28.1406 Q32.7313,26.8125 33.3484,25.6641 Q33.9656,24.5156 35.0594,23.8984 Q36.1531,23.2813 37.3875,23.2813 Q38.1219,23.2813 38.7703,23.4453 Q39.4188,23.6094 39.9656,23.9688 Z "/><text fill="#000000" font-family="sans-serif" font-size="14" lengthAdjust="spacingAndGlyphs" textLength="95" x="73.8" y="27.5332">CoffeeMachine</text><text fill="#000000" font-family="sans-serif" font-size="10" lengthAdjust="spacingAndGlyphs" textLength="133" x="54.8" y="40.9902">lu.uni.intro2prog.exam.task2</text><line style="stroke: #A80036; stroke-width: 1.5;" x1="7" x2="206" y1="48.1875" y2="48.1875"/><rect fill="none" height="6" style="stroke: #C82930; stroke-width: 1.0;" width="6" x="14" y="57.6055"/><text fill="#000000" font-family="sans-serif" font-size="11" lengthAdjust="spacingAndGlyphs" textLength="94" x="26" y="63.6064">coffeeCapsules: int</text><rect fill="none" height="6" style="stroke: #C82930; stroke-width: 1.0;" width="6" x="14" y="71.4414"/><text fill="#000000" font-family="sans-serif" font-size="11" lengthAdjust="spacingAndGlyphs" textLength="77" x="26" y="77.4424">teaCapsules: int</text><rect fill="none" height="6" style="stroke: #C82930; stroke-width: 1.0;" width="6" x="14" y="85.2773"/><text fill="#000000" font-family="sans-serif" font-size="11" lengthAdjust="spacingAndGlyphs" textLength="79" x="26" y="91.2783">milkCapsules: int</text><line style="stroke: #A80036; stroke-width: 1.5;" x1="7" x2="206" y1="97.6953" y2="97.6953"/><ellipse cx="17" cy="110.1133" fill="#84BE84" rx="3" ry="3" style="stroke: #038048; stroke-width: 1.0;"/><text fill="#000000" font-family="sans-serif" font-size="11" lengthAdjust="spacingAndGlyphs" textLength="126" x="26" y="113.1143">CoffeeMachine(int, int, int)</text><ellipse cx="17" cy="123.9492" fill="#84BE84" rx="3" ry="3" style="stroke: #038048; stroke-width: 1.0;"/><text fill="#000000" font-family="sans-serif" font-size="11" lengthAdjust="spacingAndGlyphs" textLength="175" x="26" y="126.9502">getLatteMacchiato(): LatteMacchiato</text><ellipse cx="17" cy="137.7852" fill="#84BE84" rx="3" ry="3" style="stroke: #038048; stroke-width: 1.0;"/><text fill="#000000" font-family="sans-serif" font-size="11" lengthAdjust="spacingAndGlyphs" textLength="76" x="26" y="140.7861">getTea(int): Tea</text><ellipse cx="17" cy="151.6211" fill="#84BE84" rx="3" ry="3" style="stroke: #038048; stroke-width: 1.0;"/><text fill="#000000" font-family="sans-serif" font-size="11" lengthAdjust="spacingAndGlyphs" textLength="157" x="26" y="154.6221">getHotChocolate(): HotChocolate</text></a><text fill="#888888" font-family="sans-serif" font-size="10" lengthAdjust="spacingAndGlyphs" textLength="190" x="17.5" y="181.3809">UMLDoclet 2.0.10, PlantUML 1.2019.08</text><!--
@startuml
    set namespaceSeparator none
    hide empty fields
    hide empty methods

    class "<size:14>CoffeeMachine\n<size:10>lu.uni.intro2prog.exam.task2" as lu.uni.intro2prog.exam.task2.CoffeeMachine [[CoffeeMachine.html]] {
        -coffeeCapsules: int
        -teaCapsules: int
        -milkCapsules: int
        +CoffeeMachine(int, int, int)
        +getLatteMacchiato(): LatteMacchiato
        +getTea(int): Tea
        +getHotChocolate(): HotChocolate
    }

    center footer UMLDoclet 2.0.10, PlantUML 1.2019.08
@enduml

PlantUML version 1.2019.08(Sat Jul 13 21:25:14 CEST 2019)
(APACHE source distribution)
Java Runtime: Java(TM) SE Runtime Environment
JVM: Java HotSpot(TM) 64-Bit Server VM
Java Version: 9.0.4+11
Operating System: Windows 10
OS Version: 10.0
Default Encoding: Cp1252
Language: en
Country: US
--></g></svg>