<?xml version="1.0" encoding="UTF-8" standalone="no"?><svg xmlns="http://www.w3.org/2000/svg" xmlns:xlink="http://www.w3.org/1999/xlink" contentScriptType="application/ecmascript" contentStyleType="text/css" height="392px" preserveAspectRatio="none" style="width:379px;height:392px;" version="1.1" viewBox="0 0 379 392" width="379px" zoomAndPan="magnify"><defs><filter height="300%" id="f1w4t7e4ui76a1" width="300%" x="-1" y="-1"><feGaussianBlur result="blurOut" stdDeviation="2.0"/><feColorMatrix in="blurOut" result="blurOut2" type="matrix" values="0 0 0 0 0 0 0 0 0 0 0 0 0 0 0 0 0 0 .4 0"/><feOffset dx="4.0" dy="4.0" in="blurOut2" result="blurOut3"/><feBlend in="SourceGraphic" in2="blurOut3" mode="normal"/></filter></defs><g><!--cluster lu.uni.intro2prog.exam.task2--><polygon fill="#FFFFFF" filter="url(#f1w4t7e4ui76a1)" points="22,24,227,24,234,47.6094,357,47.6094,357,193,22,193,22,24" style="stroke: #000000; stroke-width: 1.5;"/><line style="stroke: #000000; stroke-width: 1.5;" x1="22" x2="234" y1="47.6094" y2="47.6094"/><text fill="#000000" font-family="sans-serif" font-size="14" font-weight="bold" lengthAdjust="spacingAndGlyphs" textLength="199" x="26" y="40.5332">lu.uni.intro2prog.exam.task2</text><!--cluster lu.uni.intro2prog.exam.task2.drink--><polygon fill="#FFFFFF" filter="url(#f1w4t7e4ui76a1)" points="59,243,304,243,311,266.6094,348,266.6094,348,343,59,343,59,243" style="stroke: #000000; stroke-width: 1.5;"/><line style="stroke: #000000; stroke-width: 1.5;" x1="59" x2="311" y1="266.6094" y2="266.6094"/><text fill="#000000" font-family="sans-serif" font-size="14" font-weight="bold" lengthAdjust="spacingAndGlyphs" textLength="239" x="63" y="259.5332">lu.uni.intro2prog.exam.task2.drink</text><!--class lu.uni.intro2prog.exam.task2.CoffeeMachine--><a href="CoffeeMachine.html" target="_top" xlink:actuate="onRequest" xlink:show="new" xlink:title="CoffeeMachine.html" xlink:type="simple"><rect fill="#FEFECE" filter="url(#f1w4t7e4ui76a1)" height="117.1797" id="lu.uni.intro2prog.exam.task2.CoffeeMachine" style="stroke: #A80036; stroke-width: 1.5;" width="152" x="189" y="60"/><ellipse cx="221.1" cy="76" fill="#ADD1B2" rx="11" ry="11" style="stroke: #A80036; stroke-width: 1.0;"/><path d="M223.8656,71.875 Q224.0219,71.6563 224.2094,71.5469 Q224.3969,71.4375 224.6156,71.4375 Q224.9906,71.4375 225.225,71.6953 Q225.4594,71.9531 225.4594,72.5625 L225.4594,74.0156 Q225.4594,74.625 225.225,74.8906 Q224.9906,75.1563 224.6156,75.1563 Q224.2719,75.1563 224.0688,74.9531 Q223.8656,74.7656 223.7563,74.25 Q223.7094,73.8906 223.5219,73.7031 Q223.1938,73.3281 222.5844,73.1094 Q221.975,72.8906 221.35,72.8906 Q220.5844,72.8906 219.9516,73.2188 Q219.3188,73.5469 218.8266,74.2969 Q218.3344,75.0469 218.3344,76.0781 L218.3344,77.1719 Q218.3344,78.4063 219.225,79.2266 Q220.1156,80.0469 221.7094,80.0469 Q222.6469,80.0469 223.3031,79.7969 Q223.6938,79.6406 224.1156,79.2031 Q224.3813,78.9375 224.5297,78.8594 Q224.6781,78.7813 224.8813,78.7813 Q225.2094,78.7813 225.4672,79.0391 Q225.725,79.2969 225.725,79.6406 Q225.725,79.9844 225.3813,80.3906 Q224.8813,80.9688 224.0844,81.2969 Q223.0063,81.75 221.7094,81.75 Q220.1938,81.75 218.9906,81.125 Q218.0063,80.625 217.3188,79.5547 Q216.6313,78.4844 216.6313,77.2031 L216.6313,76.0469 Q216.6313,74.7188 217.2484,73.5703 Q217.8656,72.4219 218.9594,71.8047 Q220.0531,71.1875 221.2875,71.1875 Q222.0219,71.1875 222.6703,71.3516 Q223.3188,71.5156 223.8656,71.875 Z "/><text fill="#000000" font-family="sans-serif" font-size="12" lengthAdjust="spacingAndGlyphs" textLength="82" x="238.9" y="80.9102">CoffeeMachine</text><line style="stroke: #A80036; stroke-width: 1.5;" x1="190" x2="340" y1="92" y2="92"/><rect fill="none" height="6" style="stroke: #C82930; stroke-width: 1.0;" width="6" x="197" y="101.418"/><text fill="#000000" font-family="sans-serif" font-size="11" lengthAdjust="spacingAndGlyphs" textLength="94" x="209" y="107.4189">coffeeCapsules: int</text><rect fill="none" height="6" style="stroke: #C82930; stroke-width: 1.0;" width="6" x="197" y="115.2539"/><text fill="#000000" font-family="sans-serif" font-size="11" lengthAdjust="spacingAndGlyphs" textLength="77" x="209" y="121.2549">teaCapsules: int</text><rect fill="none" height="6" style="stroke: #C82930; stroke-width: 1.0;" width="6" x="197" y="129.0898"/><text fill="#000000" font-family="sans-serif" font-size="11" lengthAdjust="spacingAndGlyphs" textLength="79" x="209" y="135.0908">milkCapsules: int</text><line style="stroke: #A80036; stroke-width: 1.5;" x1="190" x2="340" y1="141.5078" y2="141.5078"/><ellipse cx="200" cy="153.9258" fill="#84BE84" rx="3" ry="3" style="stroke: #038048; stroke-width: 1.0;"/><text fill="#000000" font-family="sans-serif" font-size="11" lengthAdjust="spacingAndGlyphs" textLength="126" x="209" y="156.9268">CoffeeMachine(int, int, int)</text><ellipse cx="200" cy="167.7617" fill="#84BE84" rx="3" ry="3" style="stroke: #038048; stroke-width: 1.0;"/><text fill="#000000" font-family="sans-serif" font-size="11" lengthAdjust="spacingAndGlyphs" textLength="76" x="209" y="170.7627">getTea(int): Tea</text></a><!--class lu.uni.intro2prog.exam.task2.Launcher--><a href="Launcher.html" target="_top" xlink:actuate="onRequest" xlink:show="new" xlink:title="Launcher.html" xlink:type="simple"><rect fill="#FEFECE" filter="url(#f1w4t7e4ui76a1)" height="61.8359" id="lu.uni.intro2prog.exam.task2.Launcher" style="stroke: #A80036; stroke-width: 1.5;" width="116" x="38" y="87.5"/><ellipse cx="67.4" cy="103.5" fill="#ADD1B2" rx="11" ry="11" style="stroke: #A80036; stroke-width: 1.0;"/><path d="M70.1656,99.375 Q70.3219,99.1563 70.5094,99.0469 Q70.6969,98.9375 70.9156,98.9375 Q71.2906,98.9375 71.525,99.1953 Q71.7594,99.4531 71.7594,100.0625 L71.7594,101.5156 Q71.7594,102.125 71.525,102.3906 Q71.2906,102.6563 70.9156,102.6563 Q70.5719,102.6563 70.3688,102.4531 Q70.1656,102.2656 70.0563,101.75 Q70.0094,101.3906 69.8219,101.2031 Q69.4938,100.8281 68.8844,100.6094 Q68.275,100.3906 67.65,100.3906 Q66.8844,100.3906 66.2516,100.7188 Q65.6188,101.0469 65.1266,101.7969 Q64.6344,102.5469 64.6344,103.5781 L64.6344,104.6719 Q64.6344,105.9063 65.525,106.7266 Q66.4156,107.5469 68.0094,107.5469 Q68.9469,107.5469 69.6031,107.2969 Q69.9938,107.1406 70.4156,106.7031 Q70.6813,106.4375 70.8297,106.3594 Q70.9781,106.2813 71.1813,106.2813 Q71.5094,106.2813 71.7672,106.5391 Q72.025,106.7969 72.025,107.1406 Q72.025,107.4844 71.6813,107.8906 Q71.1813,108.4688 70.3844,108.7969 Q69.3063,109.25 68.0094,109.25 Q66.4938,109.25 65.2906,108.625 Q64.3063,108.125 63.6188,107.0547 Q62.9313,105.9844 62.9313,104.7031 L62.9313,103.5469 Q62.9313,102.2188 63.5484,101.0703 Q64.1656,99.9219 65.2594,99.3047 Q66.3531,98.6875 67.5875,98.6875 Q68.3219,98.6875 68.9703,98.8516 Q69.6188,99.0156 70.1656,99.375 Z "/><text fill="#000000" font-family="sans-serif" font-size="12" lengthAdjust="spacingAndGlyphs" textLength="52" x="84.6" y="108.4102">Launcher</text><line style="stroke: #A80036; stroke-width: 1.5;" x1="39" x2="153" y1="119.5" y2="119.5"/><line style="stroke: #A80036; stroke-width: 1.5;" x1="39" x2="153" y1="127.5" y2="127.5"/><ellipse cx="49" cy="139.918" fill="#84BE84" rx="3" ry="3" style="stroke: #038048; stroke-width: 1.0;"/><text fill="#000000" font-family="sans-serif" font-size="11" lengthAdjust="spacingAndGlyphs" text-decoration="underline" textLength="90" x="58" y="142.9189">main(String[]): void</text></a><!--class lu.uni.intro2prog.exam.task2.drink.LatteMacchiato--><rect fill="#FEFECE" filter="url(#f1w4t7e4ui76a1)" height="48" id="lu.uni.intro2prog.exam.task2.drink.LatteMacchiato" style="stroke: #A80036; stroke-width: 1.5;" width="114" x="75" y="279"/><ellipse cx="90" cy="295" fill="#ADD1B2" rx="11" ry="11" style="stroke: #A80036; stroke-width: 1.0;"/><path d="M92.7656,290.875 Q92.9219,290.6563 93.1094,290.5469 Q93.2969,290.4375 93.5156,290.4375 Q93.8906,290.4375 94.125,290.6953 Q94.3594,290.9531 94.3594,291.5625 L94.3594,293.0156 Q94.3594,293.625 94.125,293.8906 Q93.8906,294.1563 93.5156,294.1563 Q93.1719,294.1563 92.9688,293.9531 Q92.7656,293.7656 92.6563,293.25 Q92.6094,292.8906 92.4219,292.7031 Q92.0938,292.3281 91.4844,292.1094 Q90.875,291.8906 90.25,291.8906 Q89.4844,291.8906 88.8516,292.2188 Q88.2188,292.5469 87.7266,293.2969 Q87.2344,294.0469 87.2344,295.0781 L87.2344,296.1719 Q87.2344,297.4063 88.125,298.2266 Q89.0156,299.0469 90.6094,299.0469 Q91.5469,299.0469 92.2031,298.7969 Q92.5938,298.6406 93.0156,298.2031 Q93.2813,297.9375 93.4297,297.8594 Q93.5781,297.7813 93.7813,297.7813 Q94.1094,297.7813 94.3672,298.0391 Q94.625,298.2969 94.625,298.6406 Q94.625,298.9844 94.2813,299.3906 Q93.7813,299.9688 92.9844,300.2969 Q91.9063,300.75 90.6094,300.75 Q89.0938,300.75 87.8906,300.125 Q86.9063,299.625 86.2188,298.5547 Q85.5313,297.4844 85.5313,296.2031 L85.5313,295.0469 Q85.5313,293.7188 86.1484,292.5703 Q86.7656,291.4219 87.8594,290.8047 Q88.9531,290.1875 90.1875,290.1875 Q90.9219,290.1875 91.5703,290.3516 Q92.2188,290.5156 92.7656,290.875 Z "/><text fill="#000000" font-family="sans-serif" font-size="12" lengthAdjust="spacingAndGlyphs" textLength="82" x="104" y="299.9102">LatteMacchiato</text><line style="stroke: #A80036; stroke-width: 1.5;" x1="76" x2="188" y1="311" y2="311"/><line style="stroke: #A80036; stroke-width: 1.5;" x1="76" x2="188" y1="319" y2="319"/><!--class lu.uni.intro2prog.exam.task2.drink.HotChocolate--><rect fill="#FEFECE" filter="url(#f1w4t7e4ui76a1)" height="48" id="lu.uni.intro2prog.exam.task2.drink.HotChocolate" style="stroke: #A80036; stroke-width: 1.5;" width="107" x="224.5" y="279"/><ellipse cx="239.5" cy="295" fill="#ADD1B2" rx="11" ry="11" style="stroke: #A80036; stroke-width: 1.0;"/><path d="M242.2656,290.875 Q242.4219,290.6563 242.6094,290.5469 Q242.7969,290.4375 243.0156,290.4375 Q243.3906,290.4375 243.625,290.6953 Q243.8594,290.9531 243.8594,291.5625 L243.8594,293.0156 Q243.8594,293.625 243.625,293.8906 Q243.3906,294.1563 243.0156,294.1563 Q242.6719,294.1563 242.4688,293.9531 Q242.2656,293.7656 242.1563,293.25 Q242.1094,292.8906 241.9219,292.7031 Q241.5938,292.3281 240.9844,292.1094 Q240.375,291.8906 239.75,291.8906 Q238.9844,291.8906 238.3516,292.2188 Q237.7188,292.5469 237.2266,293.2969 Q236.7344,294.0469 236.7344,295.0781 L236.7344,296.1719 Q236.7344,297.4063 237.625,298.2266 Q238.5156,299.0469 240.1094,299.0469 Q241.0469,299.0469 241.7031,298.7969 Q242.0938,298.6406 242.5156,298.2031 Q242.7813,297.9375 242.9297,297.8594 Q243.0781,297.7813 243.2813,297.7813 Q243.6094,297.7813 243.8672,298.0391 Q244.125,298.2969 244.125,298.6406 Q244.125,298.9844 243.7813,299.3906 Q243.2813,299.9688 242.4844,300.2969 Q241.4063,300.75 240.1094,300.75 Q238.5938,300.75 237.3906,300.125 Q236.4063,299.625 235.7188,298.5547 Q235.0313,297.4844 235.0313,296.2031 L235.0313,295.0469 Q235.0313,293.7188 235.6484,292.5703 Q236.2656,291.4219 237.3594,290.8047 Q238.4531,290.1875 239.6875,290.1875 Q240.4219,290.1875 241.0703,290.3516 Q241.7188,290.5156 242.2656,290.875 Z "/><text fill="#000000" font-family="sans-serif" font-size="12" lengthAdjust="spacingAndGlyphs" textLength="75" x="253.5" y="299.9102">HotChocolate</text><line style="stroke: #A80036; stroke-width: 1.5;" x1="225.5" x2="330.5" y1="311" y2="311"/><line style="stroke: #A80036; stroke-width: 1.5;" x1="225.5" x2="330.5" y1="319" y2="319"/><!--link lu.uni.intro2prog.exam.task2.CoffeeMachine to lu.uni.intro2prog.exam.task2.drink.LatteMacchiato--><path d="M202.123,177.136 C192.757,187.254 183.682,198.061 176,209 C161.805,229.213 150.107,254.724 142.35,273.9126 " fill="none" id="lu.uni.intro2prog.exam.task2.CoffeeMachine-lu.uni.intro2prog.exam.task2.drink.LatteMacchiato" style="stroke: #A80036; stroke-width: 1.0;"/><polygon fill="#A80036" points="140.464,278.6476,147.5111,271.7673,142.3147,274.0027,140.0793,268.8063,140.464,278.6476" style="stroke: #A80036; stroke-width: 1.0;"/><text fill="#000000" font-family="sans-serif" font-size="13" lengthAdjust="spacingAndGlyphs" textLength="85" x="177" y="223.4951">latteMacchiato</text><!--link lu.uni.intro2prog.exam.task2.CoffeeMachine to lu.uni.intro2prog.exam.task2.drink.HotChocolate--><path d="M269.113,177.244 C271.405,209.417 274.156,248.042 275.985,273.7061 " fill="none" id="lu.uni.intro2prog.exam.task2.CoffeeMachine-lu.uni.intro2prog.exam.task2.drink.HotChocolate" style="stroke: #A80036; stroke-width: 1.0;"/><polygon fill="#A80036" points="276.36,278.9787,279.7103,269.7172,276.0047,273.9913,271.7306,270.2857,276.36,278.9787" style="stroke: #A80036; stroke-width: 1.0;"/><text fill="#000000" font-family="sans-serif" font-size="13" lengthAdjust="spacingAndGlyphs" textLength="76" x="273" y="223.4951">hotChocolate</text><text fill="#888888" font-family="sans-serif" font-size="10" lengthAdjust="spacingAndGlyphs" textLength="190" x="100.5" y="379.3809">UMLDoclet 2.0.10, PlantUML 1.2019.08</text><!--
@startuml
    namespace lu.uni.intro2prog.exam.task2 {

        class CoffeeMachine [[CoffeeMachine.html]] {
            -coffeeCapsules: int
            -teaCapsules: int
            -milkCapsules: int
            +CoffeeMachine(int, int, int)
            +getTea(int): Tea
        }

        class Launcher [[Launcher.html]] {
            {static} +main(String[]): void
        }

        CoffeeMachine - -> lu.uni.intro2prog.exam.task2.drink.LatteMacchiato: latteMacchiato
        CoffeeMachine - -> lu.uni.intro2prog.exam.task2.drink.HotChocolate: hotChocolate
    }

    center footer UMLDoclet 2.0.10, PlantUML 1.2019.08
@enduml

PlantUML version 1.2019.08(Sat Jul 13 21:25:14 CEST 2019)
(APACHE source distribution)
Java Runtime: Java(TM) SE Runtime Environment
JVM: Java HotSpot(TM) 64-Bit Server VM
Java Version: 9.0.4+11
Operating System: Windows 10
OS Version: 10.0
Default Encoding: Cp1252
Language: en
Country: US
--></g></svg>