<?xml version="1.0" encoding="UTF-8" standalone="no"?><svg xmlns="http://www.w3.org/2000/svg" xmlns:xlink="http://www.w3.org/1999/xlink" contentScriptType="application/ecmascript" contentStyleType="text/css" height="139px" preserveAspectRatio="none" style="width:214px;height:139px;" version="1.1" viewBox="0 0 214 139" width="214px" zoomAndPan="magnify"><defs><filter height="300%" id="f19s4qo22afuxp" width="300%" x="-1" y="-1"><feGaussianBlur result="blurOut" stdDeviation="2.0"/><feColorMatrix in="blurOut" result="blurOut2" type="matrix" values="0 0 0 0 0 0 0 0 0 0 0 0 0 0 0 0 0 0 .4 0"/><feOffset dx="4.0" dy="4.0" in="blurOut2" result="blurOut3"/><feBlend in="SourceGraphic" in2="blurOut3" mode="normal"/></filter></defs><g><!--class lu.uni.intro2prog.exam.task2.drink.Drink--><a href="Drink.html" target="_top" xlink:actuate="onRequest" xlink:show="new" xlink:title="Drink.html" xlink:type="simple"><rect fill="#FEFECE" filter="url(#f19s4qo22afuxp)" height="97.6953" id="lu.uni.intro2prog.exam.task2.drink.Drink" style="stroke: #A80036; stroke-width: 1.5;" width="191" x="6" y="8"/><ellipse cx="21" cy="28.0938" fill="#A9DCDF" rx="11" ry="11" style="stroke: #A80036; stroke-width: 1.0;"/><path d="M23.1875,29.8594 L19.0469,29.8594 L18.625,30.8906 L19.0469,30.8906 Q19.6563,30.8906 19.9219,31.125 Q20.1875,31.3594 20.1875,31.75 Q20.1875,32.125 19.9219,32.3594 Q19.6563,32.5938 19.0469,32.5938 L16.75,32.5938 Q16.1406,32.5938 15.8828,32.3594 Q15.625,32.125 15.625,31.7344 Q15.625,31.3594 15.8984,31.1172 Q16.1719,30.875 16.7969,30.8906 L19.4688,24.2344 L18.3594,24.2344 Q17.75,24.2344 17.4844,24 Q17.2188,23.7656 17.2188,23.375 Q17.2188,23 17.4844,22.7656 Q17.75,22.5313 18.3594,22.5313 L22.0313,22.5313 L25.4219,30.8906 Q26.0156,30.8906 26.2031,31.0313 Q26.5938,31.2969 26.5938,31.75 Q26.5938,32.125 26.3359,32.3594 Q26.0781,32.5938 25.4688,32.5938 L23.1719,32.5938 Q22.5625,32.5938 22.2969,32.3594 Q22.0313,32.125 22.0313,31.7344 Q22.0313,31.3594 22.2969,31.125 Q22.5625,30.8906 23.1719,30.8906 L23.5938,30.8906 L23.1875,29.8594 Z M22.4688,28.1563 L21.1094,24.7813 L19.7344,28.1563 L22.4688,28.1563 Z "/><text fill="#000000" font-family="sans-serif" font-size="14" font-style="italic" lengthAdjust="spacingAndGlyphs" textLength="34" x="97.5" y="27.5332">Drink</text><text fill="#000000" font-family="sans-serif" font-size="10" font-style="italic" lengthAdjust="spacingAndGlyphs" textLength="159" x="35" y="40.9902">lu.uni.intro2prog.exam.task2.drink</text><line style="stroke: #A80036; stroke-width: 1.5;" x1="7" x2="196" y1="48.1875" y2="48.1875"/><rect fill="none" height="6" style="stroke: #C82930; stroke-width: 1.0;" width="6" x="14" y="57.6055"/><text fill="#000000" font-family="sans-serif" font-size="11" lengthAdjust="spacingAndGlyphs" textLength="50" x="26" y="63.6064">milliliter: int</text><line style="stroke: #A80036; stroke-width: 1.5;" x1="7" x2="196" y1="70.0234" y2="70.0234"/><ellipse cx="17" cy="82.4414" fill="#84BE84" rx="3" ry="3" style="stroke: #038048; stroke-width: 1.0;"/><text fill="#000000" font-family="sans-serif" font-size="11" lengthAdjust="spacingAndGlyphs" textLength="43" x="26" y="85.4424">Drink(int)</text><ellipse cx="17" cy="96.2773" fill="#84BE84" rx="3" ry="3" style="stroke: #038048; stroke-width: 1.0;"/><text fill="#000000" font-family="sans-serif" font-size="11" lengthAdjust="spacingAndGlyphs" textLength="73" x="26" y="99.2783">getMilliliter(): int</text></a><text fill="#888888" font-family="sans-serif" font-size="10" lengthAdjust="spacingAndGlyphs" textLength="190" x="12.5" y="126.3809">UMLDoclet 2.0.10, PlantUML 1.2019.08</text><!--
@startuml
    set namespaceSeparator none
    hide empty fields
    hide empty methods

    abstract class "<size:14>Drink\n<size:10>lu.uni.intro2prog.exam.task2.drink" as lu.uni.intro2prog.exam.task2.drink.Drink [[Drink.html]] {
        -milliliter: int
        +Drink(int)
        +getMilliliter(): int
    }

    center footer UMLDoclet 2.0.10, PlantUML 1.2019.08
@enduml

PlantUML version 1.2019.08(Sat Jul 13 21:25:14 CEST 2019)
(APACHE source distribution)
Java Runtime: Java(TM) SE Runtime Environment
JVM: Java HotSpot(TM) 64-Bit Server VM
Java Version: 9.0.4+11
Operating System: Windows 10
OS Version: 10.0
Default Encoding: Cp1252
Language: en
Country: US
--></g></svg>