<?xml version="1.0" encoding="UTF-8" standalone="no"?><svg xmlns="http://www.w3.org/2000/svg" xmlns:xlink="http://www.w3.org/1999/xlink" contentScriptType="application/ecmascript" contentStyleType="text/css" height="261px" preserveAspectRatio="none" style="width:434px;height:261px;" version="1.1" viewBox="0 0 434 261" width="434px" zoomAndPan="magnify"><defs><filter height="300%" id="flgjfne9x8vsd" width="300%" x="-1" y="-1"><feGaussianBlur result="blurOut" stdDeviation="2.0"/><feColorMatrix in="blurOut" result="blurOut2" type="matrix" values="0 0 0 0 0 0 0 0 0 0 0 0 0 0 0 0 0 0 .4 0"/><feOffset dx="4.0" dy="4.0" in="blurOut2" result="blurOut3"/><feBlend in="SourceGraphic" in2="blurOut3" mode="normal"/></filter></defs><g><!--class lu.uni.intro2prog.exam.task2.drink.HotChocolate--><a href="HotChocolate.html" target="_top" xlink:actuate="onRequest" xlink:show="new" xlink:title="HotChocolate.html" xlink:type="simple"><rect fill="#FEFECE" filter="url(#flgjfne9x8vsd)" height="97.6953" id="lu.uni.intro2prog.exam.task2.drink.HotChocolate" style="stroke: #A80036; stroke-width: 1.5;" width="190" x="119.5" y="130"/><ellipse cx="134.5" cy="150.0938" fill="#ADD1B2" rx="11" ry="11" style="stroke: #A80036; stroke-width: 1.0;"/><path d="M137.2656,145.9688 Q137.4219,145.75 137.6094,145.6406 Q137.7969,145.5313 138.0156,145.5313 Q138.3906,145.5313 138.625,145.7891 Q138.8594,146.0469 138.8594,146.6563 L138.8594,148.1094 Q138.8594,148.7188 138.625,148.9844 Q138.3906,149.25 138.0156,149.25 Q137.6719,149.25 137.4688,149.0469 Q137.2656,148.8594 137.1563,148.3438 Q137.1094,147.9844 136.9219,147.7969 Q136.5938,147.4219 135.9844,147.2031 Q135.375,146.9844 134.75,146.9844 Q133.9844,146.9844 133.3516,147.3125 Q132.7188,147.6406 132.2266,148.3906 Q131.7344,149.1406 131.7344,150.1719 L131.7344,151.2656 Q131.7344,152.5 132.625,153.3203 Q133.5156,154.1406 135.1094,154.1406 Q136.0469,154.1406 136.7031,153.8906 Q137.0938,153.7344 137.5156,153.2969 Q137.7813,153.0313 137.9297,152.9531 Q138.0781,152.875 138.2813,152.875 Q138.6094,152.875 138.8672,153.1328 Q139.125,153.3906 139.125,153.7344 Q139.125,154.0781 138.7813,154.4844 Q138.2813,155.0625 137.4844,155.3906 Q136.4063,155.8438 135.1094,155.8438 Q133.5938,155.8438 132.3906,155.2188 Q131.4063,154.7188 130.7188,153.6484 Q130.0313,152.5781 130.0313,151.2969 L130.0313,150.1406 Q130.0313,148.8125 130.6484,147.6641 Q131.2656,146.5156 132.3594,145.8984 Q133.4531,145.2813 134.6875,145.2813 Q135.4219,145.2813 136.0703,145.4453 Q136.7188,145.6094 137.2656,145.9688 Z "/><text fill="#000000" font-family="sans-serif" font-size="14" lengthAdjust="spacingAndGlyphs" textLength="85" x="185" y="149.5332">HotChocolate</text><text fill="#000000" font-family="sans-serif" font-size="10" lengthAdjust="spacingAndGlyphs" textLength="158" x="148.5" y="162.9902">lu.uni.intro2prog.exam.task2.drink</text><line style="stroke: #A80036; stroke-width: 1.5;" x1="120.5" x2="308.5" y1="170.1875" y2="170.1875"/><rect fill="none" height="6" style="stroke: #C82930; stroke-width: 1.0;" width="6" x="127.5" y="179.6055"/><text fill="#000000" font-family="sans-serif" font-size="11" lengthAdjust="spacingAndGlyphs" textLength="79" x="139.5" y="185.6064">milkCapsules: int</text><line style="stroke: #A80036; stroke-width: 1.5;" x1="120.5" x2="308.5" y1="192.0234" y2="192.0234"/><ellipse cx="130.5" cy="204.4414" fill="#84BE84" rx="3" ry="3" style="stroke: #038048; stroke-width: 1.0;"/><text fill="#000000" font-family="sans-serif" font-size="11" lengthAdjust="spacingAndGlyphs" textLength="100" x="139.5" y="207.4424">HotChocolate(int, int)</text><ellipse cx="130.5" cy="218.2773" fill="#84BE84" rx="3" ry="3" style="stroke: #038048; stroke-width: 1.0;"/><text fill="#000000" font-family="sans-serif" font-size="11" lengthAdjust="spacingAndGlyphs" textLength="112" x="139.5" y="221.2783">getMilkPercentage(): int</text></a><!--class lu.uni.intro2prog.exam.task2.drink.Drink--><a href="Drink.html" target="_top" xlink:actuate="onRequest" xlink:show="new" xlink:title="Drink.html" xlink:type="simple"><rect fill="#FEFECE" filter="url(#flgjfne9x8vsd)" height="40.1875" id="lu.uni.intro2prog.exam.task2.drink.Drink" style="stroke: #A80036; stroke-width: 1.5;" width="191" x="6" y="19"/><ellipse cx="21" cy="39.0938" fill="#A9DCDF" rx="11" ry="11" style="stroke: #A80036; stroke-width: 1.0;"/><path d="M23.1875,40.8594 L19.0469,40.8594 L18.625,41.8906 L19.0469,41.8906 Q19.6563,41.8906 19.9219,42.125 Q20.1875,42.3594 20.1875,42.75 Q20.1875,43.125 19.9219,43.3594 Q19.6563,43.5938 19.0469,43.5938 L16.75,43.5938 Q16.1406,43.5938 15.8828,43.3594 Q15.625,43.125 15.625,42.7344 Q15.625,42.3594 15.8984,42.1172 Q16.1719,41.875 16.7969,41.8906 L19.4688,35.2344 L18.3594,35.2344 Q17.75,35.2344 17.4844,35 Q17.2188,34.7656 17.2188,34.375 Q17.2188,34 17.4844,33.7656 Q17.75,33.5313 18.3594,33.5313 L22.0313,33.5313 L25.4219,41.8906 Q26.0156,41.8906 26.2031,42.0313 Q26.5938,42.2969 26.5938,42.75 Q26.5938,43.125 26.3359,43.3594 Q26.0781,43.5938 25.4688,43.5938 L23.1719,43.5938 Q22.5625,43.5938 22.2969,43.3594 Q22.0313,43.125 22.0313,42.7344 Q22.0313,42.3594 22.2969,42.125 Q22.5625,41.8906 23.1719,41.8906 L23.5938,41.8906 L23.1875,40.8594 Z M22.4688,39.1563 L21.1094,35.7813 L19.7344,39.1563 L22.4688,39.1563 Z "/><text fill="#000000" font-family="sans-serif" font-size="14" font-style="italic" lengthAdjust="spacingAndGlyphs" textLength="34" x="97.5" y="38.5332">Drink</text><text fill="#000000" font-family="sans-serif" font-size="10" font-style="italic" lengthAdjust="spacingAndGlyphs" textLength="159" x="35" y="51.9902">lu.uni.intro2prog.exam.task2.drink</text></a><!--class lu.uni.intro2prog.exam.task2.drink.MilkDrink--><a href="MilkDrink.html" target="_top" xlink:actuate="onRequest" xlink:show="new" xlink:title="MilkDrink.html" xlink:type="simple"><rect fill="#FEFECE" filter="url(#flgjfne9x8vsd)" height="62.0234" id="lu.uni.intro2prog.exam.task2.drink.MilkDrink" style="stroke: #A80036; stroke-width: 1.5;" width="191" x="232" y="8"/><ellipse cx="247" cy="28.0938" fill="#B4A7E5" rx="11" ry="11" style="stroke: #A80036; stroke-width: 1.0;"/><path d="M247.9531,24.7344 L247.9531,31.3906 L249.6719,31.3906 Q250.2813,31.3906 250.5469,31.625 Q250.8125,31.8594 250.8125,32.25 Q250.8125,32.625 250.5469,32.8594 Q250.2813,33.0938 249.6719,33.0938 L244.5313,33.0938 Q243.9219,33.0938 243.6563,32.8594 Q243.3906,32.625 243.3906,32.2344 Q243.3906,31.8594 243.6563,31.625 Q243.9219,31.3906 244.5313,31.3906 L246.25,31.3906 L246.25,24.7344 L244.5313,24.7344 Q243.9219,24.7344 243.6563,24.5 Q243.3906,24.2656 243.3906,23.875 Q243.3906,23.5 243.6563,23.2656 Q243.9219,23.0313 244.5313,23.0313 L249.6719,23.0313 Q250.2813,23.0313 250.5469,23.2656 Q250.8125,23.5 250.8125,23.875 Q250.8125,24.2656 250.5469,24.5 Q250.2813,24.7344 249.6719,24.7344 L247.9531,24.7344 Z "/><text fill="#000000" font-family="sans-serif" font-size="14" font-style="italic" lengthAdjust="spacingAndGlyphs" textLength="60" x="310.5" y="27.5332">MilkDrink</text><text fill="#000000" font-family="sans-serif" font-size="10" font-style="italic" lengthAdjust="spacingAndGlyphs" textLength="159" x="261" y="40.9902">lu.uni.intro2prog.exam.task2.drink</text><line style="stroke: #A80036; stroke-width: 1.5;" x1="233" x2="422" y1="48.1875" y2="48.1875"/><ellipse cx="243" cy="60.6055" fill="#84BE84" rx="3" ry="3" style="stroke: #038048; stroke-width: 1.0;"/><text fill="#000000" font-family="sans-serif" font-size="11" font-style="italic" lengthAdjust="spacingAndGlyphs" textLength="118" x="252" y="63.6064">getMilkPercentage(): int</text></a><!--link lu.uni.intro2prog.exam.task2.drink.Drink to lu.uni.intro2prog.exam.task2.drink.HotChocolate--><path d="M129.963,74.76 C143.63,91.45 160.229,111.722 175.087,129.8675 " fill="none" id="lu.uni.intro2prog.exam.task2.drink.Drink-lu.uni.intro2prog.exam.task2.drink.HotChocolate" style="stroke: #A80036; stroke-width: 1.0;"/><polygon fill="none" points="124.467,79.097,117.212,59.188,135.299,70.228,124.467,79.097" style="stroke: #A80036; stroke-width: 1.0;"/><!--link lu.uni.intro2prog.exam.task2.drink.MilkDrink to lu.uni.intro2prog.exam.task2.drink.HotChocolate--><path d="M289.828,86.007 C278.282,100.107 265.553,115.653 253.895,129.8887 " fill="none" id="lu.uni.intro2prog.exam.task2.drink.MilkDrink-lu.uni.intro2prog.exam.task2.drink.HotChocolate" style="stroke: #A80036; stroke-width: 1.0; stroke-dasharray: 7.0,7.0;"/><polygon fill="none" points="284.615,81.324,302.702,70.285,295.447,90.194,284.615,81.324" style="stroke: #A80036; stroke-width: 1.0;"/><text fill="#888888" font-family="sans-serif" font-size="10" lengthAdjust="spacingAndGlyphs" textLength="190" x="125.5" y="248.3809">UMLDoclet 2.0.10, PlantUML 1.2019.08</text><!--
@startuml
    set namespaceSeparator none
    hide empty fields
    hide empty methods

    class "<size:14>HotChocolate\n<size:10>lu.uni.intro2prog.exam.task2.drink" as lu.uni.intro2prog.exam.task2.drink.HotChocolate [[HotChocolate.html]] {
        -milkCapsules: int
        +HotChocolate(int, int)
        +getMilkPercentage(): int
    }

    abstract class "<size:14>Drink\n<size:10>lu.uni.intro2prog.exam.task2.drink" as lu.uni.intro2prog.exam.task2.drink.Drink [[Drink.html]]
    interface "<size:14>MilkDrink\n<size:10>lu.uni.intro2prog.exam.task2.drink" as lu.uni.intro2prog.exam.task2.drink.MilkDrink [[MilkDrink.html]] {
        {abstract} +getMilkPercentage(): int
    }

    lu.uni.intro2prog.exam.task2.drink.Drink <|- - lu.uni.intro2prog.exam.task2.drink.HotChocolate
    lu.uni.intro2prog.exam.task2.drink.MilkDrink <|.. lu.uni.intro2prog.exam.task2.drink.HotChocolate

    center footer UMLDoclet 2.0.10, PlantUML 1.2019.08
@enduml

PlantUML version 1.2019.08(Sat Jul 13 21:25:14 CEST 2019)
(APACHE source distribution)
Java Runtime: Java(TM) SE Runtime Environment
JVM: Java HotSpot(TM) 64-Bit Server VM
Java Version: 9.0.4+11
Operating System: Windows 10
OS Version: 10.0
Default Encoding: Cp1252
Language: en
Country: US
--></g></svg>