<?xml version="1.0" encoding="UTF-8" standalone="no"?><svg xmlns="http://www.w3.org/2000/svg" xmlns:xlink="http://www.w3.org/1999/xlink" contentScriptType="application/ecmascript" contentStyleType="text/css" height="288px" preserveAspectRatio="none" style="width:660px;height:288px;" version="1.1" viewBox="0 0 660 288" width="660px" zoomAndPan="magnify"><defs><filter height="300%" id="f14o69v3klvgox" width="300%" x="-1" y="-1"><feGaussianBlur result="blurOut" stdDeviation="2.0"/><feColorMatrix in="blurOut" result="blurOut2" type="matrix" values="0 0 0 0 0 0 0 0 0 0 0 0 0 0 0 0 0 0 .4 0"/><feOffset dx="4.0" dy="4.0" in="blurOut2" result="blurOut3"/><feBlend in="SourceGraphic" in2="blurOut3" mode="normal"/></filter></defs><g><!--class lu.uni.intro2prog.exam.task2.drink.LatteMacchiato--><a href="LatteMacchiato.html" target="_top" xlink:actuate="onRequest" xlink:show="new" xlink:title="LatteMacchiato.html" xlink:type="simple"><rect fill="#FEFECE" filter="url(#f14o69v3klvgox)" height="125.3672" id="lu.uni.intro2prog.exam.task2.drink.LatteMacchiato" style="stroke: #A80036; stroke-width: 1.5;" width="190" x="232.5" y="130"/><ellipse cx="247.5" cy="150.0938" fill="#ADD1B2" rx="11" ry="11" style="stroke: #A80036; stroke-width: 1.0;"/><path d="M250.2656,145.9688 Q250.4219,145.75 250.6094,145.6406 Q250.7969,145.5313 251.0156,145.5313 Q251.3906,145.5313 251.625,145.7891 Q251.8594,146.0469 251.8594,146.6563 L251.8594,148.1094 Q251.8594,148.7188 251.625,148.9844 Q251.3906,149.25 251.0156,149.25 Q250.6719,149.25 250.4688,149.0469 Q250.2656,148.8594 250.1563,148.3438 Q250.1094,147.9844 249.9219,147.7969 Q249.5938,147.4219 248.9844,147.2031 Q248.375,146.9844 247.75,146.9844 Q246.9844,146.9844 246.3516,147.3125 Q245.7188,147.6406 245.2266,148.3906 Q244.7344,149.1406 244.7344,150.1719 L244.7344,151.2656 Q244.7344,152.5 245.625,153.3203 Q246.5156,154.1406 248.1094,154.1406 Q249.0469,154.1406 249.7031,153.8906 Q250.0938,153.7344 250.5156,153.2969 Q250.7813,153.0313 250.9297,152.9531 Q251.0781,152.875 251.2813,152.875 Q251.6094,152.875 251.8672,153.1328 Q252.125,153.3906 252.125,153.7344 Q252.125,154.0781 251.7813,154.4844 Q251.2813,155.0625 250.4844,155.3906 Q249.4063,155.8438 248.1094,155.8438 Q246.5938,155.8438 245.3906,155.2188 Q244.4063,154.7188 243.7188,153.6484 Q243.0313,152.5781 243.0313,151.2969 L243.0313,150.1406 Q243.0313,148.8125 243.6484,147.6641 Q244.2656,146.5156 245.3594,145.8984 Q246.4531,145.2813 247.6875,145.2813 Q248.4219,145.2813 249.0703,145.4453 Q249.7188,145.6094 250.2656,145.9688 Z "/><text fill="#000000" font-family="sans-serif" font-size="14" lengthAdjust="spacingAndGlyphs" textLength="96" x="292.5" y="149.5332">LatteMacchiato</text><text fill="#000000" font-family="sans-serif" font-size="10" lengthAdjust="spacingAndGlyphs" textLength="158" x="261.5" y="162.9902">lu.uni.intro2prog.exam.task2.drink</text><line style="stroke: #A80036; stroke-width: 1.5;" x1="233.5" x2="421.5" y1="170.1875" y2="170.1875"/><rect fill="none" height="6" style="stroke: #C82930; stroke-width: 1.0;" width="6" x="240.5" y="179.6055"/><text fill="#000000" font-family="sans-serif" font-size="11" lengthAdjust="spacingAndGlyphs" textLength="94" x="252.5" y="185.6064">coffeeCapsules: int</text><rect fill="none" height="6" style="stroke: #C82930; stroke-width: 1.0;" width="6" x="240.5" y="193.4414"/><text fill="#000000" font-family="sans-serif" font-size="11" lengthAdjust="spacingAndGlyphs" textLength="79" x="252.5" y="199.4424">milkCapsules: int</text><line style="stroke: #A80036; stroke-width: 1.5;" x1="233.5" x2="421.5" y1="205.8594" y2="205.8594"/><ellipse cx="243.5" cy="218.2773" fill="#84BE84" rx="3" ry="3" style="stroke: #038048; stroke-width: 1.0;"/><text fill="#000000" font-family="sans-serif" font-size="11" lengthAdjust="spacingAndGlyphs" textLength="126" x="252.5" y="221.2783">LatteMacchiato(int, int, int)</text><ellipse cx="243.5" cy="232.1133" fill="#84BE84" rx="3" ry="3" style="stroke: #038048; stroke-width: 1.0;"/><text fill="#000000" font-family="sans-serif" font-size="11" lengthAdjust="spacingAndGlyphs" textLength="112" x="252.5" y="235.1143">getMilkPercentage(): int</text><ellipse cx="243.5" cy="245.9492" fill="#84BE84" rx="3" ry="3" style="stroke: #038048; stroke-width: 1.0;"/><text fill="#000000" font-family="sans-serif" font-size="11" lengthAdjust="spacingAndGlyphs" textLength="128" x="252.5" y="248.9502">getCoffeePercentage(): int</text></a><!--class lu.uni.intro2prog.exam.task2.drink.Drink--><a href="Drink.html" target="_top" xlink:actuate="onRequest" xlink:show="new" xlink:title="Drink.html" xlink:type="simple"><rect fill="#FEFECE" filter="url(#f14o69v3klvgox)" height="40.1875" id="lu.uni.intro2prog.exam.task2.drink.Drink" style="stroke: #A80036; stroke-width: 1.5;" width="191" x="6" y="19"/><ellipse cx="21" cy="39.0938" fill="#A9DCDF" rx="11" ry="11" style="stroke: #A80036; stroke-width: 1.0;"/><path d="M23.1875,40.8594 L19.0469,40.8594 L18.625,41.8906 L19.0469,41.8906 Q19.6563,41.8906 19.9219,42.125 Q20.1875,42.3594 20.1875,42.75 Q20.1875,43.125 19.9219,43.3594 Q19.6563,43.5938 19.0469,43.5938 L16.75,43.5938 Q16.1406,43.5938 15.8828,43.3594 Q15.625,43.125 15.625,42.7344 Q15.625,42.3594 15.8984,42.1172 Q16.1719,41.875 16.7969,41.8906 L19.4688,35.2344 L18.3594,35.2344 Q17.75,35.2344 17.4844,35 Q17.2188,34.7656 17.2188,34.375 Q17.2188,34 17.4844,33.7656 Q17.75,33.5313 18.3594,33.5313 L22.0313,33.5313 L25.4219,41.8906 Q26.0156,41.8906 26.2031,42.0313 Q26.5938,42.2969 26.5938,42.75 Q26.5938,43.125 26.3359,43.3594 Q26.0781,43.5938 25.4688,43.5938 L23.1719,43.5938 Q22.5625,43.5938 22.2969,43.3594 Q22.0313,43.125 22.0313,42.7344 Q22.0313,42.3594 22.2969,42.125 Q22.5625,41.8906 23.1719,41.8906 L23.5938,41.8906 L23.1875,40.8594 Z M22.4688,39.1563 L21.1094,35.7813 L19.7344,39.1563 L22.4688,39.1563 Z "/><text fill="#000000" font-family="sans-serif" font-size="14" font-style="italic" lengthAdjust="spacingAndGlyphs" textLength="34" x="97.5" y="38.5332">Drink</text><text fill="#000000" font-family="sans-serif" font-size="10" font-style="italic" lengthAdjust="spacingAndGlyphs" textLength="159" x="35" y="51.9902">lu.uni.intro2prog.exam.task2.drink</text></a><!--class lu.uni.intro2prog.exam.task2.drink.MilkDrink--><a href="MilkDrink.html" target="_top" xlink:actuate="onRequest" xlink:show="new" xlink:title="MilkDrink.html" xlink:type="simple"><rect fill="#FEFECE" filter="url(#f14o69v3klvgox)" height="62.0234" id="lu.uni.intro2prog.exam.task2.drink.MilkDrink" style="stroke: #A80036; stroke-width: 1.5;" width="191" x="232" y="8"/><ellipse cx="247" cy="28.0938" fill="#B4A7E5" rx="11" ry="11" style="stroke: #A80036; stroke-width: 1.0;"/><path d="M247.9531,24.7344 L247.9531,31.3906 L249.6719,31.3906 Q250.2813,31.3906 250.5469,31.625 Q250.8125,31.8594 250.8125,32.25 Q250.8125,32.625 250.5469,32.8594 Q250.2813,33.0938 249.6719,33.0938 L244.5313,33.0938 Q243.9219,33.0938 243.6563,32.8594 Q243.3906,32.625 243.3906,32.2344 Q243.3906,31.8594 243.6563,31.625 Q243.9219,31.3906 244.5313,31.3906 L246.25,31.3906 L246.25,24.7344 L244.5313,24.7344 Q243.9219,24.7344 243.6563,24.5 Q243.3906,24.2656 243.3906,23.875 Q243.3906,23.5 243.6563,23.2656 Q243.9219,23.0313 244.5313,23.0313 L249.6719,23.0313 Q250.2813,23.0313 250.5469,23.2656 Q250.8125,23.5 250.8125,23.875 Q250.8125,24.2656 250.5469,24.5 Q250.2813,24.7344 249.6719,24.7344 L247.9531,24.7344 Z "/><text fill="#000000" font-family="sans-serif" font-size="14" font-style="italic" lengthAdjust="spacingAndGlyphs" textLength="60" x="310.5" y="27.5332">MilkDrink</text><text fill="#000000" font-family="sans-serif" font-size="10" font-style="italic" lengthAdjust="spacingAndGlyphs" textLength="159" x="261" y="40.9902">lu.uni.intro2prog.exam.task2.drink</text><line style="stroke: #A80036; stroke-width: 1.5;" x1="233" x2="422" y1="48.1875" y2="48.1875"/><ellipse cx="243" cy="60.6055" fill="#84BE84" rx="3" ry="3" style="stroke: #038048; stroke-width: 1.0;"/><text fill="#000000" font-family="sans-serif" font-size="11" font-style="italic" lengthAdjust="spacingAndGlyphs" textLength="118" x="252" y="63.6064">getMilkPercentage(): int</text></a><!--class lu.uni.intro2prog.exam.task2.drink.CoffeeDrink--><a href="CoffeeDrink.html" target="_top" xlink:actuate="onRequest" xlink:show="new" xlink:title="CoffeeDrink.html" xlink:type="simple"><rect fill="#FEFECE" filter="url(#f14o69v3klvgox)" height="62.0234" id="lu.uni.intro2prog.exam.task2.drink.CoffeeDrink" style="stroke: #A80036; stroke-width: 1.5;" width="191" x="458" y="8"/><ellipse cx="473" cy="28.0938" fill="#B4A7E5" rx="11" ry="11" style="stroke: #A80036; stroke-width: 1.0;"/><path d="M473.9531,24.7344 L473.9531,31.3906 L475.6719,31.3906 Q476.2813,31.3906 476.5469,31.625 Q476.8125,31.8594 476.8125,32.25 Q476.8125,32.625 476.5469,32.8594 Q476.2813,33.0938 475.6719,33.0938 L470.5313,33.0938 Q469.9219,33.0938 469.6563,32.8594 Q469.3906,32.625 469.3906,32.2344 Q469.3906,31.8594 469.6563,31.625 Q469.9219,31.3906 470.5313,31.3906 L472.25,31.3906 L472.25,24.7344 L470.5313,24.7344 Q469.9219,24.7344 469.6563,24.5 Q469.3906,24.2656 469.3906,23.875 Q469.3906,23.5 469.6563,23.2656 Q469.9219,23.0313 470.5313,23.0313 L475.6719,23.0313 Q476.2813,23.0313 476.5469,23.2656 Q476.8125,23.5 476.8125,23.875 Q476.8125,24.2656 476.5469,24.5 Q476.2813,24.7344 475.6719,24.7344 L473.9531,24.7344 Z "/><text fill="#000000" font-family="sans-serif" font-size="14" font-style="italic" lengthAdjust="spacingAndGlyphs" textLength="76" x="528.5" y="27.5332">CoffeeDrink</text><text fill="#000000" font-family="sans-serif" font-size="10" font-style="italic" lengthAdjust="spacingAndGlyphs" textLength="159" x="487" y="40.9902">lu.uni.intro2prog.exam.task2.drink</text><line style="stroke: #A80036; stroke-width: 1.5;" x1="459" x2="648" y1="48.1875" y2="48.1875"/><ellipse cx="469" cy="60.6055" fill="#84BE84" rx="3" ry="3" style="stroke: #038048; stroke-width: 1.0;"/><text fill="#000000" font-family="sans-serif" font-size="11" font-style="italic" lengthAdjust="spacingAndGlyphs" textLength="129" x="478" y="63.6064">getCoffeePercentage(): int</text></a><!--link lu.uni.intro2prog.exam.task2.drink.Drink to lu.uni.intro2prog.exam.task2.drink.LatteMacchiato--><path d="M146.87,70.414 C172.344,87.491 205.074,109.431 235.659,129.934 " fill="none" id="lu.uni.intro2prog.exam.task2.drink.Drink-lu.uni.intro2prog.exam.task2.drink.LatteMacchiato" style="stroke: #A80036; stroke-width: 1.0;"/><polygon fill="none" points="142.838,76.138,130.123,59.188,150.633,64.51,142.838,76.138" style="stroke: #A80036; stroke-width: 1.0;"/><!--link lu.uni.intro2prog.exam.task2.drink.MilkDrink to lu.uni.intro2prog.exam.task2.drink.LatteMacchiato--><path d="M327.5,90.332 C327.5,103.017 327.5,116.778 327.5,129.946 " fill="none" id="lu.uni.intro2prog.exam.task2.drink.MilkDrink-lu.uni.intro2prog.exam.task2.drink.LatteMacchiato" style="stroke: #A80036; stroke-width: 1.0; stroke-dasharray: 7.0,7.0;"/><polygon fill="none" points="320.5,90.294,327.5,70.294,334.5,90.294,320.5,90.294" style="stroke: #A80036; stroke-width: 1.0;"/><!--link lu.uni.intro2prog.exam.task2.drink.CoffeeDrink to lu.uni.intro2prog.exam.task2.drink.LatteMacchiato--><path d="M491.886,81.303 C469.579,96.257 443.878,113.486 419.523,129.812 " fill="none" id="lu.uni.intro2prog.exam.task2.drink.CoffeeDrink-lu.uni.intro2prog.exam.task2.drink.LatteMacchiato" style="stroke: #A80036; stroke-width: 1.0; stroke-dasharray: 7.0,7.0;"/><polygon fill="none" points="488.069,75.435,508.579,70.113,495.865,87.064,488.069,75.435" style="stroke: #A80036; stroke-width: 1.0;"/><text fill="#888888" font-family="sans-serif" font-size="10" lengthAdjust="spacingAndGlyphs" textLength="190" x="238.5" y="275.3809">UMLDoclet 2.0.10, PlantUML 1.2019.08</text><!--
@startuml
    set namespaceSeparator none
    hide empty fields
    hide empty methods

    class "<size:14>LatteMacchiato\n<size:10>lu.uni.intro2prog.exam.task2.drink" as lu.uni.intro2prog.exam.task2.drink.LatteMacchiato [[LatteMacchiato.html]] {
        -coffeeCapsules: int
        -milkCapsules: int
        +LatteMacchiato(int, int, int)
        +getMilkPercentage(): int
        +getCoffeePercentage(): int
    }

    abstract class "<size:14>Drink\n<size:10>lu.uni.intro2prog.exam.task2.drink" as lu.uni.intro2prog.exam.task2.drink.Drink [[Drink.html]]
    interface "<size:14>MilkDrink\n<size:10>lu.uni.intro2prog.exam.task2.drink" as lu.uni.intro2prog.exam.task2.drink.MilkDrink [[MilkDrink.html]] {
        {abstract} +getMilkPercentage(): int
    }
    interface "<size:14>CoffeeDrink\n<size:10>lu.uni.intro2prog.exam.task2.drink" as lu.uni.intro2prog.exam.task2.drink.CoffeeDrink [[CoffeeDrink.html]] {
        {abstract} +getCoffeePercentage(): int
    }

    lu.uni.intro2prog.exam.task2.drink.Drink <|- - lu.uni.intro2prog.exam.task2.drink.LatteMacchiato
    lu.uni.intro2prog.exam.task2.drink.MilkDrink <|.. lu.uni.intro2prog.exam.task2.drink.LatteMacchiato
    lu.uni.intro2prog.exam.task2.drink.CoffeeDrink <|.. lu.uni.intro2prog.exam.task2.drink.LatteMacchiato

    center footer UMLDoclet 2.0.10, PlantUML 1.2019.08
@enduml

PlantUML version 1.2019.08(Sat Jul 13 21:25:14 CEST 2019)
(APACHE source distribution)
Java Runtime: Java(TM) SE Runtime Environment
JVM: Java HotSpot(TM) 64-Bit Server VM
Java Version: 9.0.4+11
Operating System: Windows 10
OS Version: 10.0
Default Encoding: Cp1252
Language: en
Country: US
--></g></svg>