<?xml version="1.0" encoding="UTF-8" standalone="no"?><svg xmlns="http://www.w3.org/2000/svg" xmlns:xlink="http://www.w3.org/1999/xlink" contentScriptType="application/ecmascript" contentStyleType="text/css" height="392px" preserveAspectRatio="none" style="width:546px;height:392px;" version="1.1" viewBox="0 0 546 392" width="546px" zoomAndPan="magnify"><defs><filter height="300%" id="f1vnlp195hs53q" width="300%" x="-1" y="-1"><feGaussianBlur result="blurOut" stdDeviation="2.0"/><feColorMatrix in="blurOut" result="blurOut2" type="matrix" values="0 0 0 0 0 0 0 0 0 0 0 0 0 0 0 0 0 0 .4 0"/><feOffset dx="4.0" dy="4.0" in="blurOut2" result="blurOut3"/><feBlend in="SourceGraphic" in2="blurOut3" mode="normal"/></filter></defs><g><!--cluster lu.uni.intro2prog.exam.task2.drink--><polygon fill="#FFFFFF" filter="url(#f1vnlp195hs53q)" points="22,24,267,24,274,47.6094,524,47.6094,524,343,22,343,22,24" style="stroke: #000000; stroke-width: 1.5;"/><line style="stroke: #000000; stroke-width: 1.5;" x1="22" x2="274" y1="47.6094" y2="47.6094"/><text fill="#000000" font-family="sans-serif" font-size="14" font-weight="bold" lengthAdjust="spacingAndGlyphs" textLength="239" x="26" y="40.5332">lu.uni.intro2prog.exam.task2.drink</text><!--class lu.uni.intro2prog.exam.task2.drink.CoffeeDrink--><a href="CoffeeDrink.html" target="_top" xlink:actuate="onRequest" xlink:show="new" xlink:title="CoffeeDrink.html" xlink:type="simple"><rect fill="#FEFECE" filter="url(#f1vnlp195hs53q)" height="61.8359" id="lu.uni.intro2prog.exam.task2.drink.CoffeeDrink" style="stroke: #A80036; stroke-width: 1.5;" width="155" x="352.5" y="74"/><ellipse cx="393.15" cy="90" fill="#B4A7E5" rx="11" ry="11" style="stroke: #A80036; stroke-width: 1.0;"/><path d="M394.1031,86.6406 L394.1031,93.2969 L395.8219,93.2969 Q396.4313,93.2969 396.6969,93.5313 Q396.9625,93.7656 396.9625,94.1563 Q396.9625,94.5313 396.6969,94.7656 Q396.4313,95 395.8219,95 L390.6813,95 Q390.0719,95 389.8063,94.7656 Q389.5406,94.5313 389.5406,94.1406 Q389.5406,93.7656 389.8063,93.5313 Q390.0719,93.2969 390.6813,93.2969 L392.4,93.2969 L392.4,86.6406 L390.6813,86.6406 Q390.0719,86.6406 389.8063,86.4063 Q389.5406,86.1719 389.5406,85.7813 Q389.5406,85.4063 389.8063,85.1719 Q390.0719,84.9375 390.6813,84.9375 L395.8219,84.9375 Q396.4313,84.9375 396.6969,85.1719 Q396.9625,85.4063 396.9625,85.7813 Q396.9625,86.1719 396.6969,86.4063 Q396.4313,86.6406 395.8219,86.6406 L394.1031,86.6406 Z "/><text fill="#000000" font-family="sans-serif" font-size="12" font-style="italic" lengthAdjust="spacingAndGlyphs" textLength="66" x="412.85" y="94.9102">CoffeeDrink</text><line style="stroke: #A80036; stroke-width: 1.5;" x1="353.5" x2="506.5" y1="106" y2="106"/><line style="stroke: #A80036; stroke-width: 1.5;" x1="353.5" x2="506.5" y1="114" y2="114"/><ellipse cx="363.5" cy="126.418" fill="#84BE84" rx="3" ry="3" style="stroke: #038048; stroke-width: 1.0;"/><text fill="#000000" font-family="sans-serif" font-size="11" font-style="italic" lengthAdjust="spacingAndGlyphs" textLength="129" x="372.5" y="129.4189">getCoffeePercentage(): int</text></a><!--class lu.uni.intro2prog.exam.task2.drink.Drink--><a href="Drink.html" target="_top" xlink:actuate="onRequest" xlink:show="new" xlink:title="Drink.html" xlink:type="simple"><rect fill="#FEFECE" filter="url(#f1vnlp195hs53q)" height="89.5078" id="lu.uni.intro2prog.exam.task2.drink.Drink" style="stroke: #A80036; stroke-width: 1.5;" width="99" x="38.5" y="60"/><ellipse cx="70.15" cy="76" fill="#A9DCDF" rx="11" ry="11" style="stroke: #A80036; stroke-width: 1.0;"/><path d="M72.3375,77.7656 L68.1969,77.7656 L67.775,78.7969 L68.1969,78.7969 Q68.8063,78.7969 69.0719,79.0313 Q69.3375,79.2656 69.3375,79.6563 Q69.3375,80.0313 69.0719,80.2656 Q68.8063,80.5 68.1969,80.5 L65.9,80.5 Q65.2906,80.5 65.0328,80.2656 Q64.775,80.0313 64.775,79.6406 Q64.775,79.2656 65.0484,79.0234 Q65.3219,78.7813 65.9469,78.7969 L68.6188,72.1406 L67.5094,72.1406 Q66.9,72.1406 66.6344,71.9063 Q66.3688,71.6719 66.3688,71.2813 Q66.3688,70.9063 66.6344,70.6719 Q66.9,70.4375 67.5094,70.4375 L71.1813,70.4375 L74.5719,78.7969 Q75.1656,78.7969 75.3531,78.9375 Q75.7438,79.2031 75.7438,79.6563 Q75.7438,80.0313 75.4859,80.2656 Q75.2281,80.5 74.6188,80.5 L72.3219,80.5 Q71.7125,80.5 71.4469,80.2656 Q71.1813,80.0313 71.1813,79.6406 Q71.1813,79.2656 71.4469,79.0313 Q71.7125,78.7969 72.3219,78.7969 L72.7438,78.7969 L72.3375,77.7656 Z M71.6188,76.0625 L70.2594,72.6875 L68.8844,76.0625 L71.6188,76.0625 Z "/><text fill="#000000" font-family="sans-serif" font-size="12" font-style="italic" lengthAdjust="spacingAndGlyphs" textLength="30" x="87.85" y="80.9102">Drink</text><line style="stroke: #A80036; stroke-width: 1.5;" x1="39.5" x2="136.5" y1="92" y2="92"/><rect fill="none" height="6" style="stroke: #C82930; stroke-width: 1.0;" width="6" x="46.5" y="101.418"/><text fill="#000000" font-family="sans-serif" font-size="11" lengthAdjust="spacingAndGlyphs" textLength="50" x="58.5" y="107.4189">milliliter: int</text><line style="stroke: #A80036; stroke-width: 1.5;" x1="39.5" x2="136.5" y1="113.8359" y2="113.8359"/><ellipse cx="49.5" cy="126.2539" fill="#84BE84" rx="3" ry="3" style="stroke: #038048; stroke-width: 1.0;"/><text fill="#000000" font-family="sans-serif" font-size="11" lengthAdjust="spacingAndGlyphs" textLength="43" x="58.5" y="129.2549">Drink(int)</text><ellipse cx="49.5" cy="140.0898" fill="#84BE84" rx="3" ry="3" style="stroke: #038048; stroke-width: 1.0;"/><text fill="#000000" font-family="sans-serif" font-size="11" lengthAdjust="spacingAndGlyphs" textLength="73" x="58.5" y="143.0908">getMilliliter(): int</text></a><!--class lu.uni.intro2prog.exam.task2.drink.HotChocolate--><a href="HotChocolate.html" target="_top" xlink:actuate="onRequest" xlink:show="new" xlink:title="HotChocolate.html" xlink:type="simple"><rect fill="#FEFECE" filter="url(#f1vnlp195hs53q)" height="89.5078" id="lu.uni.intro2prog.exam.task2.drink.HotChocolate" style="stroke: #A80036; stroke-width: 1.5;" width="138" x="181" y="223.5"/><ellipse cx="209.95" cy="239.5" fill="#ADD1B2" rx="11" ry="11" style="stroke: #A80036; stroke-width: 1.0;"/><path d="M212.7156,235.375 Q212.8719,235.1563 213.0594,235.0469 Q213.2469,234.9375 213.4656,234.9375 Q213.8406,234.9375 214.075,235.1953 Q214.3094,235.4531 214.3094,236.0625 L214.3094,237.5156 Q214.3094,238.125 214.075,238.3906 Q213.8406,238.6563 213.4656,238.6563 Q213.1219,238.6563 212.9188,238.4531 Q212.7156,238.2656 212.6063,237.75 Q212.5594,237.3906 212.3719,237.2031 Q212.0438,236.8281 211.4344,236.6094 Q210.825,236.3906 210.2,236.3906 Q209.4344,236.3906 208.8016,236.7188 Q208.1688,237.0469 207.6766,237.7969 Q207.1844,238.5469 207.1844,239.5781 L207.1844,240.6719 Q207.1844,241.9063 208.075,242.7266 Q208.9656,243.5469 210.5594,243.5469 Q211.4969,243.5469 212.1531,243.2969 Q212.5438,243.1406 212.9656,242.7031 Q213.2313,242.4375 213.3797,242.3594 Q213.5281,242.2813 213.7313,242.2813 Q214.0594,242.2813 214.3172,242.5391 Q214.575,242.7969 214.575,243.1406 Q214.575,243.4844 214.2313,243.8906 Q213.7313,244.4688 212.9344,244.7969 Q211.8563,245.25 210.5594,245.25 Q209.0438,245.25 207.8406,244.625 Q206.8563,244.125 206.1688,243.0547 Q205.4813,241.9844 205.4813,240.7031 L205.4813,239.5469 Q205.4813,238.2188 206.0984,237.0703 Q206.7156,235.9219 207.8094,235.3047 Q208.9031,234.6875 210.1375,234.6875 Q210.8719,234.6875 211.5203,234.8516 Q212.1688,235.0156 212.7156,235.375 Z "/><text fill="#000000" font-family="sans-serif" font-size="12" lengthAdjust="spacingAndGlyphs" textLength="75" x="227.05" y="244.4102">HotChocolate</text><line style="stroke: #A80036; stroke-width: 1.5;" x1="182" x2="318" y1="255.5" y2="255.5"/><rect fill="none" height="6" style="stroke: #C82930; stroke-width: 1.0;" width="6" x="189" y="264.918"/><text fill="#000000" font-family="sans-serif" font-size="11" lengthAdjust="spacingAndGlyphs" textLength="79" x="201" y="270.9189">milkCapsules: int</text><line style="stroke: #A80036; stroke-width: 1.5;" x1="182" x2="318" y1="277.3359" y2="277.3359"/><ellipse cx="192" cy="289.7539" fill="#84BE84" rx="3" ry="3" style="stroke: #038048; stroke-width: 1.0;"/><text fill="#000000" font-family="sans-serif" font-size="11" lengthAdjust="spacingAndGlyphs" textLength="100" x="201" y="292.7549">HotChocolate(int, int)</text><ellipse cx="192" cy="303.5898" fill="#84BE84" rx="3" ry="3" style="stroke: #038048; stroke-width: 1.0;"/><text fill="#000000" font-family="sans-serif" font-size="11" lengthAdjust="spacingAndGlyphs" textLength="112" x="201" y="306.5908">getMilkPercentage(): int</text></a><!--class lu.uni.intro2prog.exam.task2.drink.LatteMacchiato--><a href="LatteMacchiato.html" target="_top" xlink:actuate="onRequest" xlink:show="new" xlink:title="LatteMacchiato.html" xlink:type="simple"><rect fill="#FEFECE" filter="url(#f1vnlp195hs53q)" height="117.1797" id="lu.uni.intro2prog.exam.task2.drink.LatteMacchiato" style="stroke: #A80036; stroke-width: 1.5;" width="154" x="354" y="210"/><ellipse cx="387" cy="226" fill="#ADD1B2" rx="11" ry="11" style="stroke: #A80036; stroke-width: 1.0;"/><path d="M389.7656,221.875 Q389.9219,221.6563 390.1094,221.5469 Q390.2969,221.4375 390.5156,221.4375 Q390.8906,221.4375 391.125,221.6953 Q391.3594,221.9531 391.3594,222.5625 L391.3594,224.0156 Q391.3594,224.625 391.125,224.8906 Q390.8906,225.1563 390.5156,225.1563 Q390.1719,225.1563 389.9688,224.9531 Q389.7656,224.7656 389.6563,224.25 Q389.6094,223.8906 389.4219,223.7031 Q389.0938,223.3281 388.4844,223.1094 Q387.875,222.8906 387.25,222.8906 Q386.4844,222.8906 385.8516,223.2188 Q385.2188,223.5469 384.7266,224.2969 Q384.2344,225.0469 384.2344,226.0781 L384.2344,227.1719 Q384.2344,228.4063 385.125,229.2266 Q386.0156,230.0469 387.6094,230.0469 Q388.5469,230.0469 389.2031,229.7969 Q389.5938,229.6406 390.0156,229.2031 Q390.2813,228.9375 390.4297,228.8594 Q390.5781,228.7813 390.7813,228.7813 Q391.1094,228.7813 391.3672,229.0391 Q391.625,229.2969 391.625,229.6406 Q391.625,229.9844 391.2813,230.3906 Q390.7813,230.9688 389.9844,231.2969 Q388.9063,231.75 387.6094,231.75 Q386.0938,231.75 384.8906,231.125 Q383.9063,230.625 383.2188,229.5547 Q382.5313,228.4844 382.5313,227.2031 L382.5313,226.0469 Q382.5313,224.7188 383.1484,223.5703 Q383.7656,222.4219 384.8594,221.8047 Q385.9531,221.1875 387.1875,221.1875 Q387.9219,221.1875 388.5703,221.3516 Q389.2188,221.5156 389.7656,221.875 Z "/><text fill="#000000" font-family="sans-serif" font-size="12" lengthAdjust="spacingAndGlyphs" textLength="82" x="405" y="230.9102">LatteMacchiato</text><line style="stroke: #A80036; stroke-width: 1.5;" x1="355" x2="507" y1="242" y2="242"/><rect fill="none" height="6" style="stroke: #C82930; stroke-width: 1.0;" width="6" x="362" y="251.418"/><text fill="#000000" font-family="sans-serif" font-size="11" lengthAdjust="spacingAndGlyphs" textLength="94" x="374" y="257.4189">coffeeCapsules: int</text><rect fill="none" height="6" style="stroke: #C82930; stroke-width: 1.0;" width="6" x="362" y="265.2539"/><text fill="#000000" font-family="sans-serif" font-size="11" lengthAdjust="spacingAndGlyphs" textLength="79" x="374" y="271.2549">milkCapsules: int</text><line style="stroke: #A80036; stroke-width: 1.5;" x1="355" x2="507" y1="277.6719" y2="277.6719"/><ellipse cx="365" cy="290.0898" fill="#84BE84" rx="3" ry="3" style="stroke: #038048; stroke-width: 1.0;"/><text fill="#000000" font-family="sans-serif" font-size="11" lengthAdjust="spacingAndGlyphs" textLength="126" x="374" y="293.0908">LatteMacchiato(int, int, int)</text><ellipse cx="365" cy="303.9258" fill="#84BE84" rx="3" ry="3" style="stroke: #038048; stroke-width: 1.0;"/><text fill="#000000" font-family="sans-serif" font-size="11" lengthAdjust="spacingAndGlyphs" textLength="112" x="374" y="306.9268">getMilkPercentage(): int</text><ellipse cx="365" cy="317.7617" fill="#84BE84" rx="3" ry="3" style="stroke: #038048; stroke-width: 1.0;"/><text fill="#000000" font-family="sans-serif" font-size="11" lengthAdjust="spacingAndGlyphs" textLength="128" x="374" y="320.7627">getCoffeePercentage(): int</text></a><!--class lu.uni.intro2prog.exam.task2.drink.MilkDrink--><a href="MilkDrink.html" target="_top" xlink:actuate="onRequest" xlink:show="new" xlink:title="MilkDrink.html" xlink:type="simple"><rect fill="#FEFECE" filter="url(#f1vnlp195hs53q)" height="61.8359" id="lu.uni.intro2prog.exam.task2.drink.MilkDrink" style="stroke: #A80036; stroke-width: 1.5;" width="144" x="173" y="74"/><ellipse cx="215" cy="90" fill="#B4A7E5" rx="11" ry="11" style="stroke: #A80036; stroke-width: 1.0;"/><path d="M215.9531,86.6406 L215.9531,93.2969 L217.6719,93.2969 Q218.2813,93.2969 218.5469,93.5313 Q218.8125,93.7656 218.8125,94.1563 Q218.8125,94.5313 218.5469,94.7656 Q218.2813,95 217.6719,95 L212.5313,95 Q211.9219,95 211.6563,94.7656 Q211.3906,94.5313 211.3906,94.1406 Q211.3906,93.7656 211.6563,93.5313 Q211.9219,93.2969 212.5313,93.2969 L214.25,93.2969 L214.25,86.6406 L212.5313,86.6406 Q211.9219,86.6406 211.6563,86.4063 Q211.3906,86.1719 211.3906,85.7813 Q211.3906,85.4063 211.6563,85.1719 Q211.9219,84.9375 212.5313,84.9375 L217.6719,84.9375 Q218.2813,84.9375 218.5469,85.1719 Q218.8125,85.4063 218.8125,85.7813 Q218.8125,86.1719 218.5469,86.4063 Q218.2813,86.6406 217.6719,86.6406 L215.9531,86.6406 Z "/><text fill="#000000" font-family="sans-serif" font-size="12" font-style="italic" lengthAdjust="spacingAndGlyphs" textLength="52" x="235" y="94.9102">MilkDrink</text><line style="stroke: #A80036; stroke-width: 1.5;" x1="174" x2="316" y1="106" y2="106"/><line style="stroke: #A80036; stroke-width: 1.5;" x1="174" x2="316" y1="114" y2="114"/><ellipse cx="184" cy="126.418" fill="#84BE84" rx="3" ry="3" style="stroke: #038048; stroke-width: 1.0;"/><text fill="#000000" font-family="sans-serif" font-size="11" font-style="italic" lengthAdjust="spacingAndGlyphs" textLength="118" x="193" y="129.4189">getMilkPercentage(): int</text></a><!--class lu.uni.intro2prog.exam.task2.drink.Tea--><a href="Tea.html" target="_top" xlink:actuate="onRequest" xlink:show="new" xlink:title="Tea.html" xlink:type="simple"><rect fill="#FEFECE" filter="url(#f1vnlp195hs53q)" height="89.5078" id="lu.uni.intro2prog.exam.task2.drink.Tea" style="stroke: #A80036; stroke-width: 1.5;" width="107" x="38.5" y="223.5"/><ellipse cx="77.8" cy="239.5" fill="#ADD1B2" rx="11" ry="11" style="stroke: #A80036; stroke-width: 1.0;"/><path d="M80.5656,235.375 Q80.7219,235.1563 80.9094,235.0469 Q81.0969,234.9375 81.3156,234.9375 Q81.6906,234.9375 81.925,235.1953 Q82.1594,235.4531 82.1594,236.0625 L82.1594,237.5156 Q82.1594,238.125 81.925,238.3906 Q81.6906,238.6563 81.3156,238.6563 Q80.9719,238.6563 80.7688,238.4531 Q80.5656,238.2656 80.4563,237.75 Q80.4094,237.3906 80.2219,237.2031 Q79.8938,236.8281 79.2844,236.6094 Q78.675,236.3906 78.05,236.3906 Q77.2844,236.3906 76.6516,236.7188 Q76.0188,237.0469 75.5266,237.7969 Q75.0344,238.5469 75.0344,239.5781 L75.0344,240.6719 Q75.0344,241.9063 75.925,242.7266 Q76.8156,243.5469 78.4094,243.5469 Q79.3469,243.5469 80.0031,243.2969 Q80.3938,243.1406 80.8156,242.7031 Q81.0813,242.4375 81.2297,242.3594 Q81.3781,242.2813 81.5813,242.2813 Q81.9094,242.2813 82.1672,242.5391 Q82.425,242.7969 82.425,243.1406 Q82.425,243.4844 82.0813,243.8906 Q81.5813,244.4688 80.7844,244.7969 Q79.7063,245.25 78.4094,245.25 Q76.8938,245.25 75.6906,244.625 Q74.7063,244.125 74.0188,243.0547 Q73.3313,241.9844 73.3313,240.7031 L73.3313,239.5469 Q73.3313,238.2188 73.9484,237.0703 Q74.5656,235.9219 75.6594,235.3047 Q76.7531,234.6875 77.9875,234.6875 Q78.7219,234.6875 79.3703,234.8516 Q80.0188,235.0156 80.5656,235.375 Z "/><text fill="#000000" font-family="sans-serif" font-size="12" lengthAdjust="spacingAndGlyphs" textLength="21" x="97.2" y="244.4102">Tea</text><line style="stroke: #A80036; stroke-width: 1.5;" x1="39.5" x2="144.5" y1="255.5" y2="255.5"/><rect fill="none" height="6" style="stroke: #C82930; stroke-width: 1.0;" width="6" x="46.5" y="264.918"/><text fill="#000000" font-family="sans-serif" font-size="11" lengthAdjust="spacingAndGlyphs" textLength="57" x="58.5" y="270.9189">strength: int</text><line style="stroke: #A80036; stroke-width: 1.5;" x1="39.5" x2="144.5" y1="277.3359" y2="277.3359"/><ellipse cx="49.5" cy="289.7539" fill="#84BE84" rx="3" ry="3" style="stroke: #038048; stroke-width: 1.0;"/><text fill="#000000" font-family="sans-serif" font-size="11" lengthAdjust="spacingAndGlyphs" textLength="54" x="58.5" y="292.7549">Tea(int, int)</text><ellipse cx="49.5" cy="303.5898" fill="#84BE84" rx="3" ry="3" style="stroke: #038048; stroke-width: 1.0;"/><text fill="#000000" font-family="sans-serif" font-size="11" lengthAdjust="spacingAndGlyphs" textLength="81" x="58.5" y="306.5908">getStrength(): int</text></a><!--link lu.uni.intro2prog.exam.task2.drink.Drink to lu.uni.intro2prog.exam.task2.drink.HotChocolate--><path d="M146.44,164.26 C166.009,183.769 187.488,205.181 205.786,223.423 " fill="none" id="lu.uni.intro2prog.exam.task2.drink.Drink-lu.uni.intro2prog.exam.task2.drink.HotChocolate" style="stroke: #A80036; stroke-width: 1.0;"/><polygon fill="none" points="141.489,169.208,132.267,150.131,151.373,159.293,141.489,169.208" style="stroke: #A80036; stroke-width: 1.0;"/><!--link lu.uni.intro2prog.exam.task2.drink.MilkDrink to lu.uni.intro2prog.exam.task2.drink.HotChocolate--><path d="M246.56,156.399 C247.223,177.804 247.989,202.539 248.629,223.229 " fill="none" id="lu.uni.intro2prog.exam.task2.drink.MilkDrink-lu.uni.intro2prog.exam.task2.drink.HotChocolate" style="stroke: #A80036; stroke-width: 1.0; stroke-dasharray: 7.0,7.0;"/><polygon fill="none" points="239.563,156.584,245.94,136.377,253.556,156.151,239.563,156.584" style="stroke: #A80036; stroke-width: 1.0;"/><!--link lu.uni.intro2prog.exam.task2.drink.Drink to lu.uni.intro2prog.exam.task2.drink.LatteMacchiato--><path d="M155.971,149.325 C235.315,185.436 264.304,176.929 336,210 C341.865,212.705 347.821,215.687 353.745,218.827 " fill="none" id="lu.uni.intro2prog.exam.task2.drink.Drink-lu.uni.intro2prog.exam.task2.drink.LatteMacchiato" style="stroke: #A80036; stroke-width: 1.0;"/><polygon fill="none" points="152.714,155.527,137.655,140.621,158.723,142.883,152.714,155.527" style="stroke: #A80036; stroke-width: 1.0;"/><!--link lu.uni.intro2prog.exam.task2.drink.MilkDrink to lu.uni.intro2prog.exam.task2.drink.LatteMacchiato--><path d="M295.107,149.507 C316.457,168.045 341.669,189.936 364.543,209.797 " fill="none" id="lu.uni.intro2prog.exam.task2.drink.MilkDrink-lu.uni.intro2prog.exam.task2.drink.LatteMacchiato" style="stroke: #A80036; stroke-width: 1.0; stroke-dasharray: 7.0,7.0;"/><polygon fill="none" points="290.498,154.775,279.985,136.377,299.676,144.204,290.498,154.775" style="stroke: #A80036; stroke-width: 1.0;"/><!--link lu.uni.intro2prog.exam.task2.drink.CoffeeDrink to lu.uni.intro2prog.exam.task2.drink.LatteMacchiato--><path d="M430.312,156.429 C430.417,173.354 430.535,192.358 430.643,209.797 " fill="none" id="lu.uni.intro2prog.exam.task2.drink.CoffeeDrink-lu.uni.intro2prog.exam.task2.drink.LatteMacchiato" style="stroke: #A80036; stroke-width: 1.0; stroke-dasharray: 7.0,7.0;"/><polygon fill="none" points="423.312,156.42,430.188,136.377,437.312,156.333,423.312,156.42" style="stroke: #A80036; stroke-width: 1.0;"/><!--link lu.uni.intro2prog.exam.task2.drink.Drink to lu.uni.intro2prog.exam.task2.drink.Tea--><path d="M89.5928,170.309 C90.034,188.122 90.5028,207.05 90.9083,223.423 " fill="none" id="lu.uni.intro2prog.exam.task2.drink.Drink-lu.uni.intro2prog.exam.task2.drink.Tea" style="stroke: #A80036; stroke-width: 1.0;"/><polygon fill="none" points="82.5905,170.298,89.093,150.131,96.5862,169.951,82.5905,170.298" style="stroke: #A80036; stroke-width: 1.0;"/><text fill="#888888" font-family="sans-serif" font-size="10" lengthAdjust="spacingAndGlyphs" textLength="190" x="184" y="379.3809">UMLDoclet 2.0.10, PlantUML 1.2019.08</text><!--
@startuml
    namespace lu.uni.intro2prog.exam.task2.drink {

        interface CoffeeDrink [[CoffeeDrink.html]] {
            {abstract} +getCoffeePercentage(): int
        }

        abstract class Drink [[Drink.html]] {
            -milliliter: int
            +Drink(int)
            +getMilliliter(): int
        }

        class HotChocolate [[HotChocolate.html]] {
            -milkCapsules: int
            +HotChocolate(int, int)
            +getMilkPercentage(): int
        }

        class LatteMacchiato [[LatteMacchiato.html]] {
            -coffeeCapsules: int
            -milkCapsules: int
            +LatteMacchiato(int, int, int)
            +getMilkPercentage(): int
            +getCoffeePercentage(): int
        }

        interface MilkDrink [[MilkDrink.html]] {
            {abstract} +getMilkPercentage(): int
        }

        class Tea [[Tea.html]] {
            -strength: int
            +Tea(int, int)
            +getStrength(): int
        }

        Drink <|- - HotChocolate
        MilkDrink <|.. HotChocolate
        Drink <|- - LatteMacchiato
        MilkDrink <|.. LatteMacchiato
        CoffeeDrink <|.. LatteMacchiato
        Drink <|- - Tea
    }

    center footer UMLDoclet 2.0.10, PlantUML 1.2019.08
@enduml

PlantUML version 1.2019.08(Sat Jul 13 21:25:14 CEST 2019)
(APACHE source distribution)
Java Runtime: Java(TM) SE Runtime Environment
JVM: Java HotSpot(TM) 64-Bit Server VM
Java Version: 9.0.4+11
Operating System: Windows 10
OS Version: 10.0
Default Encoding: Cp1252
Language: en
Country: US
--></g></svg>