<?xml version="1.0" encoding="UTF-8" standalone="no"?><svg xmlns="http://www.w3.org/2000/svg" xmlns:xlink="http://www.w3.org/1999/xlink" contentScriptType="application/ecmascript" contentStyleType="text/css" height="239px" preserveAspectRatio="none" style="width:214px;height:239px;" version="1.1" viewBox="0 0 214 239" width="214px" zoomAndPan="magnify"><defs><filter height="300%" id="fshpkur4u0ba3" width="300%" x="-1" y="-1"><feGaussianBlur result="blurOut" stdDeviation="2.0"/><feColorMatrix in="blurOut" result="blurOut2" type="matrix" values="0 0 0 0 0 0 0 0 0 0 0 0 0 0 0 0 0 0 .4 0"/><feOffset dx="4.0" dy="4.0" in="blurOut2" result="blurOut3"/><feBlend in="SourceGraphic" in2="blurOut3" mode="normal"/></filter></defs><g><!--class lu.uni.intro2prog.exam.task2.drink.Tea--><a href="Tea.html" target="_top" xlink:actuate="onRequest" xlink:show="new" xlink:title="Tea.html" xlink:type="simple"><rect fill="#FEFECE" filter="url(#fshpkur4u0ba3)" height="97.6953" id="lu.uni.intro2prog.exam.task2.drink.Tea" style="stroke: #A80036; stroke-width: 1.5;" width="190" x="6.5" y="108"/><ellipse cx="21.5" cy="128.0938" fill="#ADD1B2" rx="11" ry="11" style="stroke: #A80036; stroke-width: 1.0;"/><path d="M24.2656,123.9688 Q24.4219,123.75 24.6094,123.6406 Q24.7969,123.5313 25.0156,123.5313 Q25.3906,123.5313 25.625,123.7891 Q25.8594,124.0469 25.8594,124.6563 L25.8594,126.1094 Q25.8594,126.7188 25.625,126.9844 Q25.3906,127.25 25.0156,127.25 Q24.6719,127.25 24.4688,127.0469 Q24.2656,126.8594 24.1563,126.3438 Q24.1094,125.9844 23.9219,125.7969 Q23.5938,125.4219 22.9844,125.2031 Q22.375,124.9844 21.75,124.9844 Q20.9844,124.9844 20.3516,125.3125 Q19.7188,125.6406 19.2266,126.3906 Q18.7344,127.1406 18.7344,128.1719 L18.7344,129.2656 Q18.7344,130.5 19.625,131.3203 Q20.5156,132.1406 22.1094,132.1406 Q23.0469,132.1406 23.7031,131.8906 Q24.0938,131.7344 24.5156,131.2969 Q24.7813,131.0313 24.9297,130.9531 Q25.0781,130.875 25.2813,130.875 Q25.6094,130.875 25.8672,131.1328 Q26.125,131.3906 26.125,131.7344 Q26.125,132.0781 25.7813,132.4844 Q25.2813,133.0625 24.4844,133.3906 Q23.4063,133.8438 22.1094,133.8438 Q20.5938,133.8438 19.3906,133.2188 Q18.4063,132.7188 17.7188,131.6484 Q17.0313,130.5781 17.0313,129.2969 L17.0313,128.1406 Q17.0313,126.8125 17.6484,125.6641 Q18.2656,124.5156 19.3594,123.8984 Q20.4531,123.2813 21.6875,123.2813 Q22.4219,123.2813 23.0703,123.4453 Q23.7188,123.6094 24.2656,123.9688 Z "/><text fill="#000000" font-family="sans-serif" font-size="14" lengthAdjust="spacingAndGlyphs" textLength="25" x="102" y="127.5332">Tea</text><text fill="#000000" font-family="sans-serif" font-size="10" lengthAdjust="spacingAndGlyphs" textLength="158" x="35.5" y="140.9902">lu.uni.intro2prog.exam.task2.drink</text><line style="stroke: #A80036; stroke-width: 1.5;" x1="7.5" x2="195.5" y1="148.1875" y2="148.1875"/><rect fill="none" height="6" style="stroke: #C82930; stroke-width: 1.0;" width="6" x="14.5" y="157.6055"/><text fill="#000000" font-family="sans-serif" font-size="11" lengthAdjust="spacingAndGlyphs" textLength="57" x="26.5" y="163.6064">strength: int</text><line style="stroke: #A80036; stroke-width: 1.5;" x1="7.5" x2="195.5" y1="170.0234" y2="170.0234"/><ellipse cx="17.5" cy="182.4414" fill="#84BE84" rx="3" ry="3" style="stroke: #038048; stroke-width: 1.0;"/><text fill="#000000" font-family="sans-serif" font-size="11" lengthAdjust="spacingAndGlyphs" textLength="54" x="26.5" y="185.4424">Tea(int, int)</text><ellipse cx="17.5" cy="196.2773" fill="#84BE84" rx="3" ry="3" style="stroke: #038048; stroke-width: 1.0;"/><text fill="#000000" font-family="sans-serif" font-size="11" lengthAdjust="spacingAndGlyphs" textLength="81" x="26.5" y="199.2783">getStrength(): int</text></a><!--class lu.uni.intro2prog.exam.task2.drink.Drink--><a href="Drink.html" target="_top" xlink:actuate="onRequest" xlink:show="new" xlink:title="Drink.html" xlink:type="simple"><rect fill="#FEFECE" filter="url(#fshpkur4u0ba3)" height="40.1875" id="lu.uni.intro2prog.exam.task2.drink.Drink" style="stroke: #A80036; stroke-width: 1.5;" width="191" x="6" y="8"/><ellipse cx="21" cy="28.0938" fill="#A9DCDF" rx="11" ry="11" style="stroke: #A80036; stroke-width: 1.0;"/><path d="M23.1875,29.8594 L19.0469,29.8594 L18.625,30.8906 L19.0469,30.8906 Q19.6563,30.8906 19.9219,31.125 Q20.1875,31.3594 20.1875,31.75 Q20.1875,32.125 19.9219,32.3594 Q19.6563,32.5938 19.0469,32.5938 L16.75,32.5938 Q16.1406,32.5938 15.8828,32.3594 Q15.625,32.125 15.625,31.7344 Q15.625,31.3594 15.8984,31.1172 Q16.1719,30.875 16.7969,30.8906 L19.4688,24.2344 L18.3594,24.2344 Q17.75,24.2344 17.4844,24 Q17.2188,23.7656 17.2188,23.375 Q17.2188,23 17.4844,22.7656 Q17.75,22.5313 18.3594,22.5313 L22.0313,22.5313 L25.4219,30.8906 Q26.0156,30.8906 26.2031,31.0313 Q26.5938,31.2969 26.5938,31.75 Q26.5938,32.125 26.3359,32.3594 Q26.0781,32.5938 25.4688,32.5938 L23.1719,32.5938 Q22.5625,32.5938 22.2969,32.3594 Q22.0313,32.125 22.0313,31.7344 Q22.0313,31.3594 22.2969,31.125 Q22.5625,30.8906 23.1719,30.8906 L23.5938,30.8906 L23.1875,29.8594 Z M22.4688,28.1563 L21.1094,24.7813 L19.7344,28.1563 L22.4688,28.1563 Z "/><text fill="#000000" font-family="sans-serif" font-size="14" font-style="italic" lengthAdjust="spacingAndGlyphs" textLength="34" x="97.5" y="27.5332">Drink</text><text fill="#000000" font-family="sans-serif" font-size="10" font-style="italic" lengthAdjust="spacingAndGlyphs" textLength="159" x="35" y="40.9902">lu.uni.intro2prog.exam.task2.drink</text></a><!--link lu.uni.intro2prog.exam.task2.drink.Drink to lu.uni.intro2prog.exam.task2.drink.Tea--><path d="M101.5,68.358 C101.5,80.818 101.5,94.736 101.5,107.7462 " fill="none" id="lu.uni.intro2prog.exam.task2.drink.Drink-lu.uni.intro2prog.exam.task2.drink.Tea" style="stroke: #A80036; stroke-width: 1.0;"/><polygon fill="none" points="94.5001,68.013,101.5,48.013,108.5,68.013,94.5001,68.013" style="stroke: #A80036; stroke-width: 1.0;"/><text fill="#888888" font-family="sans-serif" font-size="10" lengthAdjust="spacingAndGlyphs" textLength="190" x="12.5" y="226.3809">UMLDoclet 2.0.10, PlantUML 1.2019.08</text><!--
@startuml
    set namespaceSeparator none
    hide empty fields
    hide empty methods

    class "<size:14>Tea\n<size:10>lu.uni.intro2prog.exam.task2.drink" as lu.uni.intro2prog.exam.task2.drink.Tea [[Tea.html]] {
        -strength: int
        +Tea(int, int)
        +getStrength(): int
    }

    abstract class "<size:14>Drink\n<size:10>lu.uni.intro2prog.exam.task2.drink" as lu.uni.intro2prog.exam.task2.drink.Drink [[Drink.html]]

    lu.uni.intro2prog.exam.task2.drink.Drink <|- - lu.uni.intro2prog.exam.task2.drink.Tea

    center footer UMLDoclet 2.0.10, PlantUML 1.2019.08
@enduml

PlantUML version 1.2019.08(Sat Jul 13 21:25:14 CEST 2019)
(APACHE source distribution)
Java Runtime: Java(TM) SE Runtime Environment
JVM: Java HotSpot(TM) 64-Bit Server VM
Java Version: 9.0.4+11
Operating System: Windows 10
OS Version: 10.0
Default Encoding: Cp1252
Language: en
Country: US
--></g></svg>