<?xml version="1.0" encoding="UTF-8" standalone="no"?><svg xmlns="http://www.w3.org/2000/svg" xmlns:xlink="http://www.w3.org/1999/xlink" contentScriptType="application/ecmascript" contentStyleType="text/css" height="236px" preserveAspectRatio="none" style="width:202px;height:236px;" version="1.1" viewBox="0 0 202 236" width="202px" zoomAndPan="magnify"><defs><filter height="300%" id="f1jzbdmk73olst" width="300%" x="-1" y="-1"><feGaussianBlur result="blurOut" stdDeviation="2.0"/><feColorMatrix in="blurOut" result="blurOut2" type="matrix" values="0 0 0 0 0 0 0 0 0 0 0 0 0 0 0 0 0 0 .4 0"/><feOffset dx="4.0" dy="4.0" in="blurOut2" result="blurOut3"/><feBlend in="SourceGraphic" in2="blurOut3" mode="normal"/></filter></defs><g><!--class lu.uni.intro2prog.exam.task1.Container--><a href="Container.html" target="_top" xlink:actuate="onRequest" xlink:show="new" xlink:title="Container.html" xlink:type="simple"><rect fill="#FEFECE" filter="url(#f1jzbdmk73olst)" height="194.5469" id="lu.uni.intro2prog.exam.task1.Container" style="stroke: #A80036; stroke-width: 1.5;" width="165" x="6.5" y="8"/><ellipse cx="21.5" cy="28.0938" fill="#ADD1B2" rx="11" ry="11" style="stroke: #A80036; stroke-width: 1.0;"/><path d="M24.2656,23.9688 Q24.4219,23.75 24.6094,23.6406 Q24.7969,23.5313 25.0156,23.5313 Q25.3906,23.5313 25.625,23.7891 Q25.8594,24.0469 25.8594,24.6563 L25.8594,26.1094 Q25.8594,26.7188 25.625,26.9844 Q25.3906,27.25 25.0156,27.25 Q24.6719,27.25 24.4688,27.0469 Q24.2656,26.8594 24.1563,26.3438 Q24.1094,25.9844 23.9219,25.7969 Q23.5938,25.4219 22.9844,25.2031 Q22.375,24.9844 21.75,24.9844 Q20.9844,24.9844 20.3516,25.3125 Q19.7188,25.6406 19.2266,26.3906 Q18.7344,27.1406 18.7344,28.1719 L18.7344,29.2656 Q18.7344,30.5 19.625,31.3203 Q20.5156,32.1406 22.1094,32.1406 Q23.0469,32.1406 23.7031,31.8906 Q24.0938,31.7344 24.5156,31.2969 Q24.7813,31.0313 24.9297,30.9531 Q25.0781,30.875 25.2813,30.875 Q25.6094,30.875 25.8672,31.1328 Q26.125,31.3906 26.125,31.7344 Q26.125,32.0781 25.7813,32.4844 Q25.2813,33.0625 24.4844,33.3906 Q23.4063,33.8438 22.1094,33.8438 Q20.5938,33.8438 19.3906,33.2188 Q18.4063,32.7188 17.7188,31.6484 Q17.0313,30.5781 17.0313,29.2969 L17.0313,28.1406 Q17.0313,26.8125 17.6484,25.6641 Q18.2656,24.5156 19.3594,23.8984 Q20.4531,23.2813 21.6875,23.2813 Q22.4219,23.2813 23.0703,23.4453 Q23.7188,23.6094 24.2656,23.9688 Z "/><text fill="#000000" font-family="sans-serif" font-size="14" lengthAdjust="spacingAndGlyphs" textLength="62" x="71" y="27.5332">Container</text><text fill="#000000" font-family="sans-serif" font-size="10" lengthAdjust="spacingAndGlyphs" textLength="133" x="35.5" y="40.9902">lu.uni.intro2prog.exam.task1</text><line style="stroke: #A80036; stroke-width: 1.5;" x1="7.5" x2="170.5" y1="48.1875" y2="48.1875"/><rect fill="none" height="6" style="stroke: #C82930; stroke-width: 1.0;" width="6" x="14.5" y="57.6055"/><text fill="#000000" font-family="sans-serif" font-size="11" lengthAdjust="spacingAndGlyphs" textLength="55" x="26.5" y="63.6064">mHeight: int</text><rect fill="none" height="6" style="stroke: #C82930; stroke-width: 1.0;" width="6" x="14.5" y="71.4414"/><text fill="#000000" font-family="sans-serif" font-size="11" lengthAdjust="spacingAndGlyphs" textLength="52" x="26.5" y="77.4424">mWidth: int</text><rect fill="none" height="6" style="stroke: #C82930; stroke-width: 1.0;" width="6" x="14.5" y="85.2773"/><text fill="#000000" font-family="sans-serif" font-size="11" lengthAdjust="spacingAndGlyphs" textLength="58" x="26.5" y="91.2783">mLength: int</text><line style="stroke: #A80036; stroke-width: 1.5;" x1="7.5" x2="170.5" y1="97.6953" y2="97.6953"/><ellipse cx="17.5" cy="110.1133" fill="#84BE84" rx="3" ry="3" style="stroke: #038048; stroke-width: 1.0;"/><text fill="#000000" font-family="sans-serif" font-size="11" lengthAdjust="spacingAndGlyphs" textLength="99" x="26.5" y="113.1143">Container(int, int, int)</text><ellipse cx="17.5" cy="123.9492" fill="#84BE84" rx="3" ry="3" style="stroke: #038048; stroke-width: 1.0;"/><text fill="#000000" font-family="sans-serif" font-size="11" lengthAdjust="spacingAndGlyphs" textLength="70" x="26.5" y="126.9502">getHeight(): int</text><ellipse cx="17.5" cy="137.7852" fill="#84BE84" rx="3" ry="3" style="stroke: #038048; stroke-width: 1.0;"/><text fill="#000000" font-family="sans-serif" font-size="11" lengthAdjust="spacingAndGlyphs" textLength="90" x="26.5" y="140.7861">setHeight(int): void</text><ellipse cx="17.5" cy="151.6211" fill="#84BE84" rx="3" ry="3" style="stroke: #038048; stroke-width: 1.0;"/><text fill="#000000" font-family="sans-serif" font-size="11" lengthAdjust="spacingAndGlyphs" textLength="67" x="26.5" y="154.6221">getWidth(): int</text><ellipse cx="17.5" cy="165.457" fill="#84BE84" rx="3" ry="3" style="stroke: #038048; stroke-width: 1.0;"/><text fill="#000000" font-family="sans-serif" font-size="11" lengthAdjust="spacingAndGlyphs" textLength="87" x="26.5" y="168.458">setWidth(int): void</text><ellipse cx="17.5" cy="179.293" fill="#84BE84" rx="3" ry="3" style="stroke: #038048; stroke-width: 1.0;"/><text fill="#000000" font-family="sans-serif" font-size="11" lengthAdjust="spacingAndGlyphs" textLength="73" x="26.5" y="182.2939">getLength(): int</text><ellipse cx="17.5" cy="193.1289" fill="#84BE84" rx="3" ry="3" style="stroke: #038048; stroke-width: 1.0;"/><text fill="#000000" font-family="sans-serif" font-size="11" lengthAdjust="spacingAndGlyphs" textLength="93" x="26.5" y="196.1299">setLength(int): void</text></a><text fill="#888888" font-family="sans-serif" font-size="10" lengthAdjust="spacingAndGlyphs" textLength="190" x="0" y="223.3809">UMLDoclet 2.0.10, PlantUML 1.2019.08</text><!--
@startuml
    set namespaceSeparator none
    hide empty fields
    hide empty methods

    class "<size:14>Container\n<size:10>lu.uni.intro2prog.exam.task1" as lu.uni.intro2prog.exam.task1.Container [[Container.html]] {
        -mHeight: int
        -mWidth: int
        -mLength: int
        +Container(int, int, int)
        +getHeight(): int
        +setHeight(int): void
        +getWidth(): int
        +setWidth(int): void
        +getLength(): int
        +setLength(int): void
    }

    center footer UMLDoclet 2.0.10, PlantUML 1.2019.08
@enduml

PlantUML version 1.2019.08(Sat Jul 13 21:25:14 CEST 2019)
(APACHE source distribution)
Java Runtime: Java(TM) SE Runtime Environment
JVM: Java HotSpot(TM) 64-Bit Server VM
Java Version: 9.0.4+11
Operating System: Windows 10
OS Version: 10.0
Default Encoding: Cp1252
Language: en
Country: US
--></g></svg>