<?xml version="1.0" encoding="UTF-8" standalone="no"?><svg xmlns="http://www.w3.org/2000/svg" xmlns:xlink="http://www.w3.org/1999/xlink" contentScriptType="application/ecmascript" contentStyleType="text/css" height="465px" preserveAspectRatio="none" style="width:359px;height:465px;" version="1.1" viewBox="0 0 359 465" width="359px" zoomAndPan="magnify"><defs><filter height="300%" id="f1hn15pjaw8emf" width="300%" x="-1" y="-1"><feGaussianBlur result="blurOut" stdDeviation="2.0"/><feColorMatrix in="blurOut" result="blurOut2" type="matrix" values="0 0 0 0 0 0 0 0 0 0 0 0 0 0 0 0 0 0 .4 0"/><feOffset dx="4.0" dy="4.0" in="blurOut2" result="blurOut3"/><feBlend in="SourceGraphic" in2="blurOut3" mode="normal"/></filter></defs><g><!--cluster lu.uni.intro2prog.exam.task1--><polygon fill="#FFFFFF" filter="url(#f1hn15pjaw8emf)" points="22,24,227,24,234,47.6094,337,47.6094,337,416,22,416,22,24" style="stroke: #000000; stroke-width: 1.5;"/><line style="stroke: #000000; stroke-width: 1.5;" x1="22" x2="234" y1="47.6094" y2="47.6094"/><text fill="#000000" font-family="sans-serif" font-size="14" font-weight="bold" lengthAdjust="spacingAndGlyphs" textLength="199" x="26" y="40.5332">lu.uni.intro2prog.exam.task1</text><!--class lu.uni.intro2prog.exam.task1.Container--><a href="Container.html" target="_top" xlink:actuate="onRequest" xlink:show="new" xlink:title="Container.html" xlink:type="simple"><rect fill="#FEFECE" filter="url(#f1hn15pjaw8emf)" height="186.3594" id="lu.uni.intro2prog.exam.task1.Container" style="stroke: #A80036; stroke-width: 1.5;" width="125" x="41.5" y="214"/><ellipse cx="74.05" cy="230" fill="#ADD1B2" rx="11" ry="11" style="stroke: #A80036; stroke-width: 1.0;"/><path d="M76.8156,225.875 Q76.9719,225.6563 77.1594,225.5469 Q77.3469,225.4375 77.5656,225.4375 Q77.9406,225.4375 78.175,225.6953 Q78.4094,225.9531 78.4094,226.5625 L78.4094,228.0156 Q78.4094,228.625 78.175,228.8906 Q77.9406,229.1563 77.5656,229.1563 Q77.2219,229.1563 77.0188,228.9531 Q76.8156,228.7656 76.7063,228.25 Q76.6594,227.8906 76.4719,227.7031 Q76.1438,227.3281 75.5344,227.1094 Q74.925,226.8906 74.3,226.8906 Q73.5344,226.8906 72.9016,227.2188 Q72.2688,227.5469 71.7766,228.2969 Q71.2844,229.0469 71.2844,230.0781 L71.2844,231.1719 Q71.2844,232.4063 72.175,233.2266 Q73.0656,234.0469 74.6594,234.0469 Q75.5969,234.0469 76.2531,233.7969 Q76.6438,233.6406 77.0656,233.2031 Q77.3313,232.9375 77.4797,232.8594 Q77.6281,232.7813 77.8313,232.7813 Q78.1594,232.7813 78.4172,233.0391 Q78.675,233.2969 78.675,233.6406 Q78.675,233.9844 78.3313,234.3906 Q77.8313,234.9688 77.0344,235.2969 Q75.9563,235.75 74.6594,235.75 Q73.1438,235.75 71.9406,235.125 Q70.9563,234.625 70.2688,233.5547 Q69.5813,232.4844 69.5813,231.2031 L69.5813,230.0469 Q69.5813,228.7188 70.1984,227.5703 Q70.8156,226.4219 71.9094,225.8047 Q73.0031,225.1875 74.2375,225.1875 Q74.9719,225.1875 75.6203,225.3516 Q76.2688,225.5156 76.8156,225.875 Z "/><text fill="#000000" font-family="sans-serif" font-size="12" lengthAdjust="spacingAndGlyphs" textLength="54" x="91.95" y="234.9102">Container</text><line style="stroke: #A80036; stroke-width: 1.5;" x1="42.5" x2="165.5" y1="246" y2="246"/><rect fill="none" height="6" style="stroke: #C82930; stroke-width: 1.0;" width="6" x="49.5" y="255.418"/><text fill="#000000" font-family="sans-serif" font-size="11" lengthAdjust="spacingAndGlyphs" textLength="55" x="61.5" y="261.4189">mHeight: int</text><rect fill="none" height="6" style="stroke: #C82930; stroke-width: 1.0;" width="6" x="49.5" y="269.2539"/><text fill="#000000" font-family="sans-serif" font-size="11" lengthAdjust="spacingAndGlyphs" textLength="52" x="61.5" y="275.2549">mWidth: int</text><rect fill="none" height="6" style="stroke: #C82930; stroke-width: 1.0;" width="6" x="49.5" y="283.0898"/><text fill="#000000" font-family="sans-serif" font-size="11" lengthAdjust="spacingAndGlyphs" textLength="58" x="61.5" y="289.0908">mLength: int</text><line style="stroke: #A80036; stroke-width: 1.5;" x1="42.5" x2="165.5" y1="295.5078" y2="295.5078"/><ellipse cx="52.5" cy="307.9258" fill="#84BE84" rx="3" ry="3" style="stroke: #038048; stroke-width: 1.0;"/><text fill="#000000" font-family="sans-serif" font-size="11" lengthAdjust="spacingAndGlyphs" textLength="99" x="61.5" y="310.9268">Container(int, int, int)</text><ellipse cx="52.5" cy="321.7617" fill="#84BE84" rx="3" ry="3" style="stroke: #038048; stroke-width: 1.0;"/><text fill="#000000" font-family="sans-serif" font-size="11" lengthAdjust="spacingAndGlyphs" textLength="70" x="61.5" y="324.7627">getHeight(): int</text><ellipse cx="52.5" cy="335.5977" fill="#84BE84" rx="3" ry="3" style="stroke: #038048; stroke-width: 1.0;"/><text fill="#000000" font-family="sans-serif" font-size="11" lengthAdjust="spacingAndGlyphs" textLength="90" x="61.5" y="338.5986">setHeight(int): void</text><ellipse cx="52.5" cy="349.4336" fill="#84BE84" rx="3" ry="3" style="stroke: #038048; stroke-width: 1.0;"/><text fill="#000000" font-family="sans-serif" font-size="11" lengthAdjust="spacingAndGlyphs" textLength="67" x="61.5" y="352.4346">getWidth(): int</text><ellipse cx="52.5" cy="363.2695" fill="#84BE84" rx="3" ry="3" style="stroke: #038048; stroke-width: 1.0;"/><text fill="#000000" font-family="sans-serif" font-size="11" lengthAdjust="spacingAndGlyphs" textLength="87" x="61.5" y="366.2705">setWidth(int): void</text><ellipse cx="52.5" cy="377.1055" fill="#84BE84" rx="3" ry="3" style="stroke: #038048; stroke-width: 1.0;"/><text fill="#000000" font-family="sans-serif" font-size="11" lengthAdjust="spacingAndGlyphs" textLength="73" x="61.5" y="380.1064">getLength(): int</text><ellipse cx="52.5" cy="390.9414" fill="#84BE84" rx="3" ry="3" style="stroke: #038048; stroke-width: 1.0;"/><text fill="#000000" font-family="sans-serif" font-size="11" lengthAdjust="spacingAndGlyphs" textLength="93" x="61.5" y="393.9424">setLength(int): void</text></a><!--class lu.uni.intro2prog.exam.task1.Launcher--><a href="Launcher.html" target="_top" xlink:actuate="onRequest" xlink:show="new" xlink:title="Launcher.html" xlink:type="simple"><rect fill="#FEFECE" filter="url(#f1hn15pjaw8emf)" height="61.8359" id="lu.uni.intro2prog.exam.task1.Launcher" style="stroke: #A80036; stroke-width: 1.5;" width="116" x="205" y="67"/><ellipse cx="234.4" cy="83" fill="#ADD1B2" rx="11" ry="11" style="stroke: #A80036; stroke-width: 1.0;"/><path d="M237.1656,78.875 Q237.3219,78.6563 237.5094,78.5469 Q237.6969,78.4375 237.9156,78.4375 Q238.2906,78.4375 238.525,78.6953 Q238.7594,78.9531 238.7594,79.5625 L238.7594,81.0156 Q238.7594,81.625 238.525,81.8906 Q238.2906,82.1563 237.9156,82.1563 Q237.5719,82.1563 237.3688,81.9531 Q237.1656,81.7656 237.0563,81.25 Q237.0094,80.8906 236.8219,80.7031 Q236.4938,80.3281 235.8844,80.1094 Q235.275,79.8906 234.65,79.8906 Q233.8844,79.8906 233.2516,80.2188 Q232.6188,80.5469 232.1266,81.2969 Q231.6344,82.0469 231.6344,83.0781 L231.6344,84.1719 Q231.6344,85.4063 232.525,86.2266 Q233.4156,87.0469 235.0094,87.0469 Q235.9469,87.0469 236.6031,86.7969 Q236.9938,86.6406 237.4156,86.2031 Q237.6813,85.9375 237.8297,85.8594 Q237.9781,85.7813 238.1813,85.7813 Q238.5094,85.7813 238.7672,86.0391 Q239.025,86.2969 239.025,86.6406 Q239.025,86.9844 238.6813,87.3906 Q238.1813,87.9688 237.3844,88.2969 Q236.3063,88.75 235.0094,88.75 Q233.4938,88.75 232.2906,88.125 Q231.3063,87.625 230.6188,86.5547 Q229.9313,85.4844 229.9313,84.2031 L229.9313,83.0469 Q229.9313,81.7188 230.5484,80.5703 Q231.1656,79.4219 232.2594,78.8047 Q233.3531,78.1875 234.5875,78.1875 Q235.3219,78.1875 235.9703,78.3516 Q236.6188,78.5156 237.1656,78.875 Z "/><text fill="#000000" font-family="sans-serif" font-size="12" lengthAdjust="spacingAndGlyphs" textLength="52" x="251.6" y="87.9102">Launcher</text><line style="stroke: #A80036; stroke-width: 1.5;" x1="206" x2="320" y1="99" y2="99"/><line style="stroke: #A80036; stroke-width: 1.5;" x1="206" x2="320" y1="107" y2="107"/><ellipse cx="216" cy="119.418" fill="#84BE84" rx="3" ry="3" style="stroke: #038048; stroke-width: 1.0;"/><text fill="#000000" font-family="sans-serif" font-size="11" lengthAdjust="spacingAndGlyphs" text-decoration="underline" textLength="90" x="225" y="122.4189">main(String[]): void</text></a><!--class lu.uni.intro2prog.exam.task1.Storage--><a href="Storage.html" target="_top" xlink:actuate="onRequest" xlink:show="new" xlink:title="Storage.html" xlink:type="simple"><rect fill="#FEFECE" filter="url(#f1hn15pjaw8emf)" height="75.6719" id="lu.uni.intro2prog.exam.task1.Storage" style="stroke: #A80036; stroke-width: 1.5;" width="131" x="38.5" y="60"/><ellipse cx="78.7" cy="76" fill="#ADD1B2" rx="11" ry="11" style="stroke: #A80036; stroke-width: 1.0;"/><path d="M81.4656,71.875 Q81.6219,71.6563 81.8094,71.5469 Q81.9969,71.4375 82.2156,71.4375 Q82.5906,71.4375 82.825,71.6953 Q83.0594,71.9531 83.0594,72.5625 L83.0594,74.0156 Q83.0594,74.625 82.825,74.8906 Q82.5906,75.1563 82.2156,75.1563 Q81.8719,75.1563 81.6688,74.9531 Q81.4656,74.7656 81.3563,74.25 Q81.3094,73.8906 81.1219,73.7031 Q80.7938,73.3281 80.1844,73.1094 Q79.575,72.8906 78.95,72.8906 Q78.1844,72.8906 77.5516,73.2188 Q76.9188,73.5469 76.4266,74.2969 Q75.9344,75.0469 75.9344,76.0781 L75.9344,77.1719 Q75.9344,78.4063 76.825,79.2266 Q77.7156,80.0469 79.3094,80.0469 Q80.2469,80.0469 80.9031,79.7969 Q81.2938,79.6406 81.7156,79.2031 Q81.9813,78.9375 82.1297,78.8594 Q82.2781,78.7813 82.4813,78.7813 Q82.8094,78.7813 83.0672,79.0391 Q83.325,79.2969 83.325,79.6406 Q83.325,79.9844 82.9813,80.3906 Q82.4813,80.9688 81.6844,81.2969 Q80.6063,81.75 79.3094,81.75 Q77.7938,81.75 76.5906,81.125 Q75.6063,80.625 74.9188,79.5547 Q74.2313,78.4844 74.2313,77.2031 L74.2313,76.0469 Q74.2313,74.7188 74.8484,73.5703 Q75.4656,72.4219 76.5594,71.8047 Q77.6531,71.1875 78.8875,71.1875 Q79.6219,71.1875 80.2703,71.3516 Q80.9188,71.5156 81.4656,71.875 Z "/><text fill="#000000" font-family="sans-serif" font-size="12" lengthAdjust="spacingAndGlyphs" textLength="43" x="98.3" y="80.9102">Storage</text><line style="stroke: #A80036; stroke-width: 1.5;" x1="39.5" x2="168.5" y1="92" y2="92"/><line style="stroke: #A80036; stroke-width: 1.5;" x1="39.5" x2="168.5" y1="100" y2="100"/><ellipse cx="49.5" cy="112.418" fill="#84BE84" rx="3" ry="3" style="stroke: #038048; stroke-width: 1.0;"/><text fill="#000000" font-family="sans-serif" font-size="11" lengthAdjust="spacingAndGlyphs" textLength="98" x="58.5" y="115.4189">add(Container): void</text><ellipse cx="49.5" cy="126.2539" fill="#84BE84" rx="3" ry="3" style="stroke: #038048; stroke-width: 1.0;"/><text fill="#000000" font-family="sans-serif" font-size="11" lengthAdjust="spacingAndGlyphs" textLength="105" x="58.5" y="129.2549">getTotalCapacity(): int</text></a><!--link lu.uni.intro2prog.exam.task1.Storage to lu.uni.intro2prog.exam.task1.Container--><path d="M104,136.007 C104,156.395 104,182.751 104,208.598 " fill="none" id="lu.uni.intro2prog.exam.task1.Storage-lu.uni.intro2prog.exam.task1.Container" style="stroke: #A80036; stroke-width: 1.0;"/><polygon fill="#A80036" points="104,213.759,108,204.759,104,208.759,100,204.759,104,213.759" style="stroke: #A80036; stroke-width: 1.0;"/><text fill="#000000" font-family="sans-serif" font-size="13" lengthAdjust="spacingAndGlyphs" textLength="87" x="105" y="180.4951">mListContainer</text><text fill="#000000" font-family="sans-serif" font-size="13" lengthAdjust="spacingAndGlyphs" textLength="5" x="98.8008" y="203.1862">*</text><text fill="#888888" font-family="sans-serif" font-size="10" lengthAdjust="spacingAndGlyphs" textLength="190" x="90.5" y="452.3809">UMLDoclet 2.0.10, PlantUML 1.2019.08</text><!--
@startuml
    namespace lu.uni.intro2prog.exam.task1 {

        class Container [[Container.html]] {
            -mHeight: int
            -mWidth: int
            -mLength: int
            +Container(int, int, int)
            +getHeight(): int
            +setHeight(int): void
            +getWidth(): int
            +setWidth(int): void
            +getLength(): int
            +setLength(int): void
        }

        class Launcher [[Launcher.html]] {
            {static} +main(String[]): void
        }

        class Storage [[Storage.html]] {
            +add(Container): void
            +getTotalCapacity(): int
        }

        Storage - -> "*" Container: mListContainer
    }

    center footer UMLDoclet 2.0.10, PlantUML 1.2019.08
@enduml

PlantUML version 1.2019.08(Sat Jul 13 21:25:14 CEST 2019)
(APACHE source distribution)
Java Runtime: Java(TM) SE Runtime Environment
JVM: Java HotSpot(TM) 64-Bit Server VM
Java Version: 9.0.4+11
Operating System: Windows 10
OS Version: 10.0
Default Encoding: Cp1252
Language: en
Country: US
--></g></svg>