<?xml version="1.0" encoding="UTF-8" standalone="no"?><svg xmlns="http://www.w3.org/2000/svg" xmlns:xlink="http://www.w3.org/1999/xlink" contentScriptType="application/ecmascript" contentStyleType="text/css" height="139px" preserveAspectRatio="none" style="width:223px;height:139px;" version="1.1" viewBox="0 0 223 139" width="223px" zoomAndPan="magnify"><defs><filter height="300%" id="f1e256739xgoe6" width="300%" x="-1" y="-1"><feGaussianBlur result="blurOut" stdDeviation="2.0"/><feColorMatrix in="blurOut" result="blurOut2" type="matrix" values="0 0 0 0 0 0 0 0 0 0 0 0 0 0 0 0 0 0 .4 0"/><feOffset dx="4.0" dy="4.0" in="blurOut2" result="blurOut3"/><feBlend in="SourceGraphic" in2="blurOut3" mode="normal"/></filter></defs><g><!--class lu.uni.intro2prog.exam.task1.Storage--><a href="Storage.html" target="_top" xlink:actuate="onRequest" xlink:show="new" xlink:title="Storage.html" xlink:type="simple"><rect fill="#FEFECE" filter="url(#f1e256739xgoe6)" height="97.6953" id="lu.uni.intro2prog.exam.task1.Storage" style="stroke: #A80036; stroke-width: 1.5;" width="206" x="6" y="8"/><ellipse cx="39.45" cy="28.0938" fill="#ADD1B2" rx="11" ry="11" style="stroke: #A80036; stroke-width: 1.0;"/><path d="M42.2156,23.9688 Q42.3719,23.75 42.5594,23.6406 Q42.7469,23.5313 42.9656,23.5313 Q43.3406,23.5313 43.575,23.7891 Q43.8094,24.0469 43.8094,24.6563 L43.8094,26.1094 Q43.8094,26.7188 43.575,26.9844 Q43.3406,27.25 42.9656,27.25 Q42.6219,27.25 42.4188,27.0469 Q42.2156,26.8594 42.1063,26.3438 Q42.0594,25.9844 41.8719,25.7969 Q41.5438,25.4219 40.9344,25.2031 Q40.325,24.9844 39.7,24.9844 Q38.9344,24.9844 38.3016,25.3125 Q37.6688,25.6406 37.1766,26.3906 Q36.6844,27.1406 36.6844,28.1719 L36.6844,29.2656 Q36.6844,30.5 37.575,31.3203 Q38.4656,32.1406 40.0594,32.1406 Q40.9969,32.1406 41.6531,31.8906 Q42.0438,31.7344 42.4656,31.2969 Q42.7313,31.0313 42.8797,30.9531 Q43.0281,30.875 43.2313,30.875 Q43.5594,30.875 43.8172,31.1328 Q44.075,31.3906 44.075,31.7344 Q44.075,32.0781 43.7313,32.4844 Q43.2313,33.0625 42.4344,33.3906 Q41.3563,33.8438 40.0594,33.8438 Q38.5438,33.8438 37.3406,33.2188 Q36.3563,32.7188 35.6688,31.6484 Q34.9813,30.5781 34.9813,29.2969 L34.9813,28.1406 Q34.9813,26.8125 35.5984,25.6641 Q36.2156,24.5156 37.3094,23.8984 Q38.4031,23.2813 39.6375,23.2813 Q40.3719,23.2813 41.0203,23.4453 Q41.6688,23.6094 42.2156,23.9688 Z "/><text fill="#000000" font-family="sans-serif" font-size="14" lengthAdjust="spacingAndGlyphs" textLength="50" x="99.05" y="27.5332">Storage</text><text fill="#000000" font-family="sans-serif" font-size="10" lengthAdjust="spacingAndGlyphs" textLength="133" x="57.55" y="40.9902">lu.uni.intro2prog.exam.task1</text><line style="stroke: #A80036; stroke-width: 1.5;" x1="7" x2="211" y1="48.1875" y2="48.1875"/><rect fill="none" height="6" style="stroke: #C82930; stroke-width: 1.0;" width="6" x="14" y="57.6055"/><text fill="#000000" font-family="sans-serif" font-size="11" lengthAdjust="spacingAndGlyphs" textLength="180" x="26" y="63.6064">mListContainer: ArrayList&lt;Container&gt;</text><line style="stroke: #A80036; stroke-width: 1.5;" x1="7" x2="211" y1="70.0234" y2="70.0234"/><ellipse cx="17" cy="82.4414" fill="#84BE84" rx="3" ry="3" style="stroke: #038048; stroke-width: 1.0;"/><text fill="#000000" font-family="sans-serif" font-size="11" lengthAdjust="spacingAndGlyphs" textLength="98" x="26" y="85.4424">add(Container): void</text><ellipse cx="17" cy="96.2773" fill="#84BE84" rx="3" ry="3" style="stroke: #038048; stroke-width: 1.0;"/><text fill="#000000" font-family="sans-serif" font-size="11" lengthAdjust="spacingAndGlyphs" textLength="105" x="26" y="99.2783">getTotalCapacity(): int</text></a><text fill="#888888" font-family="sans-serif" font-size="10" lengthAdjust="spacingAndGlyphs" textLength="190" x="20" y="126.3809">UMLDoclet 2.0.10, PlantUML 1.2019.08</text><!--
@startuml
    set namespaceSeparator none
    hide empty fields
    hide empty methods

    class "<size:14>Storage\n<size:10>lu.uni.intro2prog.exam.task1" as lu.uni.intro2prog.exam.task1.Storage [[Storage.html]] {
        -mListContainer: ArrayList<Container>
        +add(Container): void
        +getTotalCapacity(): int
    }

    center footer UMLDoclet 2.0.10, PlantUML 1.2019.08
@enduml

PlantUML version 1.2019.08(Sat Jul 13 21:25:14 CEST 2019)
(APACHE source distribution)
Java Runtime: Java(TM) SE Runtime Environment
JVM: Java HotSpot(TM) 64-Bit Server VM
Java Version: 9.0.4+11
Operating System: Windows 10
OS Version: 10.0
Default Encoding: Cp1252
Language: en
Country: US
--></g></svg>